%TF.GenerationSoftware,KiCad,Pcbnew,7.0.5-0*%
%TF.CreationDate,2024-01-09T14:25:17-05:00*%
%TF.ProjectId,ESP-32_USB_sequencer,4553502d-3332-45f5-9553-425f73657175,rev?*%
%TF.SameCoordinates,Original*%
%TF.FileFunction,Paste,Top*%
%TF.FilePolarity,Positive*%
%FSLAX46Y46*%
G04 Gerber Fmt 4.6, Leading zero omitted, Abs format (unit mm)*
G04 Created by KiCad (PCBNEW 7.0.5-0) date 2024-01-09 14:25:17*
%MOMM*%
%LPD*%
G01*
G04 APERTURE LIST*
G04 Aperture macros list*
%AMRoundRect*
0 Rectangle with rounded corners*
0 $1 Rounding radius*
0 $2 $3 $4 $5 $6 $7 $8 $9 X,Y pos of 4 corners*
0 Add a 4 corners polygon primitive as box body*
4,1,4,$2,$3,$4,$5,$6,$7,$8,$9,$2,$3,0*
0 Add four circle primitives for the rounded corners*
1,1,$1+$1,$2,$3*
1,1,$1+$1,$4,$5*
1,1,$1+$1,$6,$7*
1,1,$1+$1,$8,$9*
0 Add four rect primitives between the rounded corners*
20,1,$1+$1,$2,$3,$4,$5,0*
20,1,$1+$1,$4,$5,$6,$7,0*
20,1,$1+$1,$6,$7,$8,$9,0*
20,1,$1+$1,$8,$9,$2,$3,0*%
G04 Aperture macros list end*
%ADD10RoundRect,0.250000X0.350000X0.450000X-0.350000X0.450000X-0.350000X-0.450000X0.350000X-0.450000X0*%
%ADD11RoundRect,0.250000X-0.350000X-0.450000X0.350000X-0.450000X0.350000X0.450000X-0.350000X0.450000X0*%
%ADD12RoundRect,0.225000X0.225000X0.375000X-0.225000X0.375000X-0.225000X-0.375000X0.225000X-0.375000X0*%
%ADD13R,1.400000X0.300000*%
%ADD14RoundRect,0.250000X0.450000X-0.350000X0.450000X0.350000X-0.450000X0.350000X-0.450000X-0.350000X0*%
%ADD15RoundRect,0.150000X-0.587500X-0.150000X0.587500X-0.150000X0.587500X0.150000X-0.587500X0.150000X0*%
%ADD16RoundRect,0.250000X0.475000X-0.337500X0.475000X0.337500X-0.475000X0.337500X-0.475000X-0.337500X0*%
%ADD17RoundRect,0.150000X0.587500X0.150000X-0.587500X0.150000X-0.587500X-0.150000X0.587500X-0.150000X0*%
%ADD18RoundRect,0.250000X-0.337500X-0.475000X0.337500X-0.475000X0.337500X0.475000X-0.337500X0.475000X0*%
%ADD19RoundRect,0.150000X0.150000X-0.825000X0.150000X0.825000X-0.150000X0.825000X-0.150000X-0.825000X0*%
G04 APERTURE END LIST*
D10*
%TO.C,R7*%
X111647050Y-176595000D03*
X109647050Y-176595000D03*
%TD*%
%TO.C,R8*%
X127407050Y-176595000D03*
X125407050Y-176595000D03*
%TD*%
D11*
%TO.C,R1*%
X75200000Y-172720000D03*
X77200000Y-172720000D03*
%TD*%
D12*
%TO.C,D1*%
X84660000Y-176595000D03*
X81360000Y-176595000D03*
%TD*%
%TO.C,D3*%
X117377050Y-176765000D03*
X114077050Y-176765000D03*
%TD*%
%TO.C,D5*%
X133137050Y-176595000D03*
X129837050Y-176595000D03*
%TD*%
D13*
%TO.C,U3*%
X90510000Y-164505000D03*
X90510000Y-165005000D03*
X90510000Y-165505000D03*
X90510000Y-166005000D03*
X90510000Y-166505000D03*
X94910000Y-166505000D03*
X94910000Y-166005000D03*
X94910000Y-165505000D03*
X94910000Y-165005000D03*
X94910000Y-164505000D03*
%TD*%
D12*
%TO.C,D7*%
X133137050Y-172785000D03*
X129837050Y-172785000D03*
%TD*%
D10*
%TO.C,R6*%
X78930000Y-176595000D03*
X76930000Y-176595000D03*
%TD*%
D14*
%TO.C,R17*%
X82550000Y-166100000D03*
X82550000Y-164100000D03*
%TD*%
D11*
%TO.C,R2*%
X104567050Y-176595000D03*
X106567050Y-176595000D03*
%TD*%
D15*
%TO.C,Q1*%
X134015000Y-138533000D03*
X134015000Y-140433000D03*
X135890000Y-139483000D03*
%TD*%
D12*
%TO.C,D2*%
X84660000Y-172785000D03*
X81360000Y-172785000D03*
%TD*%
D16*
%TO.C,C3*%
X87630000Y-166542500D03*
X87630000Y-164467500D03*
%TD*%
D11*
%TO.C,R4*%
X88701747Y-176556343D03*
X90701747Y-176556343D03*
%TD*%
D17*
%TO.C,Q2*%
X130477500Y-140765500D03*
X130477500Y-138865500D03*
X128602500Y-139815500D03*
%TD*%
D10*
%TO.C,R9*%
X95781747Y-176556343D03*
X93781747Y-176556343D03*
%TD*%
D18*
%TO.C,C1*%
X103335000Y-171580000D03*
X105410000Y-171580000D03*
%TD*%
D12*
%TO.C,D8*%
X101511747Y-172746343D03*
X98211747Y-172746343D03*
%TD*%
%TO.C,D6*%
X101511747Y-176556343D03*
X98211747Y-176556343D03*
%TD*%
D19*
%TO.C,U4*%
X101600000Y-167640000D03*
X102870000Y-167640000D03*
X104140000Y-167640000D03*
X105410000Y-167640000D03*
X106680000Y-167640000D03*
X107950000Y-167640000D03*
X109220000Y-167640000D03*
X109220000Y-162690000D03*
X107950000Y-162690000D03*
X106680000Y-162690000D03*
X105410000Y-162690000D03*
X104140000Y-162690000D03*
X102870000Y-162690000D03*
X101600000Y-162690000D03*
%TD*%
D11*
%TO.C,R3*%
X120327050Y-176595000D03*
X122327050Y-176595000D03*
%TD*%
D12*
%TO.C,D4*%
X117377050Y-172785000D03*
X114077050Y-172785000D03*
%TD*%
M02*
