M48
; DRILL file {KiCad 7.0.5-0} date 2024 January 09, Tuesday 14:25:15
; FORMAT={-:-/ absolute / metric / decimal}
; #@! TF.CreationDate,2024-01-09T14:25:15-05:00
; #@! TF.GenerationSoftware,Kicad,Pcbnew,7.0.5-0
; #@! TF.FileFunction,Plated,1,2,PTH
FMAT,2
METRIC
; #@! TA.AperFunction,Plated,PTH,ViaDrill
T1C0.400
; #@! TA.AperFunction,Plated,PTH,ComponentDrill
T2C0.800
; #@! TA.AperFunction,Plated,PTH,ComponentDrill
T3C1.000
; #@! TA.AperFunction,Plated,PTH,ComponentDrill
T4C1.220
; #@! TA.AperFunction,Plated,PTH,ComponentDrill
T5C1.400
; #@! TA.AperFunction,Plated,PTH,ComponentDrill
T6C1.420
; #@! TA.AperFunction,Plated,PTH,ComponentDrill
T7C1.430
%
G90
G05
T1
X82.55Y-167.64
X86.36Y-170.18
X86.36Y-172.72
X87.63Y-168.91
X96.52Y-163.83
X104.14Y-173.99
X104.544Y-103.274
X105.41Y-104.14
X105.483Y-101.527
X106.414Y-173.724
X106.68Y-104.14
X106.68Y-160.02
X109.22Y-172.72
X118.11Y-165.1
X119.38Y-163.83
X128.27Y-132.08
X129.54Y-130.81
X129.54Y-143.51
X134.62Y-146.05
T2
X74.93Y-147.103
X74.93Y-152.183
X81.28Y-129.54
X81.28Y-134.62
X81.28Y-140.753
X83.82Y-140.753
X85.09Y-147.103
X85.09Y-152.183
X86.36Y-140.753
X88.9Y-147.463
X88.9Y-152.543
X91.44Y-129.54
X91.44Y-134.62
X91.44Y-141.113
X93.98Y-141.113
X96.52Y-129.323
X96.52Y-141.113
X99.06Y-147.463
X99.06Y-152.543
X100.33Y-86.143
X100.33Y-88.683
X100.33Y-91.223
X100.33Y-93.763
X100.33Y-96.303
X100.33Y-98.843
X100.33Y-101.383
X100.33Y-103.923
X100.33Y-106.463
X100.33Y-109.003
X101.6Y-152.183
X102.87Y-86.143
X102.87Y-88.683
X102.87Y-91.223
X102.87Y-93.763
X102.87Y-96.303
X102.87Y-98.843
X102.87Y-101.383
X102.87Y-103.923
X102.87Y-106.463
X102.87Y-109.003
X102.88Y-140.743
X102.88Y-148.363
X105.42Y-140.743
X105.42Y-148.363
X106.68Y-129.323
X107.96Y-140.743
X107.96Y-148.363
X110.5Y-140.743
X110.5Y-148.363
X111.76Y-129.323
X111.76Y-152.183
X114.3Y-135.673
X114.3Y-149.643
X118.11Y-143.293
X120.65Y-143.293
X121.92Y-129.323
X123.19Y-143.293
X124.46Y-135.673
X124.46Y-149.643
X125.73Y-86.143
X125.73Y-88.683
X125.73Y-91.223
X125.73Y-93.763
X125.73Y-96.303
X125.73Y-98.843
X125.73Y-101.383
X125.73Y-103.923
X125.73Y-106.463
X125.73Y-109.003
X127.0Y-129.323
X127.0Y-134.403
X127.0Y-145.833
X127.0Y-150.913
X128.27Y-86.143
X128.27Y-88.683
X128.27Y-91.223
X128.27Y-93.763
X128.27Y-96.303
X128.27Y-98.843
X128.27Y-101.383
X128.27Y-103.923
X128.27Y-106.463
X128.27Y-109.003
X132.217Y-92.71
X137.16Y-129.323
X137.16Y-134.403
X137.16Y-145.833
X137.16Y-150.913
X137.217Y-92.71
T3
X77.47Y-91.44
X77.47Y-93.98
X77.47Y-96.52
X77.47Y-99.06
X77.47Y-101.6
X77.47Y-104.14
X77.47Y-106.68
X77.47Y-109.22
X77.47Y-111.76
X77.47Y-114.3
X77.47Y-116.84
X77.47Y-119.38
X90.17Y-91.44
X92.71Y-91.44
X92.71Y-93.98
X92.71Y-96.52
X92.71Y-99.06
X92.71Y-101.6
X92.71Y-104.14
X92.71Y-106.68
X92.71Y-109.22
X92.71Y-111.76
X92.71Y-114.3
X92.71Y-116.84
X92.71Y-119.38
X135.89Y-98.853
X135.89Y-101.393
X135.89Y-103.933
X135.89Y-106.473
X135.89Y-114.083
X135.89Y-116.623
X135.89Y-119.163
X135.89Y-121.703
T4
X84.52Y-158.75
X84.52Y-181.61
X100.3Y-158.75
X101.03Y-181.61
X117.4Y-181.61
X120.65Y-158.75
X132.78Y-181.61
X136.59Y-158.75
T5
X95.25Y-135.673
X107.95Y-135.673
T6
X81.42Y-158.75
X81.42Y-181.61
X97.2Y-158.75
X97.93Y-181.61
X114.3Y-181.61
X117.55Y-158.75
X129.68Y-181.61
X133.49Y-158.75
T7
X73.12Y-158.75
X73.12Y-181.61
X88.9Y-158.75
X89.63Y-181.61
X106.0Y-181.61
X109.25Y-158.75
X121.38Y-181.61
X125.19Y-158.75
T0
M30
