%TF.GenerationSoftware,KiCad,Pcbnew,7.0.5-0*%
%TF.CreationDate,2024-01-09T14:25:18-05:00*%
%TF.ProjectId,ESP-32_USB_sequencer,4553502d-3332-45f5-9553-425f73657175,rev?*%
%TF.SameCoordinates,Original*%
%TF.FileFunction,Soldermask,Bot*%
%TF.FilePolarity,Negative*%
%FSLAX46Y46*%
G04 Gerber Fmt 4.6, Leading zero omitted, Abs format (unit mm)*
G04 Created by KiCad (PCBNEW 7.0.5-0) date 2024-01-09 14:25:18*
%MOMM*%
%LPD*%
G01*
G04 APERTURE LIST*
%ADD10C,1.600000*%
%ADD11O,1.600000X1.600000*%
%ADD12R,1.600000X1.600000*%
%ADD13R,1.500000X1.500000*%
%ADD14C,1.500000*%
%ADD15C,1.400000*%
%ADD16R,2.800000X2.800000*%
%ADD17O,2.800000X2.800000*%
%ADD18R,1.700000X1.700000*%
%ADD19O,1.700000X1.700000*%
%ADD20R,1.830000X1.930000*%
%ADD21C,2.130000*%
G04 APERTURE END LIST*
D10*
%TO.C,R11*%
X127000000Y-134403000D03*
D11*
X137160000Y-134403000D03*
%TD*%
D10*
%TO.C,R23*%
X101600000Y-152183000D03*
D11*
X111760000Y-152183000D03*
%TD*%
D10*
%TO.C,R22*%
X106680000Y-129323000D03*
D11*
X96520000Y-129323000D03*
%TD*%
D10*
%TO.C,R21*%
X111760000Y-129323000D03*
D11*
X121920000Y-129323000D03*
%TD*%
D12*
%TO.C,U5*%
X102880000Y-148363000D03*
D11*
X105420000Y-148363000D03*
X107960000Y-148363000D03*
X110500000Y-148363000D03*
X110500000Y-140743000D03*
X107960000Y-140743000D03*
X105420000Y-140743000D03*
X102880000Y-140743000D03*
%TD*%
D13*
%TO.C,Q4*%
X81280000Y-140753000D03*
D14*
X83820000Y-140753000D03*
X86360000Y-140753000D03*
%TD*%
%TO.C,U2*%
X77470000Y-91440000D03*
X77470000Y-93980000D03*
X77470000Y-96520000D03*
X77470000Y-99060000D03*
X77470000Y-101600000D03*
X77470000Y-104140000D03*
X77470000Y-106680000D03*
X77470000Y-109220000D03*
X77470000Y-111760000D03*
X77470000Y-114300000D03*
X77470000Y-116840000D03*
X77470000Y-119380000D03*
X92710000Y-119380000D03*
X92710000Y-116840000D03*
X92710000Y-114300000D03*
X92710000Y-111760000D03*
X92710000Y-109220000D03*
X92710000Y-106680000D03*
X92710000Y-104140000D03*
X92710000Y-101600000D03*
X92710000Y-99060000D03*
X92710000Y-96520000D03*
X92710000Y-93980000D03*
X92710000Y-91440000D03*
X90170000Y-91440000D03*
%TD*%
D15*
%TO.C,U1*%
X128270000Y-109003000D03*
X125730000Y-109003000D03*
X128270000Y-106463000D03*
X125730000Y-106463000D03*
X128270000Y-103923000D03*
X125730000Y-103923000D03*
X128270000Y-101383000D03*
X125730000Y-101383000D03*
X128270000Y-98843000D03*
X125730000Y-98843000D03*
X128270000Y-96303000D03*
X125730000Y-96303000D03*
X128270000Y-93763000D03*
X125730000Y-93763000D03*
X128270000Y-91223000D03*
X125730000Y-91223000D03*
X128270000Y-88683000D03*
X125730000Y-88683000D03*
X128270000Y-86143000D03*
X125730000Y-86143000D03*
X102870000Y-109003000D03*
X100330000Y-109003000D03*
X102870000Y-106463000D03*
X100330000Y-106463000D03*
X102870000Y-103923000D03*
X100330000Y-103923000D03*
X102870000Y-101383000D03*
X100330000Y-101383000D03*
X102870000Y-98843000D03*
X100330000Y-98843000D03*
X102870000Y-96303000D03*
X100330000Y-96303000D03*
X102870000Y-93763000D03*
X100330000Y-93763000D03*
X102870000Y-91223000D03*
X100330000Y-91223000D03*
X102870000Y-88683000D03*
X100330000Y-88683000D03*
X102870000Y-86143000D03*
X100330000Y-86143000D03*
%TD*%
D10*
%TO.C,R18*%
X81280000Y-129540000D03*
D11*
X91440000Y-129540000D03*
%TD*%
D10*
%TO.C,R27*%
X114300000Y-149643000D03*
D11*
X124460000Y-149643000D03*
%TD*%
D10*
%TO.C,R13*%
X127000000Y-150913000D03*
D11*
X137160000Y-150913000D03*
%TD*%
D10*
%TO.C,R14*%
X99060000Y-147463000D03*
D11*
X88900000Y-147463000D03*
%TD*%
D13*
%TO.C,Q3*%
X91440000Y-141113000D03*
D14*
X93980000Y-141113000D03*
X96520000Y-141113000D03*
%TD*%
D13*
%TO.C,Q7*%
X118110000Y-143293000D03*
D14*
X120650000Y-143293000D03*
X123190000Y-143293000D03*
%TD*%
D16*
%TO.C,D9*%
X95250000Y-135673000D03*
D17*
X107950000Y-135673000D03*
%TD*%
D10*
%TO.C,R24*%
X124460000Y-135673000D03*
D11*
X114300000Y-135673000D03*
%TD*%
D12*
%TO.C,C2*%
X132217349Y-92710000D03*
D10*
X137217349Y-92710000D03*
%TD*%
%TO.C,R10*%
X127000000Y-129323000D03*
D11*
X137160000Y-129323000D03*
%TD*%
D10*
%TO.C,R12*%
X127000000Y-145833000D03*
D11*
X137160000Y-145833000D03*
%TD*%
D10*
%TO.C,R15*%
X85090000Y-152183000D03*
D11*
X74930000Y-152183000D03*
%TD*%
D10*
%TO.C,R5*%
X99060000Y-152543000D03*
D11*
X88900000Y-152543000D03*
%TD*%
D10*
%TO.C,R16*%
X85090000Y-147103000D03*
D11*
X74930000Y-147103000D03*
%TD*%
D10*
%TO.C,R19*%
X81280000Y-134620000D03*
D11*
X91440000Y-134620000D03*
%TD*%
D18*
%TO.C,I2CA2*%
X135890000Y-114083000D03*
D19*
X135890000Y-116623000D03*
X135890000Y-119163000D03*
X135890000Y-121703000D03*
%TD*%
D20*
%TO.C,J3*%
X84520000Y-158750000D03*
D21*
X73120000Y-158750000D03*
X81420000Y-158750000D03*
%TD*%
%TO.C,J10*%
X109250000Y-158750000D03*
D20*
X120650000Y-158750000D03*
D21*
X117550000Y-158750000D03*
%TD*%
D20*
%TO.C,J6*%
X84520000Y-181610000D03*
D21*
X73120000Y-181610000D03*
X81420000Y-181610000D03*
%TD*%
D20*
%TO.C,J1*%
X117400000Y-181610000D03*
D21*
X106000000Y-181610000D03*
X114300000Y-181610000D03*
%TD*%
D20*
%TO.C,J2*%
X100300000Y-158750000D03*
D21*
X88900000Y-158750000D03*
X97200000Y-158750000D03*
%TD*%
D18*
%TO.C,I2CA1*%
X135890000Y-98853000D03*
D19*
X135890000Y-101393000D03*
X135890000Y-103933000D03*
X135890000Y-106473000D03*
%TD*%
D21*
%TO.C,J12*%
X125190000Y-158750000D03*
D20*
X136590000Y-158750000D03*
D21*
X133490000Y-158750000D03*
%TD*%
D20*
%TO.C,J7*%
X101030000Y-181610000D03*
D21*
X89630000Y-181610000D03*
X97930000Y-181610000D03*
%TD*%
D20*
%TO.C,J5*%
X132780000Y-181610000D03*
D21*
X121380000Y-181610000D03*
X129680000Y-181610000D03*
%TD*%
M02*
