%TF.GenerationSoftware,KiCad,Pcbnew,7.0.5-0*%
%TF.CreationDate,2024-01-09T14:25:18-05:00*%
%TF.ProjectId,ESP-32_USB_sequencer,4553502d-3332-45f5-9553-425f73657175,rev?*%
%TF.SameCoordinates,Original*%
%TF.FileFunction,Legend,Bot*%
%TF.FilePolarity,Positive*%
%FSLAX46Y46*%
G04 Gerber Fmt 4.6, Leading zero omitted, Abs format (unit mm)*
G04 Created by KiCad (PCBNEW 7.0.5-0) date 2024-01-09 14:25:18*
%MOMM*%
%LPD*%
G01*
G04 APERTURE LIST*
%ADD10C,0.150000*%
%ADD11C,0.120000*%
G04 APERTURE END LIST*
D10*
X99060000Y-107950000D02*
X101600000Y-107950000D01*
X101600000Y-110490000D01*
X99060000Y-110490000D01*
X99060000Y-107950000D01*
G36*
X99060000Y-107950000D02*
G01*
X101600000Y-107950000D01*
X101600000Y-110490000D01*
X99060000Y-110490000D01*
X99060000Y-107950000D01*
G37*
X96710146Y-180344491D02*
X99250146Y-180344491D01*
X99250146Y-182884491D01*
X96710146Y-182884491D01*
X96710146Y-180344491D01*
G36*
X96710146Y-180344491D02*
G01*
X99250146Y-180344491D01*
X99250146Y-182884491D01*
X96710146Y-182884491D01*
X96710146Y-180344491D01*
G37*
X83212070Y-180422434D02*
X85752070Y-180422434D01*
X85752070Y-182962434D01*
X83212070Y-182962434D01*
X83212070Y-180422434D01*
G36*
X83212070Y-180422434D02*
G01*
X85752070Y-180422434D01*
X85752070Y-182962434D01*
X83212070Y-182962434D01*
X83212070Y-180422434D01*
G37*
X80150364Y-157552943D02*
X82690364Y-157552943D01*
X82690364Y-160092943D01*
X80150364Y-160092943D01*
X80150364Y-157552943D01*
G36*
X80150364Y-157552943D02*
G01*
X82690364Y-157552943D01*
X82690364Y-160092943D01*
X80150364Y-160092943D01*
X80150364Y-157552943D01*
G37*
X134620000Y-105410000D02*
X137160000Y-105410000D01*
X137160000Y-107950000D01*
X134620000Y-107950000D01*
X134620000Y-105410000D01*
G36*
X134620000Y-105410000D02*
G01*
X137160000Y-105410000D01*
X137160000Y-107950000D01*
X134620000Y-107950000D01*
X134620000Y-105410000D01*
G37*
X99820295Y-180323041D02*
X102360295Y-180323041D01*
X102360295Y-182863041D01*
X99820295Y-182863041D01*
X99820295Y-180323041D01*
G36*
X99820295Y-180323041D02*
G01*
X102360295Y-180323041D01*
X102360295Y-182863041D01*
X99820295Y-182863041D01*
X99820295Y-180323041D01*
G37*
X131538398Y-180281230D02*
X134078398Y-180281230D01*
X134078398Y-182821230D01*
X131538398Y-182821230D01*
X131538398Y-180281230D01*
G36*
X131538398Y-180281230D02*
G01*
X134078398Y-180281230D01*
X134078398Y-182821230D01*
X131538398Y-182821230D01*
X131538398Y-180281230D01*
G37*
X121920000Y-142161284D02*
X124460000Y-142161284D01*
X124460000Y-144701284D01*
X121920000Y-144701284D01*
X121920000Y-142161284D01*
G36*
X121920000Y-142161284D02*
G01*
X124460000Y-142161284D01*
X124460000Y-144701284D01*
X121920000Y-144701284D01*
X121920000Y-142161284D01*
G37*
X80120777Y-180443043D02*
X82660777Y-180443043D01*
X82660777Y-182983043D01*
X80120777Y-182983043D01*
X80120777Y-180443043D01*
G36*
X80120777Y-180443043D02*
G01*
X82660777Y-180443043D01*
X82660777Y-182983043D01*
X80120777Y-182983043D01*
X80120777Y-180443043D01*
G37*
X91285253Y-146162651D02*
X93825253Y-146162651D01*
X93825253Y-148702651D01*
X91285253Y-148702651D01*
X91285253Y-146162651D01*
G36*
X91285253Y-146162651D02*
G01*
X93825253Y-146162651D01*
X93825253Y-148702651D01*
X91285253Y-148702651D01*
X91285253Y-146162651D01*
G37*
X116106277Y-180301193D02*
X118646277Y-180301193D01*
X118646277Y-182841193D01*
X116106277Y-182841193D01*
X116106277Y-180301193D01*
G36*
X116106277Y-180301193D02*
G01*
X118646277Y-180301193D01*
X118646277Y-182841193D01*
X116106277Y-182841193D01*
X116106277Y-180301193D01*
G37*
X127000000Y-107950000D02*
X129540000Y-107950000D01*
X129540000Y-110490000D01*
X127000000Y-110490000D01*
X127000000Y-107950000D01*
G36*
X127000000Y-107950000D02*
G01*
X129540000Y-107950000D01*
X129540000Y-110490000D01*
X127000000Y-110490000D01*
X127000000Y-107950000D01*
G37*
X128481484Y-180242778D02*
X131021484Y-180242778D01*
X131021484Y-182782778D01*
X128481484Y-182782778D01*
X128481484Y-180242778D01*
G36*
X128481484Y-180242778D02*
G01*
X131021484Y-180242778D01*
X131021484Y-182782778D01*
X128481484Y-182782778D01*
X128481484Y-180242778D01*
G37*
X135312797Y-157435657D02*
X137852797Y-157435657D01*
X137852797Y-159975657D01*
X135312797Y-159975657D01*
X135312797Y-157435657D01*
G36*
X135312797Y-157435657D02*
G01*
X137852797Y-157435657D01*
X137852797Y-159975657D01*
X135312797Y-159975657D01*
X135312797Y-157435657D01*
G37*
X99036122Y-157554044D02*
X101576122Y-157554044D01*
X101576122Y-160094044D01*
X99036122Y-160094044D01*
X99036122Y-157554044D01*
G36*
X99036122Y-157554044D02*
G01*
X101576122Y-157554044D01*
X101576122Y-160094044D01*
X99036122Y-160094044D01*
X99036122Y-157554044D01*
G37*
X113060002Y-180378806D02*
X115600002Y-180378806D01*
X115600002Y-182918806D01*
X113060002Y-182918806D01*
X113060002Y-180378806D01*
G36*
X113060002Y-180378806D02*
G01*
X115600002Y-180378806D01*
X115600002Y-182918806D01*
X113060002Y-182918806D01*
X113060002Y-180378806D01*
G37*
X119280000Y-157440000D02*
X121820000Y-157440000D01*
X121820000Y-159980000D01*
X119280000Y-159980000D01*
X119280000Y-157440000D01*
G36*
X119280000Y-157440000D02*
G01*
X121820000Y-157440000D01*
X121820000Y-159980000D01*
X119280000Y-159980000D01*
X119280000Y-157440000D01*
G37*
X95250000Y-139700000D02*
X97790000Y-139700000D01*
X97790000Y-142240000D01*
X95250000Y-142240000D01*
X95250000Y-139700000D01*
G36*
X95250000Y-139700000D02*
G01*
X97790000Y-139700000D01*
X97790000Y-142240000D01*
X95250000Y-142240000D01*
X95250000Y-139700000D01*
G37*
X83246200Y-157573582D02*
X85786200Y-157573582D01*
X85786200Y-160113582D01*
X83246200Y-160113582D01*
X83246200Y-157573582D01*
G36*
X83246200Y-157573582D02*
G01*
X85786200Y-157573582D01*
X85786200Y-160113582D01*
X83246200Y-160113582D01*
X83246200Y-157573582D01*
G37*
X76200000Y-115570000D02*
X78740000Y-115570000D01*
X78740000Y-118110000D01*
X76200000Y-118110000D01*
X76200000Y-115570000D01*
G36*
X76200000Y-115570000D02*
G01*
X78740000Y-115570000D01*
X78740000Y-118110000D01*
X76200000Y-118110000D01*
X76200000Y-115570000D01*
G37*
X91440000Y-110490000D02*
X93980000Y-110490000D01*
X93980000Y-113030000D01*
X91440000Y-113030000D01*
X91440000Y-110490000D01*
G36*
X91440000Y-110490000D02*
G01*
X93980000Y-110490000D01*
X93980000Y-113030000D01*
X91440000Y-113030000D01*
X91440000Y-110490000D01*
G37*
X135890000Y-91440000D02*
X138430000Y-91440000D01*
X138430000Y-93980000D01*
X135890000Y-93980000D01*
X135890000Y-91440000D01*
G36*
X135890000Y-91440000D02*
G01*
X138430000Y-91440000D01*
X138430000Y-93980000D01*
X135890000Y-93980000D01*
X135890000Y-91440000D01*
G37*
X134620000Y-120650000D02*
X137160000Y-120650000D01*
X137160000Y-123190000D01*
X134620000Y-123190000D01*
X134620000Y-120650000D01*
G36*
X134620000Y-120650000D02*
G01*
X137160000Y-120650000D01*
X137160000Y-123190000D01*
X134620000Y-123190000D01*
X134620000Y-120650000D01*
G37*
X95963279Y-157517022D02*
X98503279Y-157517022D01*
X98503279Y-160057022D01*
X95963279Y-160057022D01*
X95963279Y-157517022D01*
G36*
X95963279Y-157517022D02*
G01*
X98503279Y-157517022D01*
X98503279Y-160057022D01*
X95963279Y-160057022D01*
X95963279Y-157517022D01*
G37*
X101600000Y-92710000D02*
X104140000Y-92710000D01*
X104140000Y-95250000D01*
X101600000Y-95250000D01*
X101600000Y-92710000D01*
G36*
X101600000Y-92710000D02*
G01*
X104140000Y-92710000D01*
X104140000Y-95250000D01*
X101600000Y-95250000D01*
X101600000Y-92710000D01*
G37*
X104124503Y-139521459D02*
X106664503Y-139521459D01*
X106664503Y-142061459D01*
X104124503Y-142061459D01*
X104124503Y-139521459D01*
G36*
X104124503Y-139521459D02*
G01*
X106664503Y-139521459D01*
X106664503Y-142061459D01*
X104124503Y-142061459D01*
X104124503Y-139521459D01*
G37*
X132308390Y-93927690D02*
X132784580Y-93927690D01*
X132784580Y-93927690D02*
X132832199Y-94403880D01*
X132832199Y-94403880D02*
X132784580Y-94356261D01*
X132784580Y-94356261D02*
X132689342Y-94308642D01*
X132689342Y-94308642D02*
X132451247Y-94308642D01*
X132451247Y-94308642D02*
X132356009Y-94356261D01*
X132356009Y-94356261D02*
X132308390Y-94403880D01*
X132308390Y-94403880D02*
X132260771Y-94499118D01*
X132260771Y-94499118D02*
X132260771Y-94737213D01*
X132260771Y-94737213D02*
X132308390Y-94832451D01*
X132308390Y-94832451D02*
X132356009Y-94880071D01*
X132356009Y-94880071D02*
X132451247Y-94927690D01*
X132451247Y-94927690D02*
X132689342Y-94927690D01*
X132689342Y-94927690D02*
X132784580Y-94880071D01*
X132784580Y-94880071D02*
X132832199Y-94832451D01*
X131927437Y-94261023D02*
X131689342Y-94927690D01*
X131689342Y-94927690D02*
X131451247Y-94261023D01*
X133941579Y-98412676D02*
X134322531Y-98412676D01*
X134322531Y-98412676D02*
X134360627Y-98793628D01*
X134360627Y-98793628D02*
X134322531Y-98755533D01*
X134322531Y-98755533D02*
X134246341Y-98717438D01*
X134246341Y-98717438D02*
X134055865Y-98717438D01*
X134055865Y-98717438D02*
X133979674Y-98755533D01*
X133979674Y-98755533D02*
X133941579Y-98793628D01*
X133941579Y-98793628D02*
X133903484Y-98869819D01*
X133903484Y-98869819D02*
X133903484Y-99060295D01*
X133903484Y-99060295D02*
X133941579Y-99136485D01*
X133941579Y-99136485D02*
X133979674Y-99174581D01*
X133979674Y-99174581D02*
X134055865Y-99212676D01*
X134055865Y-99212676D02*
X134246341Y-99212676D01*
X134246341Y-99212676D02*
X134322531Y-99174581D01*
X134322531Y-99174581D02*
X134360627Y-99136485D01*
X133636817Y-98679342D02*
X133446341Y-99212676D01*
X133446341Y-99212676D02*
X133255864Y-98679342D01*
X132379674Y-99174581D02*
X132265388Y-99212676D01*
X132265388Y-99212676D02*
X132074912Y-99212676D01*
X132074912Y-99212676D02*
X131998721Y-99174581D01*
X131998721Y-99174581D02*
X131960626Y-99136485D01*
X131960626Y-99136485D02*
X131922531Y-99060295D01*
X131922531Y-99060295D02*
X131922531Y-98984104D01*
X131922531Y-98984104D02*
X131960626Y-98907914D01*
X131960626Y-98907914D02*
X131998721Y-98869819D01*
X131998721Y-98869819D02*
X132074912Y-98831723D01*
X132074912Y-98831723D02*
X132227293Y-98793628D01*
X132227293Y-98793628D02*
X132303483Y-98755533D01*
X132303483Y-98755533D02*
X132341578Y-98717438D01*
X132341578Y-98717438D02*
X132379674Y-98641247D01*
X132379674Y-98641247D02*
X132379674Y-98565057D01*
X132379674Y-98565057D02*
X132341578Y-98488866D01*
X132341578Y-98488866D02*
X132303483Y-98450771D01*
X132303483Y-98450771D02*
X132227293Y-98412676D01*
X132227293Y-98412676D02*
X132036816Y-98412676D01*
X132036816Y-98412676D02*
X131922531Y-98450771D01*
X131122530Y-99136485D02*
X131160626Y-99174581D01*
X131160626Y-99174581D02*
X131274911Y-99212676D01*
X131274911Y-99212676D02*
X131351102Y-99212676D01*
X131351102Y-99212676D02*
X131465388Y-99174581D01*
X131465388Y-99174581D02*
X131541578Y-99098390D01*
X131541578Y-99098390D02*
X131579673Y-99022200D01*
X131579673Y-99022200D02*
X131617769Y-98869819D01*
X131617769Y-98869819D02*
X131617769Y-98755533D01*
X131617769Y-98755533D02*
X131579673Y-98603152D01*
X131579673Y-98603152D02*
X131541578Y-98526961D01*
X131541578Y-98526961D02*
X131465388Y-98450771D01*
X131465388Y-98450771D02*
X131351102Y-98412676D01*
X131351102Y-98412676D02*
X131274911Y-98412676D01*
X131274911Y-98412676D02*
X131160626Y-98450771D01*
X131160626Y-98450771D02*
X131122530Y-98488866D01*
X130398721Y-99212676D02*
X130779673Y-99212676D01*
X130779673Y-99212676D02*
X130779673Y-98412676D01*
X124283538Y-90847666D02*
X123664491Y-90847666D01*
X123664491Y-90847666D02*
X123997824Y-91228618D01*
X123997824Y-91228618D02*
X123854967Y-91228618D01*
X123854967Y-91228618D02*
X123759729Y-91276237D01*
X123759729Y-91276237D02*
X123712110Y-91323856D01*
X123712110Y-91323856D02*
X123664491Y-91419094D01*
X123664491Y-91419094D02*
X123664491Y-91657189D01*
X123664491Y-91657189D02*
X123712110Y-91752427D01*
X123712110Y-91752427D02*
X123759729Y-91800047D01*
X123759729Y-91800047D02*
X123854967Y-91847666D01*
X123854967Y-91847666D02*
X124140681Y-91847666D01*
X124140681Y-91847666D02*
X124235919Y-91800047D01*
X124235919Y-91800047D02*
X124283538Y-91752427D01*
X123331157Y-91180999D02*
X123093062Y-91847666D01*
X123093062Y-91847666D02*
X122854967Y-91180999D01*
X133701025Y-113754612D02*
X134081977Y-113754612D01*
X134081977Y-113754612D02*
X134120073Y-114135564D01*
X134120073Y-114135564D02*
X134081977Y-114097469D01*
X134081977Y-114097469D02*
X134005787Y-114059374D01*
X134005787Y-114059374D02*
X133815311Y-114059374D01*
X133815311Y-114059374D02*
X133739120Y-114097469D01*
X133739120Y-114097469D02*
X133701025Y-114135564D01*
X133701025Y-114135564D02*
X133662930Y-114211755D01*
X133662930Y-114211755D02*
X133662930Y-114402231D01*
X133662930Y-114402231D02*
X133701025Y-114478421D01*
X133701025Y-114478421D02*
X133739120Y-114516517D01*
X133739120Y-114516517D02*
X133815311Y-114554612D01*
X133815311Y-114554612D02*
X134005787Y-114554612D01*
X134005787Y-114554612D02*
X134081977Y-114516517D01*
X134081977Y-114516517D02*
X134120073Y-114478421D01*
X133396263Y-114021278D02*
X133205787Y-114554612D01*
X133205787Y-114554612D02*
X133015310Y-114021278D01*
X132139120Y-114516517D02*
X132024834Y-114554612D01*
X132024834Y-114554612D02*
X131834358Y-114554612D01*
X131834358Y-114554612D02*
X131758167Y-114516517D01*
X131758167Y-114516517D02*
X131720072Y-114478421D01*
X131720072Y-114478421D02*
X131681977Y-114402231D01*
X131681977Y-114402231D02*
X131681977Y-114326040D01*
X131681977Y-114326040D02*
X131720072Y-114249850D01*
X131720072Y-114249850D02*
X131758167Y-114211755D01*
X131758167Y-114211755D02*
X131834358Y-114173659D01*
X131834358Y-114173659D02*
X131986739Y-114135564D01*
X131986739Y-114135564D02*
X132062929Y-114097469D01*
X132062929Y-114097469D02*
X132101024Y-114059374D01*
X132101024Y-114059374D02*
X132139120Y-113983183D01*
X132139120Y-113983183D02*
X132139120Y-113906993D01*
X132139120Y-113906993D02*
X132101024Y-113830802D01*
X132101024Y-113830802D02*
X132062929Y-113792707D01*
X132062929Y-113792707D02*
X131986739Y-113754612D01*
X131986739Y-113754612D02*
X131796262Y-113754612D01*
X131796262Y-113754612D02*
X131681977Y-113792707D01*
X130881976Y-114478421D02*
X130920072Y-114516517D01*
X130920072Y-114516517D02*
X131034357Y-114554612D01*
X131034357Y-114554612D02*
X131110548Y-114554612D01*
X131110548Y-114554612D02*
X131224834Y-114516517D01*
X131224834Y-114516517D02*
X131301024Y-114440326D01*
X131301024Y-114440326D02*
X131339119Y-114364136D01*
X131339119Y-114364136D02*
X131377215Y-114211755D01*
X131377215Y-114211755D02*
X131377215Y-114097469D01*
X131377215Y-114097469D02*
X131339119Y-113945088D01*
X131339119Y-113945088D02*
X131301024Y-113868897D01*
X131301024Y-113868897D02*
X131224834Y-113792707D01*
X131224834Y-113792707D02*
X131110548Y-113754612D01*
X131110548Y-113754612D02*
X131034357Y-113754612D01*
X131034357Y-113754612D02*
X130920072Y-113792707D01*
X130920072Y-113792707D02*
X130881976Y-113830802D01*
X130158167Y-114554612D02*
X130539119Y-114554612D01*
X130539119Y-114554612D02*
X130539119Y-113754612D01*
X133449209Y-116398677D02*
X133830161Y-116398677D01*
X133830161Y-116398677D02*
X133868257Y-116779629D01*
X133868257Y-116779629D02*
X133830161Y-116741534D01*
X133830161Y-116741534D02*
X133753971Y-116703439D01*
X133753971Y-116703439D02*
X133563495Y-116703439D01*
X133563495Y-116703439D02*
X133487304Y-116741534D01*
X133487304Y-116741534D02*
X133449209Y-116779629D01*
X133449209Y-116779629D02*
X133411114Y-116855820D01*
X133411114Y-116855820D02*
X133411114Y-117046296D01*
X133411114Y-117046296D02*
X133449209Y-117122486D01*
X133449209Y-117122486D02*
X133487304Y-117160582D01*
X133487304Y-117160582D02*
X133563495Y-117198677D01*
X133563495Y-117198677D02*
X133753971Y-117198677D01*
X133753971Y-117198677D02*
X133830161Y-117160582D01*
X133830161Y-117160582D02*
X133868257Y-117122486D01*
X133144447Y-116665343D02*
X132953971Y-117198677D01*
X132953971Y-117198677D02*
X132763494Y-116665343D01*
X131887304Y-117160582D02*
X131773018Y-117198677D01*
X131773018Y-117198677D02*
X131582542Y-117198677D01*
X131582542Y-117198677D02*
X131506351Y-117160582D01*
X131506351Y-117160582D02*
X131468256Y-117122486D01*
X131468256Y-117122486D02*
X131430161Y-117046296D01*
X131430161Y-117046296D02*
X131430161Y-116970105D01*
X131430161Y-116970105D02*
X131468256Y-116893915D01*
X131468256Y-116893915D02*
X131506351Y-116855820D01*
X131506351Y-116855820D02*
X131582542Y-116817724D01*
X131582542Y-116817724D02*
X131734923Y-116779629D01*
X131734923Y-116779629D02*
X131811113Y-116741534D01*
X131811113Y-116741534D02*
X131849208Y-116703439D01*
X131849208Y-116703439D02*
X131887304Y-116627248D01*
X131887304Y-116627248D02*
X131887304Y-116551058D01*
X131887304Y-116551058D02*
X131849208Y-116474867D01*
X131849208Y-116474867D02*
X131811113Y-116436772D01*
X131811113Y-116436772D02*
X131734923Y-116398677D01*
X131734923Y-116398677D02*
X131544446Y-116398677D01*
X131544446Y-116398677D02*
X131430161Y-116436772D01*
X131087303Y-117198677D02*
X131087303Y-116398677D01*
X131087303Y-116398677D02*
X130896827Y-116398677D01*
X130896827Y-116398677D02*
X130782541Y-116436772D01*
X130782541Y-116436772D02*
X130706351Y-116512962D01*
X130706351Y-116512962D02*
X130668256Y-116589153D01*
X130668256Y-116589153D02*
X130630160Y-116741534D01*
X130630160Y-116741534D02*
X130630160Y-116855820D01*
X130630160Y-116855820D02*
X130668256Y-117008201D01*
X130668256Y-117008201D02*
X130706351Y-117084391D01*
X130706351Y-117084391D02*
X130782541Y-117160582D01*
X130782541Y-117160582D02*
X130896827Y-117198677D01*
X130896827Y-117198677D02*
X131087303Y-117198677D01*
X130325399Y-116970105D02*
X129944446Y-116970105D01*
X130401589Y-117198677D02*
X130134922Y-116398677D01*
X130134922Y-116398677D02*
X129868256Y-117198677D01*
X133045520Y-118600185D02*
X133521710Y-118600185D01*
X133521710Y-118600185D02*
X133569329Y-119076375D01*
X133569329Y-119076375D02*
X133521710Y-119028756D01*
X133521710Y-119028756D02*
X133426472Y-118981137D01*
X133426472Y-118981137D02*
X133188377Y-118981137D01*
X133188377Y-118981137D02*
X133093139Y-119028756D01*
X133093139Y-119028756D02*
X133045520Y-119076375D01*
X133045520Y-119076375D02*
X132997901Y-119171613D01*
X132997901Y-119171613D02*
X132997901Y-119409708D01*
X132997901Y-119409708D02*
X133045520Y-119504946D01*
X133045520Y-119504946D02*
X133093139Y-119552566D01*
X133093139Y-119552566D02*
X133188377Y-119600185D01*
X133188377Y-119600185D02*
X133426472Y-119600185D01*
X133426472Y-119600185D02*
X133521710Y-119552566D01*
X133521710Y-119552566D02*
X133569329Y-119504946D01*
X132664567Y-118933518D02*
X132426472Y-119600185D01*
X132426472Y-119600185D02*
X132188377Y-118933518D01*
X87921254Y-90895186D02*
X88397444Y-90895186D01*
X88397444Y-90895186D02*
X88445063Y-91371376D01*
X88445063Y-91371376D02*
X88397444Y-91323757D01*
X88397444Y-91323757D02*
X88302206Y-91276138D01*
X88302206Y-91276138D02*
X88064111Y-91276138D01*
X88064111Y-91276138D02*
X87968873Y-91323757D01*
X87968873Y-91323757D02*
X87921254Y-91371376D01*
X87921254Y-91371376D02*
X87873635Y-91466614D01*
X87873635Y-91466614D02*
X87873635Y-91704709D01*
X87873635Y-91704709D02*
X87921254Y-91799947D01*
X87921254Y-91799947D02*
X87968873Y-91847567D01*
X87968873Y-91847567D02*
X88064111Y-91895186D01*
X88064111Y-91895186D02*
X88302206Y-91895186D01*
X88302206Y-91895186D02*
X88397444Y-91847567D01*
X88397444Y-91847567D02*
X88445063Y-91799947D01*
X87540301Y-91228519D02*
X87302206Y-91895186D01*
X87302206Y-91895186D02*
X87064111Y-91228519D01*
X133258868Y-103608134D02*
X133735058Y-103608134D01*
X133735058Y-103608134D02*
X133782677Y-104084324D01*
X133782677Y-104084324D02*
X133735058Y-104036705D01*
X133735058Y-104036705D02*
X133639820Y-103989086D01*
X133639820Y-103989086D02*
X133401725Y-103989086D01*
X133401725Y-103989086D02*
X133306487Y-104036705D01*
X133306487Y-104036705D02*
X133258868Y-104084324D01*
X133258868Y-104084324D02*
X133211249Y-104179562D01*
X133211249Y-104179562D02*
X133211249Y-104417657D01*
X133211249Y-104417657D02*
X133258868Y-104512895D01*
X133258868Y-104512895D02*
X133306487Y-104560515D01*
X133306487Y-104560515D02*
X133401725Y-104608134D01*
X133401725Y-104608134D02*
X133639820Y-104608134D01*
X133639820Y-104608134D02*
X133735058Y-104560515D01*
X133735058Y-104560515D02*
X133782677Y-104512895D01*
X132877915Y-103941467D02*
X132639820Y-104608134D01*
X132639820Y-104608134D02*
X132401725Y-103941467D01*
X80888701Y-111202402D02*
X80269654Y-111202402D01*
X80269654Y-111202402D02*
X80602987Y-111583354D01*
X80602987Y-111583354D02*
X80460130Y-111583354D01*
X80460130Y-111583354D02*
X80364892Y-111630973D01*
X80364892Y-111630973D02*
X80317273Y-111678592D01*
X80317273Y-111678592D02*
X80269654Y-111773830D01*
X80269654Y-111773830D02*
X80269654Y-112011925D01*
X80269654Y-112011925D02*
X80317273Y-112107163D01*
X80317273Y-112107163D02*
X80364892Y-112154783D01*
X80364892Y-112154783D02*
X80460130Y-112202402D01*
X80460130Y-112202402D02*
X80745844Y-112202402D01*
X80745844Y-112202402D02*
X80841082Y-112154783D01*
X80841082Y-112154783D02*
X80888701Y-112107163D01*
X79936320Y-111535735D02*
X79698225Y-112202402D01*
X79698225Y-112202402D02*
X79460130Y-111535735D01*
X133578953Y-101111498D02*
X133959905Y-101111498D01*
X133959905Y-101111498D02*
X133998001Y-101492450D01*
X133998001Y-101492450D02*
X133959905Y-101454355D01*
X133959905Y-101454355D02*
X133883715Y-101416260D01*
X133883715Y-101416260D02*
X133693239Y-101416260D01*
X133693239Y-101416260D02*
X133617048Y-101454355D01*
X133617048Y-101454355D02*
X133578953Y-101492450D01*
X133578953Y-101492450D02*
X133540858Y-101568641D01*
X133540858Y-101568641D02*
X133540858Y-101759117D01*
X133540858Y-101759117D02*
X133578953Y-101835307D01*
X133578953Y-101835307D02*
X133617048Y-101873403D01*
X133617048Y-101873403D02*
X133693239Y-101911498D01*
X133693239Y-101911498D02*
X133883715Y-101911498D01*
X133883715Y-101911498D02*
X133959905Y-101873403D01*
X133959905Y-101873403D02*
X133998001Y-101835307D01*
X133274191Y-101378164D02*
X133083715Y-101911498D01*
X133083715Y-101911498D02*
X132893238Y-101378164D01*
X132017048Y-101873403D02*
X131902762Y-101911498D01*
X131902762Y-101911498D02*
X131712286Y-101911498D01*
X131712286Y-101911498D02*
X131636095Y-101873403D01*
X131636095Y-101873403D02*
X131598000Y-101835307D01*
X131598000Y-101835307D02*
X131559905Y-101759117D01*
X131559905Y-101759117D02*
X131559905Y-101682926D01*
X131559905Y-101682926D02*
X131598000Y-101606736D01*
X131598000Y-101606736D02*
X131636095Y-101568641D01*
X131636095Y-101568641D02*
X131712286Y-101530545D01*
X131712286Y-101530545D02*
X131864667Y-101492450D01*
X131864667Y-101492450D02*
X131940857Y-101454355D01*
X131940857Y-101454355D02*
X131978952Y-101416260D01*
X131978952Y-101416260D02*
X132017048Y-101340069D01*
X132017048Y-101340069D02*
X132017048Y-101263879D01*
X132017048Y-101263879D02*
X131978952Y-101187688D01*
X131978952Y-101187688D02*
X131940857Y-101149593D01*
X131940857Y-101149593D02*
X131864667Y-101111498D01*
X131864667Y-101111498D02*
X131674190Y-101111498D01*
X131674190Y-101111498D02*
X131559905Y-101149593D01*
X131217047Y-101911498D02*
X131217047Y-101111498D01*
X131217047Y-101111498D02*
X131026571Y-101111498D01*
X131026571Y-101111498D02*
X130912285Y-101149593D01*
X130912285Y-101149593D02*
X130836095Y-101225783D01*
X130836095Y-101225783D02*
X130798000Y-101301974D01*
X130798000Y-101301974D02*
X130759904Y-101454355D01*
X130759904Y-101454355D02*
X130759904Y-101568641D01*
X130759904Y-101568641D02*
X130798000Y-101721022D01*
X130798000Y-101721022D02*
X130836095Y-101797212D01*
X130836095Y-101797212D02*
X130912285Y-101873403D01*
X130912285Y-101873403D02*
X131026571Y-101911498D01*
X131026571Y-101911498D02*
X131217047Y-101911498D01*
X130455143Y-101682926D02*
X130074190Y-101682926D01*
X130531333Y-101911498D02*
X130264666Y-101111498D01*
X130264666Y-101111498D02*
X129998000Y-101911498D01*
X105044255Y-90685367D02*
X105520445Y-90685367D01*
X105520445Y-90685367D02*
X105568064Y-91161557D01*
X105568064Y-91161557D02*
X105520445Y-91113938D01*
X105520445Y-91113938D02*
X105425207Y-91066319D01*
X105425207Y-91066319D02*
X105187112Y-91066319D01*
X105187112Y-91066319D02*
X105091874Y-91113938D01*
X105091874Y-91113938D02*
X105044255Y-91161557D01*
X105044255Y-91161557D02*
X104996636Y-91256795D01*
X104996636Y-91256795D02*
X104996636Y-91494890D01*
X104996636Y-91494890D02*
X105044255Y-91590128D01*
X105044255Y-91590128D02*
X105091874Y-91637748D01*
X105091874Y-91637748D02*
X105187112Y-91685367D01*
X105187112Y-91685367D02*
X105425207Y-91685367D01*
X105425207Y-91685367D02*
X105520445Y-91637748D01*
X105520445Y-91637748D02*
X105568064Y-91590128D01*
X104663302Y-91018700D02*
X104425207Y-91685367D01*
X104425207Y-91685367D02*
X104187112Y-91018700D01*
%TO.C,I2CA2*%
X137770951Y-112207819D02*
X137770951Y-111207819D01*
X137342380Y-111303057D02*
X137294761Y-111255438D01*
X137294761Y-111255438D02*
X137199523Y-111207819D01*
X137199523Y-111207819D02*
X136961428Y-111207819D01*
X136961428Y-111207819D02*
X136866190Y-111255438D01*
X136866190Y-111255438D02*
X136818571Y-111303057D01*
X136818571Y-111303057D02*
X136770952Y-111398295D01*
X136770952Y-111398295D02*
X136770952Y-111493533D01*
X136770952Y-111493533D02*
X136818571Y-111636390D01*
X136818571Y-111636390D02*
X137389999Y-112207819D01*
X137389999Y-112207819D02*
X136770952Y-112207819D01*
X135770952Y-112112580D02*
X135818571Y-112160200D01*
X135818571Y-112160200D02*
X135961428Y-112207819D01*
X135961428Y-112207819D02*
X136056666Y-112207819D01*
X136056666Y-112207819D02*
X136199523Y-112160200D01*
X136199523Y-112160200D02*
X136294761Y-112064961D01*
X136294761Y-112064961D02*
X136342380Y-111969723D01*
X136342380Y-111969723D02*
X136389999Y-111779247D01*
X136389999Y-111779247D02*
X136389999Y-111636390D01*
X136389999Y-111636390D02*
X136342380Y-111445914D01*
X136342380Y-111445914D02*
X136294761Y-111350676D01*
X136294761Y-111350676D02*
X136199523Y-111255438D01*
X136199523Y-111255438D02*
X136056666Y-111207819D01*
X136056666Y-111207819D02*
X135961428Y-111207819D01*
X135961428Y-111207819D02*
X135818571Y-111255438D01*
X135818571Y-111255438D02*
X135770952Y-111303057D01*
X135389999Y-111922104D02*
X134913809Y-111922104D01*
X135485237Y-112207819D02*
X135151904Y-111207819D01*
X135151904Y-111207819D02*
X134818571Y-112207819D01*
X134532856Y-111303057D02*
X134485237Y-111255438D01*
X134485237Y-111255438D02*
X134389999Y-111207819D01*
X134389999Y-111207819D02*
X134151904Y-111207819D01*
X134151904Y-111207819D02*
X134056666Y-111255438D01*
X134056666Y-111255438D02*
X134009047Y-111303057D01*
X134009047Y-111303057D02*
X133961428Y-111398295D01*
X133961428Y-111398295D02*
X133961428Y-111493533D01*
X133961428Y-111493533D02*
X134009047Y-111636390D01*
X134009047Y-111636390D02*
X134580475Y-112207819D01*
X134580475Y-112207819D02*
X133961428Y-112207819D01*
%TO.C,J3*%
X82894819Y-162446666D02*
X83609104Y-162446666D01*
X83609104Y-162446666D02*
X83751961Y-162399047D01*
X83751961Y-162399047D02*
X83847200Y-162303809D01*
X83847200Y-162303809D02*
X83894819Y-162160952D01*
X83894819Y-162160952D02*
X83894819Y-162065714D01*
X82894819Y-162827619D02*
X82894819Y-163446666D01*
X82894819Y-163446666D02*
X83275771Y-163113333D01*
X83275771Y-163113333D02*
X83275771Y-163256190D01*
X83275771Y-163256190D02*
X83323390Y-163351428D01*
X83323390Y-163351428D02*
X83371009Y-163399047D01*
X83371009Y-163399047D02*
X83466247Y-163446666D01*
X83466247Y-163446666D02*
X83704342Y-163446666D01*
X83704342Y-163446666D02*
X83799580Y-163399047D01*
X83799580Y-163399047D02*
X83847200Y-163351428D01*
X83847200Y-163351428D02*
X83894819Y-163256190D01*
X83894819Y-163256190D02*
X83894819Y-162970476D01*
X83894819Y-162970476D02*
X83847200Y-162875238D01*
X83847200Y-162875238D02*
X83799580Y-162827619D01*
%TO.C,J10*%
X119024819Y-161970476D02*
X119739104Y-161970476D01*
X119739104Y-161970476D02*
X119881961Y-161922857D01*
X119881961Y-161922857D02*
X119977200Y-161827619D01*
X119977200Y-161827619D02*
X120024819Y-161684762D01*
X120024819Y-161684762D02*
X120024819Y-161589524D01*
X120024819Y-162970476D02*
X120024819Y-162399048D01*
X120024819Y-162684762D02*
X119024819Y-162684762D01*
X119024819Y-162684762D02*
X119167676Y-162589524D01*
X119167676Y-162589524D02*
X119262914Y-162494286D01*
X119262914Y-162494286D02*
X119310533Y-162399048D01*
X119024819Y-163589524D02*
X119024819Y-163684762D01*
X119024819Y-163684762D02*
X119072438Y-163780000D01*
X119072438Y-163780000D02*
X119120057Y-163827619D01*
X119120057Y-163827619D02*
X119215295Y-163875238D01*
X119215295Y-163875238D02*
X119405771Y-163922857D01*
X119405771Y-163922857D02*
X119643866Y-163922857D01*
X119643866Y-163922857D02*
X119834342Y-163875238D01*
X119834342Y-163875238D02*
X119929580Y-163827619D01*
X119929580Y-163827619D02*
X119977200Y-163780000D01*
X119977200Y-163780000D02*
X120024819Y-163684762D01*
X120024819Y-163684762D02*
X120024819Y-163589524D01*
X120024819Y-163589524D02*
X119977200Y-163494286D01*
X119977200Y-163494286D02*
X119929580Y-163446667D01*
X119929580Y-163446667D02*
X119834342Y-163399048D01*
X119834342Y-163399048D02*
X119643866Y-163351429D01*
X119643866Y-163351429D02*
X119405771Y-163351429D01*
X119405771Y-163351429D02*
X119215295Y-163399048D01*
X119215295Y-163399048D02*
X119120057Y-163446667D01*
X119120057Y-163446667D02*
X119072438Y-163494286D01*
X119072438Y-163494286D02*
X119024819Y-163589524D01*
%TO.C,J6*%
X82894819Y-185306666D02*
X83609104Y-185306666D01*
X83609104Y-185306666D02*
X83751961Y-185259047D01*
X83751961Y-185259047D02*
X83847200Y-185163809D01*
X83847200Y-185163809D02*
X83894819Y-185020952D01*
X83894819Y-185020952D02*
X83894819Y-184925714D01*
X82894819Y-186211428D02*
X82894819Y-186020952D01*
X82894819Y-186020952D02*
X82942438Y-185925714D01*
X82942438Y-185925714D02*
X82990057Y-185878095D01*
X82990057Y-185878095D02*
X83132914Y-185782857D01*
X83132914Y-185782857D02*
X83323390Y-185735238D01*
X83323390Y-185735238D02*
X83704342Y-185735238D01*
X83704342Y-185735238D02*
X83799580Y-185782857D01*
X83799580Y-185782857D02*
X83847200Y-185830476D01*
X83847200Y-185830476D02*
X83894819Y-185925714D01*
X83894819Y-185925714D02*
X83894819Y-186116190D01*
X83894819Y-186116190D02*
X83847200Y-186211428D01*
X83847200Y-186211428D02*
X83799580Y-186259047D01*
X83799580Y-186259047D02*
X83704342Y-186306666D01*
X83704342Y-186306666D02*
X83466247Y-186306666D01*
X83466247Y-186306666D02*
X83371009Y-186259047D01*
X83371009Y-186259047D02*
X83323390Y-186211428D01*
X83323390Y-186211428D02*
X83275771Y-186116190D01*
X83275771Y-186116190D02*
X83275771Y-185925714D01*
X83275771Y-185925714D02*
X83323390Y-185830476D01*
X83323390Y-185830476D02*
X83371009Y-185782857D01*
X83371009Y-185782857D02*
X83466247Y-185735238D01*
%TO.C,J1*%
X115774819Y-185306666D02*
X116489104Y-185306666D01*
X116489104Y-185306666D02*
X116631961Y-185259047D01*
X116631961Y-185259047D02*
X116727200Y-185163809D01*
X116727200Y-185163809D02*
X116774819Y-185020952D01*
X116774819Y-185020952D02*
X116774819Y-184925714D01*
X116774819Y-186306666D02*
X116774819Y-185735238D01*
X116774819Y-186020952D02*
X115774819Y-186020952D01*
X115774819Y-186020952D02*
X115917676Y-185925714D01*
X115917676Y-185925714D02*
X116012914Y-185830476D01*
X116012914Y-185830476D02*
X116060533Y-185735238D01*
%TO.C,J2*%
X98674819Y-162446666D02*
X99389104Y-162446666D01*
X99389104Y-162446666D02*
X99531961Y-162399047D01*
X99531961Y-162399047D02*
X99627200Y-162303809D01*
X99627200Y-162303809D02*
X99674819Y-162160952D01*
X99674819Y-162160952D02*
X99674819Y-162065714D01*
X98770057Y-162875238D02*
X98722438Y-162922857D01*
X98722438Y-162922857D02*
X98674819Y-163018095D01*
X98674819Y-163018095D02*
X98674819Y-163256190D01*
X98674819Y-163256190D02*
X98722438Y-163351428D01*
X98722438Y-163351428D02*
X98770057Y-163399047D01*
X98770057Y-163399047D02*
X98865295Y-163446666D01*
X98865295Y-163446666D02*
X98960533Y-163446666D01*
X98960533Y-163446666D02*
X99103390Y-163399047D01*
X99103390Y-163399047D02*
X99674819Y-162827619D01*
X99674819Y-162827619D02*
X99674819Y-163446666D01*
%TO.C,I2CA1*%
X137770951Y-96977819D02*
X137770951Y-95977819D01*
X137342380Y-96073057D02*
X137294761Y-96025438D01*
X137294761Y-96025438D02*
X137199523Y-95977819D01*
X137199523Y-95977819D02*
X136961428Y-95977819D01*
X136961428Y-95977819D02*
X136866190Y-96025438D01*
X136866190Y-96025438D02*
X136818571Y-96073057D01*
X136818571Y-96073057D02*
X136770952Y-96168295D01*
X136770952Y-96168295D02*
X136770952Y-96263533D01*
X136770952Y-96263533D02*
X136818571Y-96406390D01*
X136818571Y-96406390D02*
X137389999Y-96977819D01*
X137389999Y-96977819D02*
X136770952Y-96977819D01*
X135770952Y-96882580D02*
X135818571Y-96930200D01*
X135818571Y-96930200D02*
X135961428Y-96977819D01*
X135961428Y-96977819D02*
X136056666Y-96977819D01*
X136056666Y-96977819D02*
X136199523Y-96930200D01*
X136199523Y-96930200D02*
X136294761Y-96834961D01*
X136294761Y-96834961D02*
X136342380Y-96739723D01*
X136342380Y-96739723D02*
X136389999Y-96549247D01*
X136389999Y-96549247D02*
X136389999Y-96406390D01*
X136389999Y-96406390D02*
X136342380Y-96215914D01*
X136342380Y-96215914D02*
X136294761Y-96120676D01*
X136294761Y-96120676D02*
X136199523Y-96025438D01*
X136199523Y-96025438D02*
X136056666Y-95977819D01*
X136056666Y-95977819D02*
X135961428Y-95977819D01*
X135961428Y-95977819D02*
X135818571Y-96025438D01*
X135818571Y-96025438D02*
X135770952Y-96073057D01*
X135389999Y-96692104D02*
X134913809Y-96692104D01*
X135485237Y-96977819D02*
X135151904Y-95977819D01*
X135151904Y-95977819D02*
X134818571Y-96977819D01*
X133961428Y-96977819D02*
X134532856Y-96977819D01*
X134247142Y-96977819D02*
X134247142Y-95977819D01*
X134247142Y-95977819D02*
X134342380Y-96120676D01*
X134342380Y-96120676D02*
X134437618Y-96215914D01*
X134437618Y-96215914D02*
X134532856Y-96263533D01*
%TO.C,J12*%
X134964819Y-161970476D02*
X135679104Y-161970476D01*
X135679104Y-161970476D02*
X135821961Y-161922857D01*
X135821961Y-161922857D02*
X135917200Y-161827619D01*
X135917200Y-161827619D02*
X135964819Y-161684762D01*
X135964819Y-161684762D02*
X135964819Y-161589524D01*
X135964819Y-162970476D02*
X135964819Y-162399048D01*
X135964819Y-162684762D02*
X134964819Y-162684762D01*
X134964819Y-162684762D02*
X135107676Y-162589524D01*
X135107676Y-162589524D02*
X135202914Y-162494286D01*
X135202914Y-162494286D02*
X135250533Y-162399048D01*
X135060057Y-163351429D02*
X135012438Y-163399048D01*
X135012438Y-163399048D02*
X134964819Y-163494286D01*
X134964819Y-163494286D02*
X134964819Y-163732381D01*
X134964819Y-163732381D02*
X135012438Y-163827619D01*
X135012438Y-163827619D02*
X135060057Y-163875238D01*
X135060057Y-163875238D02*
X135155295Y-163922857D01*
X135155295Y-163922857D02*
X135250533Y-163922857D01*
X135250533Y-163922857D02*
X135393390Y-163875238D01*
X135393390Y-163875238D02*
X135964819Y-163303810D01*
X135964819Y-163303810D02*
X135964819Y-163922857D01*
%TO.C,J7*%
X99404819Y-185306666D02*
X100119104Y-185306666D01*
X100119104Y-185306666D02*
X100261961Y-185259047D01*
X100261961Y-185259047D02*
X100357200Y-185163809D01*
X100357200Y-185163809D02*
X100404819Y-185020952D01*
X100404819Y-185020952D02*
X100404819Y-184925714D01*
X99404819Y-185687619D02*
X99404819Y-186354285D01*
X99404819Y-186354285D02*
X100404819Y-185925714D01*
%TO.C,J5*%
X131154819Y-185306666D02*
X131869104Y-185306666D01*
X131869104Y-185306666D02*
X132011961Y-185259047D01*
X132011961Y-185259047D02*
X132107200Y-185163809D01*
X132107200Y-185163809D02*
X132154819Y-185020952D01*
X132154819Y-185020952D02*
X132154819Y-184925714D01*
X131154819Y-186259047D02*
X131154819Y-185782857D01*
X131154819Y-185782857D02*
X131631009Y-185735238D01*
X131631009Y-185735238D02*
X131583390Y-185782857D01*
X131583390Y-185782857D02*
X131535771Y-185878095D01*
X131535771Y-185878095D02*
X131535771Y-186116190D01*
X131535771Y-186116190D02*
X131583390Y-186211428D01*
X131583390Y-186211428D02*
X131631009Y-186259047D01*
X131631009Y-186259047D02*
X131726247Y-186306666D01*
X131726247Y-186306666D02*
X131964342Y-186306666D01*
X131964342Y-186306666D02*
X132059580Y-186259047D01*
X132059580Y-186259047D02*
X132107200Y-186211428D01*
X132107200Y-186211428D02*
X132154819Y-186116190D01*
X132154819Y-186116190D02*
X132154819Y-185878095D01*
X132154819Y-185878095D02*
X132107200Y-185782857D01*
X132107200Y-185782857D02*
X132059580Y-185735238D01*
D11*
%TO.C,I2CA2*%
X137220000Y-123033000D02*
X134560000Y-123033000D01*
X137220000Y-115353000D02*
X137220000Y-123033000D01*
X137220000Y-115353000D02*
X134560000Y-115353000D01*
X137220000Y-114083000D02*
X137220000Y-112753000D01*
X137220000Y-112753000D02*
X135890000Y-112753000D01*
X134560000Y-115353000D02*
X134560000Y-123033000D01*
%TO.C,J3*%
X82540000Y-163250000D02*
X72040000Y-163250000D01*
X85690000Y-159980000D02*
X84890000Y-159980000D01*
X85690000Y-159980000D02*
X85690000Y-159120000D01*
X72040000Y-159550000D02*
X72040000Y-163250000D01*
X82540000Y-159470000D02*
X82540000Y-163250000D01*
X72040000Y-154250000D02*
X72040000Y-157950000D01*
X82540000Y-154250000D02*
X82540000Y-158030000D01*
X82540000Y-154250000D02*
X72040000Y-154250000D01*
X79840000Y-158750000D02*
G75*
G03*
X79840000Y-158750000I-1800000J0D01*
G01*
%TO.C,J10*%
X118670000Y-163250000D02*
X108170000Y-163250000D01*
X121820000Y-159980000D02*
X121020000Y-159980000D01*
X121820000Y-159980000D02*
X121820000Y-159120000D01*
X108170000Y-159550000D02*
X108170000Y-163250000D01*
X118670000Y-159470000D02*
X118670000Y-163250000D01*
X108170000Y-154250000D02*
X108170000Y-157950000D01*
X118670000Y-154250000D02*
X118670000Y-158030000D01*
X118670000Y-154250000D02*
X108170000Y-154250000D01*
X115970000Y-158750000D02*
G75*
G03*
X115970000Y-158750000I-1800000J0D01*
G01*
%TO.C,J6*%
X82540000Y-186110000D02*
X72040000Y-186110000D01*
X85690000Y-182840000D02*
X84890000Y-182840000D01*
X85690000Y-182840000D02*
X85690000Y-181980000D01*
X72040000Y-182410000D02*
X72040000Y-186110000D01*
X82540000Y-182330000D02*
X82540000Y-186110000D01*
X72040000Y-177110000D02*
X72040000Y-180810000D01*
X82540000Y-177110000D02*
X82540000Y-180890000D01*
X82540000Y-177110000D02*
X72040000Y-177110000D01*
X79840000Y-181610000D02*
G75*
G03*
X79840000Y-181610000I-1800000J0D01*
G01*
%TO.C,J1*%
X115420000Y-186110000D02*
X104920000Y-186110000D01*
X118570000Y-182840000D02*
X117770000Y-182840000D01*
X118570000Y-182840000D02*
X118570000Y-181980000D01*
X104920000Y-182410000D02*
X104920000Y-186110000D01*
X115420000Y-182330000D02*
X115420000Y-186110000D01*
X104920000Y-177110000D02*
X104920000Y-180810000D01*
X115420000Y-177110000D02*
X115420000Y-180890000D01*
X115420000Y-177110000D02*
X104920000Y-177110000D01*
X112720000Y-181610000D02*
G75*
G03*
X112720000Y-181610000I-1800000J0D01*
G01*
%TO.C,J2*%
X98320000Y-163250000D02*
X87820000Y-163250000D01*
X101470000Y-159980000D02*
X100670000Y-159980000D01*
X101470000Y-159980000D02*
X101470000Y-159120000D01*
X87820000Y-159550000D02*
X87820000Y-163250000D01*
X98320000Y-159470000D02*
X98320000Y-163250000D01*
X87820000Y-154250000D02*
X87820000Y-157950000D01*
X98320000Y-154250000D02*
X98320000Y-158030000D01*
X98320000Y-154250000D02*
X87820000Y-154250000D01*
X95620000Y-158750000D02*
G75*
G03*
X95620000Y-158750000I-1800000J0D01*
G01*
%TO.C,I2CA1*%
X137220000Y-107803000D02*
X134560000Y-107803000D01*
X137220000Y-100123000D02*
X137220000Y-107803000D01*
X137220000Y-100123000D02*
X134560000Y-100123000D01*
X137220000Y-98853000D02*
X137220000Y-97523000D01*
X137220000Y-97523000D02*
X135890000Y-97523000D01*
X134560000Y-100123000D02*
X134560000Y-107803000D01*
%TO.C,J12*%
X134610000Y-163250000D02*
X124110000Y-163250000D01*
X137760000Y-159980000D02*
X136960000Y-159980000D01*
X137760000Y-159980000D02*
X137760000Y-159120000D01*
X124110000Y-159550000D02*
X124110000Y-163250000D01*
X134610000Y-159470000D02*
X134610000Y-163250000D01*
X124110000Y-154250000D02*
X124110000Y-157950000D01*
X134610000Y-154250000D02*
X134610000Y-158030000D01*
X134610000Y-154250000D02*
X124110000Y-154250000D01*
X131910000Y-158750000D02*
G75*
G03*
X131910000Y-158750000I-1800000J0D01*
G01*
%TO.C,J7*%
X99050000Y-186110000D02*
X88550000Y-186110000D01*
X102200000Y-182840000D02*
X101400000Y-182840000D01*
X102200000Y-182840000D02*
X102200000Y-181980000D01*
X88550000Y-182410000D02*
X88550000Y-186110000D01*
X99050000Y-182330000D02*
X99050000Y-186110000D01*
X88550000Y-177110000D02*
X88550000Y-180810000D01*
X99050000Y-177110000D02*
X99050000Y-180890000D01*
X99050000Y-177110000D02*
X88550000Y-177110000D01*
X96350000Y-181610000D02*
G75*
G03*
X96350000Y-181610000I-1800000J0D01*
G01*
%TO.C,J5*%
X130800000Y-186110000D02*
X120300000Y-186110000D01*
X133950000Y-182840000D02*
X133150000Y-182840000D01*
X133950000Y-182840000D02*
X133950000Y-181980000D01*
X120300000Y-182410000D02*
X120300000Y-186110000D01*
X130800000Y-182330000D02*
X130800000Y-186110000D01*
X120300000Y-177110000D02*
X120300000Y-180810000D01*
X130800000Y-177110000D02*
X130800000Y-180890000D01*
X130800000Y-177110000D02*
X120300000Y-177110000D01*
X128100000Y-181610000D02*
G75*
G03*
X128100000Y-181610000I-1800000J0D01*
G01*
%TD*%
M02*
