%TF.GenerationSoftware,KiCad,Pcbnew,7.0.5-0*%
%TF.CreationDate,2024-01-09T14:25:18-05:00*%
%TF.ProjectId,ESP-32_USB_sequencer,4553502d-3332-45f5-9553-425f73657175,rev?*%
%TF.SameCoordinates,Original*%
%TF.FileFunction,Soldermask,Top*%
%TF.FilePolarity,Negative*%
%FSLAX46Y46*%
G04 Gerber Fmt 4.6, Leading zero omitted, Abs format (unit mm)*
G04 Created by KiCad (PCBNEW 7.0.5-0) date 2024-01-09 14:25:18*
%MOMM*%
%LPD*%
G01*
G04 APERTURE LIST*
G04 Aperture macros list*
%AMRoundRect*
0 Rectangle with rounded corners*
0 $1 Rounding radius*
0 $2 $3 $4 $5 $6 $7 $8 $9 X,Y pos of 4 corners*
0 Add a 4 corners polygon primitive as box body*
4,1,4,$2,$3,$4,$5,$6,$7,$8,$9,$2,$3,0*
0 Add four circle primitives for the rounded corners*
1,1,$1+$1,$2,$3*
1,1,$1+$1,$4,$5*
1,1,$1+$1,$6,$7*
1,1,$1+$1,$8,$9*
0 Add four rect primitives between the rounded corners*
20,1,$1+$1,$2,$3,$4,$5,0*
20,1,$1+$1,$4,$5,$6,$7,0*
20,1,$1+$1,$6,$7,$8,$9,0*
20,1,$1+$1,$8,$9,$2,$3,0*%
G04 Aperture macros list end*
%ADD10C,1.600000*%
%ADD11O,1.600000X1.600000*%
%ADD12RoundRect,0.250000X0.350000X0.450000X-0.350000X0.450000X-0.350000X-0.450000X0.350000X-0.450000X0*%
%ADD13RoundRect,0.250000X-0.350000X-0.450000X0.350000X-0.450000X0.350000X0.450000X-0.350000X0.450000X0*%
%ADD14RoundRect,0.225000X0.225000X0.375000X-0.225000X0.375000X-0.225000X-0.375000X0.225000X-0.375000X0*%
%ADD15R,1.400000X0.300000*%
%ADD16R,1.600000X1.600000*%
%ADD17R,1.500000X1.500000*%
%ADD18C,1.500000*%
%ADD19C,1.400000*%
%ADD20RoundRect,0.250000X0.450000X-0.350000X0.450000X0.350000X-0.450000X0.350000X-0.450000X-0.350000X0*%
%ADD21R,2.800000X2.800000*%
%ADD22O,2.800000X2.800000*%
%ADD23RoundRect,0.150000X-0.587500X-0.150000X0.587500X-0.150000X0.587500X0.150000X-0.587500X0.150000X0*%
%ADD24RoundRect,0.250000X0.475000X-0.337500X0.475000X0.337500X-0.475000X0.337500X-0.475000X-0.337500X0*%
%ADD25RoundRect,0.150000X0.587500X0.150000X-0.587500X0.150000X-0.587500X-0.150000X0.587500X-0.150000X0*%
%ADD26RoundRect,0.250000X-0.337500X-0.475000X0.337500X-0.475000X0.337500X0.475000X-0.337500X0.475000X0*%
%ADD27RoundRect,0.150000X0.150000X-0.825000X0.150000X0.825000X-0.150000X0.825000X-0.150000X-0.825000X0*%
%ADD28R,1.700000X1.700000*%
%ADD29O,1.700000X1.700000*%
%ADD30R,1.830000X1.930000*%
%ADD31C,2.130000*%
G04 APERTURE END LIST*
D10*
%TO.C,R11*%
X127000000Y-134403000D03*
D11*
X137160000Y-134403000D03*
%TD*%
D12*
%TO.C,R7*%
X111647050Y-176595000D03*
X109647050Y-176595000D03*
%TD*%
D10*
%TO.C,R23*%
X101600000Y-152183000D03*
D11*
X111760000Y-152183000D03*
%TD*%
D12*
%TO.C,R8*%
X127407050Y-176595000D03*
X125407050Y-176595000D03*
%TD*%
D10*
%TO.C,R22*%
X106680000Y-129323000D03*
D11*
X96520000Y-129323000D03*
%TD*%
D13*
%TO.C,R1*%
X75200000Y-172720000D03*
X77200000Y-172720000D03*
%TD*%
D14*
%TO.C,D1*%
X84660000Y-176595000D03*
X81360000Y-176595000D03*
%TD*%
%TO.C,D3*%
X117377050Y-176765000D03*
X114077050Y-176765000D03*
%TD*%
D10*
%TO.C,R21*%
X111760000Y-129323000D03*
D11*
X121920000Y-129323000D03*
%TD*%
D14*
%TO.C,D5*%
X133137050Y-176595000D03*
X129837050Y-176595000D03*
%TD*%
D15*
%TO.C,U3*%
X90510000Y-164505000D03*
X90510000Y-165005000D03*
X90510000Y-165505000D03*
X90510000Y-166005000D03*
X90510000Y-166505000D03*
X94910000Y-166505000D03*
X94910000Y-166005000D03*
X94910000Y-165505000D03*
X94910000Y-165005000D03*
X94910000Y-164505000D03*
%TD*%
D16*
%TO.C,U5*%
X102880000Y-148363000D03*
D11*
X105420000Y-148363000D03*
X107960000Y-148363000D03*
X110500000Y-148363000D03*
X110500000Y-140743000D03*
X107960000Y-140743000D03*
X105420000Y-140743000D03*
X102880000Y-140743000D03*
%TD*%
D14*
%TO.C,D7*%
X133137050Y-172785000D03*
X129837050Y-172785000D03*
%TD*%
D17*
%TO.C,Q4*%
X81280000Y-140753000D03*
D18*
X83820000Y-140753000D03*
X86360000Y-140753000D03*
%TD*%
D12*
%TO.C,R6*%
X78930000Y-176595000D03*
X76930000Y-176595000D03*
%TD*%
D18*
%TO.C,U2*%
X77470000Y-91440000D03*
X77470000Y-93980000D03*
X77470000Y-96520000D03*
X77470000Y-99060000D03*
X77470000Y-101600000D03*
X77470000Y-104140000D03*
X77470000Y-106680000D03*
X77470000Y-109220000D03*
X77470000Y-111760000D03*
X77470000Y-114300000D03*
X77470000Y-116840000D03*
X77470000Y-119380000D03*
X92710000Y-119380000D03*
X92710000Y-116840000D03*
X92710000Y-114300000D03*
X92710000Y-111760000D03*
X92710000Y-109220000D03*
X92710000Y-106680000D03*
X92710000Y-104140000D03*
X92710000Y-101600000D03*
X92710000Y-99060000D03*
X92710000Y-96520000D03*
X92710000Y-93980000D03*
X92710000Y-91440000D03*
X90170000Y-91440000D03*
%TD*%
D19*
%TO.C,U1*%
X128270000Y-109003000D03*
X125730000Y-109003000D03*
X128270000Y-106463000D03*
X125730000Y-106463000D03*
X128270000Y-103923000D03*
X125730000Y-103923000D03*
X128270000Y-101383000D03*
X125730000Y-101383000D03*
X128270000Y-98843000D03*
X125730000Y-98843000D03*
X128270000Y-96303000D03*
X125730000Y-96303000D03*
X128270000Y-93763000D03*
X125730000Y-93763000D03*
X128270000Y-91223000D03*
X125730000Y-91223000D03*
X128270000Y-88683000D03*
X125730000Y-88683000D03*
X128270000Y-86143000D03*
X125730000Y-86143000D03*
X102870000Y-109003000D03*
X100330000Y-109003000D03*
X102870000Y-106463000D03*
X100330000Y-106463000D03*
X102870000Y-103923000D03*
X100330000Y-103923000D03*
X102870000Y-101383000D03*
X100330000Y-101383000D03*
X102870000Y-98843000D03*
X100330000Y-98843000D03*
X102870000Y-96303000D03*
X100330000Y-96303000D03*
X102870000Y-93763000D03*
X100330000Y-93763000D03*
X102870000Y-91223000D03*
X100330000Y-91223000D03*
X102870000Y-88683000D03*
X100330000Y-88683000D03*
X102870000Y-86143000D03*
X100330000Y-86143000D03*
%TD*%
D10*
%TO.C,R18*%
X81280000Y-129540000D03*
D11*
X91440000Y-129540000D03*
%TD*%
D10*
%TO.C,R27*%
X114300000Y-149643000D03*
D11*
X124460000Y-149643000D03*
%TD*%
D10*
%TO.C,R13*%
X127000000Y-150913000D03*
D11*
X137160000Y-150913000D03*
%TD*%
D10*
%TO.C,R14*%
X99060000Y-147463000D03*
D11*
X88900000Y-147463000D03*
%TD*%
D17*
%TO.C,Q3*%
X91440000Y-141113000D03*
D18*
X93980000Y-141113000D03*
X96520000Y-141113000D03*
%TD*%
D17*
%TO.C,Q7*%
X118110000Y-143293000D03*
D18*
X120650000Y-143293000D03*
X123190000Y-143293000D03*
%TD*%
D20*
%TO.C,R17*%
X82550000Y-166100000D03*
X82550000Y-164100000D03*
%TD*%
D13*
%TO.C,R2*%
X104567050Y-176595000D03*
X106567050Y-176595000D03*
%TD*%
D21*
%TO.C,D9*%
X95250000Y-135673000D03*
D22*
X107950000Y-135673000D03*
%TD*%
D23*
%TO.C,Q1*%
X134015000Y-138533000D03*
X134015000Y-140433000D03*
X135890000Y-139483000D03*
%TD*%
D10*
%TO.C,R24*%
X124460000Y-135673000D03*
D11*
X114300000Y-135673000D03*
%TD*%
D14*
%TO.C,D2*%
X84660000Y-172785000D03*
X81360000Y-172785000D03*
%TD*%
D24*
%TO.C,C3*%
X87630000Y-166542500D03*
X87630000Y-164467500D03*
%TD*%
D13*
%TO.C,R4*%
X88701747Y-176556343D03*
X90701747Y-176556343D03*
%TD*%
D16*
%TO.C,C2*%
X132217349Y-92710000D03*
D10*
X137217349Y-92710000D03*
%TD*%
%TO.C,R10*%
X127000000Y-129323000D03*
D11*
X137160000Y-129323000D03*
%TD*%
D25*
%TO.C,Q2*%
X130477500Y-140765500D03*
X130477500Y-138865500D03*
X128602500Y-139815500D03*
%TD*%
D12*
%TO.C,R9*%
X95781747Y-176556343D03*
X93781747Y-176556343D03*
%TD*%
D26*
%TO.C,C1*%
X103335000Y-171580000D03*
X105410000Y-171580000D03*
%TD*%
D10*
%TO.C,R12*%
X127000000Y-145833000D03*
D11*
X137160000Y-145833000D03*
%TD*%
D14*
%TO.C,D8*%
X101511747Y-172746343D03*
X98211747Y-172746343D03*
%TD*%
%TO.C,D6*%
X101511747Y-176556343D03*
X98211747Y-176556343D03*
%TD*%
D10*
%TO.C,R15*%
X85090000Y-152183000D03*
D11*
X74930000Y-152183000D03*
%TD*%
D10*
%TO.C,R5*%
X99060000Y-152543000D03*
D11*
X88900000Y-152543000D03*
%TD*%
D27*
%TO.C,U4*%
X101600000Y-167640000D03*
X102870000Y-167640000D03*
X104140000Y-167640000D03*
X105410000Y-167640000D03*
X106680000Y-167640000D03*
X107950000Y-167640000D03*
X109220000Y-167640000D03*
X109220000Y-162690000D03*
X107950000Y-162690000D03*
X106680000Y-162690000D03*
X105410000Y-162690000D03*
X104140000Y-162690000D03*
X102870000Y-162690000D03*
X101600000Y-162690000D03*
%TD*%
D13*
%TO.C,R3*%
X120327050Y-176595000D03*
X122327050Y-176595000D03*
%TD*%
D10*
%TO.C,R16*%
X85090000Y-147103000D03*
D11*
X74930000Y-147103000D03*
%TD*%
D10*
%TO.C,R19*%
X81280000Y-134620000D03*
D11*
X91440000Y-134620000D03*
%TD*%
D14*
%TO.C,D4*%
X117377050Y-172785000D03*
X114077050Y-172785000D03*
%TD*%
D28*
%TO.C,I2CA2*%
X135890000Y-114083000D03*
D29*
X135890000Y-116623000D03*
X135890000Y-119163000D03*
X135890000Y-121703000D03*
%TD*%
D30*
%TO.C,J3*%
X84520000Y-158750000D03*
D31*
X73120000Y-158750000D03*
X81420000Y-158750000D03*
%TD*%
%TO.C,J10*%
X109250000Y-158750000D03*
D30*
X120650000Y-158750000D03*
D31*
X117550000Y-158750000D03*
%TD*%
D30*
%TO.C,J6*%
X84520000Y-181610000D03*
D31*
X73120000Y-181610000D03*
X81420000Y-181610000D03*
%TD*%
D30*
%TO.C,J1*%
X117400000Y-181610000D03*
D31*
X106000000Y-181610000D03*
X114300000Y-181610000D03*
%TD*%
D30*
%TO.C,J2*%
X100300000Y-158750000D03*
D31*
X88900000Y-158750000D03*
X97200000Y-158750000D03*
%TD*%
D28*
%TO.C,I2CA1*%
X135890000Y-98853000D03*
D29*
X135890000Y-101393000D03*
X135890000Y-103933000D03*
X135890000Y-106473000D03*
%TD*%
D31*
%TO.C,J12*%
X125190000Y-158750000D03*
D30*
X136590000Y-158750000D03*
D31*
X133490000Y-158750000D03*
%TD*%
D30*
%TO.C,J7*%
X101030000Y-181610000D03*
D31*
X89630000Y-181610000D03*
X97930000Y-181610000D03*
%TD*%
D30*
%TO.C,J5*%
X132780000Y-181610000D03*
D31*
X121380000Y-181610000D03*
X129680000Y-181610000D03*
%TD*%
M02*
