G04 #@! TF.GenerationSoftware,KiCad,Pcbnew,7.0.5-0*
G04 #@! TF.CreationDate,2024-02-27T22:34:33-05:00*
G04 #@! TF.ProjectId,Grand_central_pcb_simple,4772616e-645f-4636-956e-7472616c5f70,rev?*
G04 #@! TF.SameCoordinates,Original*
G04 #@! TF.FileFunction,Paste,Top*
G04 #@! TF.FilePolarity,Positive*
%FSLAX46Y46*%
G04 Gerber Fmt 4.6, Leading zero omitted, Abs format (unit mm)*
G04 Created by KiCad (PCBNEW 7.0.5-0) date 2024-02-27 22:34:33*
%MOMM*%
%LPD*%
G01*
G04 APERTURE LIST*
G04 Aperture macros list*
%AMRoundRect*
0 Rectangle with rounded corners*
0 $1 Rounding radius*
0 $2 $3 $4 $5 $6 $7 $8 $9 X,Y pos of 4 corners*
0 Add a 4 corners polygon primitive as box body*
4,1,4,$2,$3,$4,$5,$6,$7,$8,$9,$2,$3,0*
0 Add four circle primitives for the rounded corners*
1,1,$1+$1,$2,$3*
1,1,$1+$1,$4,$5*
1,1,$1+$1,$6,$7*
1,1,$1+$1,$8,$9*
0 Add four rect primitives between the rounded corners*
20,1,$1+$1,$2,$3,$4,$5,0*
20,1,$1+$1,$4,$5,$6,$7,0*
20,1,$1+$1,$6,$7,$8,$9,0*
20,1,$1+$1,$8,$9,$2,$3,0*%
G04 Aperture macros list end*
%ADD10RoundRect,0.225000X-0.225000X-0.375000X0.225000X-0.375000X0.225000X0.375000X-0.225000X0.375000X0*%
%ADD11RoundRect,0.150000X0.825000X0.150000X-0.825000X0.150000X-0.825000X-0.150000X0.825000X-0.150000X0*%
%ADD12RoundRect,0.250000X-0.337500X-0.475000X0.337500X-0.475000X0.337500X0.475000X-0.337500X0.475000X0*%
%ADD13RoundRect,0.250000X-0.350000X-0.450000X0.350000X-0.450000X0.350000X0.450000X-0.350000X0.450000X0*%
%ADD14RoundRect,0.250000X0.337500X0.475000X-0.337500X0.475000X-0.337500X-0.475000X0.337500X-0.475000X0*%
%ADD15RoundRect,0.250000X-0.450000X0.350000X-0.450000X-0.350000X0.450000X-0.350000X0.450000X0.350000X0*%
%ADD16RoundRect,0.225000X0.225000X0.375000X-0.225000X0.375000X-0.225000X-0.375000X0.225000X-0.375000X0*%
%ADD17RoundRect,0.250000X0.350000X0.450000X-0.350000X0.450000X-0.350000X-0.450000X0.350000X-0.450000X0*%
%ADD18RoundRect,0.250000X0.450000X-0.350000X0.450000X0.350000X-0.450000X0.350000X-0.450000X-0.350000X0*%
%ADD19RoundRect,0.250000X-0.475000X0.337500X-0.475000X-0.337500X0.475000X-0.337500X0.475000X0.337500X0*%
G04 APERTURE END LIST*
D10*
X250600000Y-91726570D03*
X247300000Y-91726570D03*
D11*
X239965000Y-51435000D03*
X239965000Y-50165000D03*
X239965000Y-48895000D03*
X239965000Y-47625000D03*
X239965000Y-46355000D03*
X239965000Y-45085000D03*
X239965000Y-43815000D03*
X235015000Y-43815000D03*
X235015000Y-45085000D03*
X235015000Y-46355000D03*
X235015000Y-47625000D03*
X235015000Y-48895000D03*
X235015000Y-50165000D03*
X235015000Y-51435000D03*
D12*
X242802500Y-47625000D03*
X244877500Y-47625000D03*
D13*
X242205000Y-95250000D03*
X244205000Y-95250000D03*
X221885000Y-95885000D03*
X223885000Y-95885000D03*
X221885000Y-76835000D03*
X223885000Y-76835000D03*
X243475000Y-80645000D03*
X245475000Y-80645000D03*
X249190000Y-74295000D03*
X251190000Y-74295000D03*
D14*
X252357500Y-84741570D03*
X254432500Y-84741570D03*
D13*
X247285000Y-76835000D03*
X249285000Y-76835000D03*
D15*
X239395000Y-33290000D03*
X239395000Y-35290000D03*
D16*
X246665000Y-84741570D03*
X249965000Y-84741570D03*
D17*
X232045000Y-95250000D03*
X234045000Y-95250000D03*
D10*
X235330000Y-99695000D03*
X232030000Y-99695000D03*
D14*
X223922500Y-79076250D03*
X221847500Y-79076250D03*
D12*
X233277500Y-80010000D03*
X235352500Y-80010000D03*
D14*
X238992500Y-80010000D03*
X241067500Y-80010000D03*
D13*
X223425000Y-69850000D03*
X225425000Y-69850000D03*
D18*
X245745000Y-51800000D03*
X245745000Y-49800000D03*
D17*
X223885000Y-82251250D03*
X221885000Y-82251250D03*
X251190000Y-71120000D03*
X249190000Y-71120000D03*
D15*
X231140000Y-48530000D03*
X231140000Y-50530000D03*
D16*
X224894861Y-84800616D03*
X228194861Y-84800616D03*
D10*
X244885000Y-98711570D03*
X241585000Y-98711570D03*
D15*
X239395000Y-37735000D03*
X239395000Y-39735000D03*
D18*
X231140000Y-46085000D03*
X231140000Y-44085000D03*
D10*
X224894861Y-91785616D03*
X228194861Y-91785616D03*
D13*
X239665000Y-66040000D03*
X241665000Y-66040000D03*
X252365000Y-80645000D03*
X254365000Y-80645000D03*
D17*
X252365000Y-93345000D03*
X254365000Y-93345000D03*
D19*
X235585000Y-37697500D03*
X235585000Y-39772500D03*
D13*
X253125000Y-99346570D03*
X251125000Y-99346570D03*
D15*
X243840000Y-52975000D03*
X243840000Y-54975000D03*
D16*
X224894861Y-107025616D03*
X228194861Y-107025616D03*
D13*
X236490000Y-74295000D03*
X238490000Y-74295000D03*
X233315000Y-76835000D03*
X235315000Y-76835000D03*
D16*
X247270000Y-106680000D03*
X250570000Y-106680000D03*
M02*
