M48
; DRILL file {KiCad 7.0.5-0} date 2024 February 27, Tuesday 22:34:36
; FORMAT={-:-/ absolute / metric / decimal}
; #@! TF.CreationDate,2024-02-27T22:34:36-05:00
; #@! TF.GenerationSoftware,Kicad,Pcbnew,7.0.5-0
; #@! TF.FileFunction,Plated,1,2,PTH
FMAT,2
METRIC
; #@! TA.AperFunction,Plated,PTH,ViaDrill
T1C0.400
; #@! TA.AperFunction,Plated,PTH,ComponentDrill
T2C0.800
; #@! TA.AperFunction,Plated,PTH,ComponentDrill
T3C0.900
; #@! TA.AperFunction,Plated,PTH,ComponentDrill
T4C1.000
; #@! TA.AperFunction,Plated,PTH,ComponentDrill
T5C1.100
; #@! TA.AperFunction,Plated,PTH,ComponentDrill
T6C1.220
; #@! TA.AperFunction,Plated,PTH,ComponentDrill
T7C1.420
; #@! TA.AperFunction,Plated,PTH,ComponentDrill
T8C1.430
; #@! TA.AperFunction,Plated,PTH,ComponentDrill
T9C2.600
%
G90
G05
T1
X220.98Y-80.645
X227.33Y-69.85
X227.965Y-50.8
X227.965Y-53.34
X227.965Y-67.945
X228.421Y-58.42
X229.235Y-45.085
X229.235Y-50.8
X229.235Y-53.34
X229.87Y-40.64
X229.87Y-56.515
X231.14Y-51.98
X231.14Y-84.455
X232.499Y-67.31
X233.135Y-48.26
X233.68Y-40.005
X233.68Y-53.34
X233.68Y-56.515
X233.68Y-57.785
X233.68Y-72.39
X234.315Y-83.82
X235.585Y-60.325
X237.4Y-48.26
X240.03Y-56.515
X240.665Y-53.975
X241.935Y-48.895
X241.935Y-51.435
X241.935Y-55.245
X242.765Y-56.71
X243.205Y-49.53
X243.205Y-51.435
X243.84Y-32.385
X243.84Y-42.545
X243.84Y-100.33
X245.11Y-45.72
X245.745Y-53.886
X245.745Y-91.44
X246.202Y-48.348
X246.29Y-43.815
X247.739Y-50.165
X249.555Y-99.695
X250.19Y-65.405
X250.825Y-76.835
X252.095Y-83.185
T2
X223.53Y-33.02
X223.53Y-35.56
X223.53Y-38.1
X223.53Y-40.64
X223.53Y-43.18
X223.53Y-45.72
X223.53Y-48.26
X223.53Y-50.8
X223.53Y-53.34
X223.53Y-55.88
X226.07Y-33.02
X226.07Y-35.56
X226.07Y-38.1
X226.07Y-40.64
X226.07Y-43.18
X226.07Y-45.72
X226.07Y-48.26
X226.07Y-50.8
X226.07Y-53.34
X226.07Y-55.88
X248.93Y-33.02
X248.93Y-35.56
X248.93Y-38.1
X248.93Y-40.64
X248.93Y-43.18
X248.93Y-45.72
X248.93Y-48.26
X248.93Y-50.8
X248.93Y-53.34
X248.93Y-55.88
X251.47Y-33.02
X251.47Y-35.56
X251.47Y-38.1
X251.47Y-40.64
X251.47Y-43.18
X251.47Y-45.72
X251.47Y-48.26
X251.47Y-50.8
X251.47Y-53.34
X251.47Y-55.88
T3
X226.06Y-80.01
X226.69Y-95.885
X228.6Y-80.01
X229.23Y-95.885
X247.645Y-80.645
X247.655Y-95.25
X250.185Y-80.645
X250.195Y-95.25
T4
X228.6Y-29.715
X231.14Y-29.715
X233.68Y-29.715
X236.22Y-29.715
X238.165Y-62.41
X238.165Y-76.91
X238.76Y-29.715
X240.665Y-76.91
X241.3Y-29.715
X243.165Y-62.41
X243.165Y-76.91
X243.84Y-29.715
X246.38Y-29.715
T5
X222.175Y-66.6
X222.175Y-73.1
X226.675Y-66.6
X226.675Y-73.1
T6
X233.58Y-87.981
X233.58Y-102.981
X242.57Y-87.922
X242.57Y-102.922
T7
X230.48Y-87.981
X230.48Y-102.981
X245.67Y-87.922
X245.67Y-102.922
T8
X222.18Y-87.981
X222.18Y-102.981
X253.97Y-87.922
X253.97Y-102.922
T9
X235.065Y-69.41
X246.265Y-69.41
T0
M30
