G04 #@! TF.GenerationSoftware,KiCad,Pcbnew,7.0.5-0*
G04 #@! TF.CreationDate,2024-02-27T22:34:33-05:00*
G04 #@! TF.ProjectId,Grand_central_pcb_simple,4772616e-645f-4636-956e-7472616c5f70,rev?*
G04 #@! TF.SameCoordinates,Original*
G04 #@! TF.FileFunction,Legend,Top*
G04 #@! TF.FilePolarity,Positive*
%FSLAX46Y46*%
G04 Gerber Fmt 4.6, Leading zero omitted, Abs format (unit mm)*
G04 Created by KiCad (PCBNEW 7.0.5-0) date 2024-02-27 22:34:33*
%MOMM*%
%LPD*%
G01*
G04 APERTURE LIST*
G04 Aperture macros list*
%AMRoundRect*
0 Rectangle with rounded corners*
0 $1 Rounding radius*
0 $2 $3 $4 $5 $6 $7 $8 $9 X,Y pos of 4 corners*
0 Add a 4 corners polygon primitive as box body*
4,1,4,$2,$3,$4,$5,$6,$7,$8,$9,$2,$3,0*
0 Add four circle primitives for the rounded corners*
1,1,$1+$1,$2,$3*
1,1,$1+$1,$4,$5*
1,1,$1+$1,$6,$7*
1,1,$1+$1,$8,$9*
0 Add four rect primitives between the rounded corners*
20,1,$1+$1,$2,$3,$4,$5,0*
20,1,$1+$1,$4,$5,$6,$7,0*
20,1,$1+$1,$6,$7,$8,$9,0*
20,1,$1+$1,$8,$9,$2,$3,0*%
G04 Aperture macros list end*
%ADD10C,0.150000*%
%ADD11C,0.250000*%
%ADD12C,0.120000*%
%ADD13C,0.100000*%
%ADD14RoundRect,0.225000X-0.225000X-0.375000X0.225000X-0.375000X0.225000X0.375000X-0.225000X0.375000X0*%
%ADD15RoundRect,0.150000X0.825000X0.150000X-0.825000X0.150000X-0.825000X-0.150000X0.825000X-0.150000X0*%
%ADD16RoundRect,0.250000X-0.337500X-0.475000X0.337500X-0.475000X0.337500X0.475000X-0.337500X0.475000X0*%
%ADD17RoundRect,0.250000X-0.350000X-0.450000X0.350000X-0.450000X0.350000X0.450000X-0.350000X0.450000X0*%
%ADD18C,1.800000*%
%ADD19R,1.800000X1.800000*%
%ADD20RoundRect,0.250000X0.337500X0.475000X-0.337500X0.475000X-0.337500X-0.475000X0.337500X-0.475000X0*%
%ADD21RoundRect,0.250000X-0.450000X0.350000X-0.450000X-0.350000X0.450000X-0.350000X0.450000X0.350000X0*%
%ADD22RoundRect,0.225000X0.225000X0.375000X-0.225000X0.375000X-0.225000X-0.375000X0.225000X-0.375000X0*%
%ADD23RoundRect,0.250000X0.350000X0.450000X-0.350000X0.450000X-0.350000X-0.450000X0.350000X-0.450000X0*%
%ADD24RoundRect,0.250000X0.450000X-0.350000X0.450000X0.350000X-0.450000X0.350000X-0.450000X-0.350000X0*%
%ADD25C,1.400000*%
%ADD26RoundRect,0.250000X-0.475000X0.337500X-0.475000X-0.337500X0.475000X-0.337500X0.475000X0.337500X0*%
%ADD27C,2.130000*%
%ADD28R,1.830000X1.930000*%
%ADD29C,2.000000*%
%ADD30R,2.000000X2.000000*%
%ADD31C,3.200000*%
%ADD32C,2.700000*%
%ADD33R,1.700000X1.700000*%
%ADD34C,1.700000*%
G04 APERTURE END LIST*
D10*
X250507500Y-54610000D02*
X252730000Y-54610000D01*
X252730000Y-57150000D01*
X250507500Y-57150000D01*
X250507500Y-54610000D01*
G36*
X250507500Y-54610000D02*
G01*
X252730000Y-54610000D01*
X252730000Y-57150000D01*
X250507500Y-57150000D01*
X250507500Y-54610000D01*
G37*
X227647500Y-28575000D02*
X229870000Y-28575000D01*
X229870000Y-31115000D01*
X227647500Y-31115000D01*
X227647500Y-28575000D01*
G36*
X227647500Y-28575000D02*
G01*
X229870000Y-28575000D01*
X229870000Y-31115000D01*
X227647500Y-31115000D01*
X227647500Y-28575000D01*
G37*
X225107500Y-39370000D02*
X227330000Y-39370000D01*
X227330000Y-41910000D01*
X225107500Y-41910000D01*
X225107500Y-39370000D01*
G36*
X225107500Y-39370000D02*
G01*
X227330000Y-39370000D01*
X227330000Y-41910000D01*
X225107500Y-41910000D01*
X225107500Y-39370000D01*
G37*
X222567500Y-54610000D02*
X224790000Y-54610000D01*
X224790000Y-57150000D01*
X222567500Y-57150000D01*
X222567500Y-54610000D01*
G36*
X222567500Y-54610000D02*
G01*
X224790000Y-54610000D01*
X224790000Y-57150000D01*
X222567500Y-57150000D01*
X222567500Y-54610000D01*
G37*
X237172500Y-60960000D02*
X239395000Y-60960000D01*
X239395000Y-63500000D01*
X237172500Y-63500000D01*
X237172500Y-60960000D01*
G36*
X237172500Y-60960000D02*
G01*
X239395000Y-60960000D01*
X239395000Y-63500000D01*
X237172500Y-63500000D01*
X237172500Y-60960000D01*
G37*
X239395000Y-75565000D02*
X241617500Y-75565000D01*
X241617500Y-78105000D01*
X239395000Y-78105000D01*
X239395000Y-75565000D01*
G36*
X239395000Y-75565000D02*
G01*
X241617500Y-75565000D01*
X241617500Y-78105000D01*
X239395000Y-78105000D01*
X239395000Y-75565000D01*
G37*
X241300000Y-86360000D02*
X247332500Y-86360000D01*
X247332500Y-89535000D01*
X241300000Y-89535000D01*
X241300000Y-86360000D01*
G36*
X241300000Y-86360000D02*
G01*
X247332500Y-86360000D01*
X247332500Y-89535000D01*
X241300000Y-89535000D01*
X241300000Y-86360000D01*
G37*
X229235000Y-86360000D02*
X235267500Y-86360000D01*
X235267500Y-89535000D01*
X229235000Y-89535000D01*
X229235000Y-86360000D01*
G36*
X229235000Y-86360000D02*
G01*
X235267500Y-86360000D01*
X235267500Y-89535000D01*
X229235000Y-89535000D01*
X229235000Y-86360000D01*
G37*
X241300000Y-101600000D02*
X243840000Y-101600000D01*
X243840000Y-104140000D01*
X241300000Y-104140000D01*
X241300000Y-101600000D01*
G36*
X241300000Y-101600000D02*
G01*
X243840000Y-101600000D01*
X243840000Y-104140000D01*
X241300000Y-104140000D01*
X241300000Y-101600000D01*
G37*
X229235000Y-101600000D02*
X234950000Y-101600000D01*
X234950000Y-104140000D01*
X229235000Y-104140000D01*
X229235000Y-101600000D01*
G36*
X229235000Y-101600000D02*
G01*
X234950000Y-101600000D01*
X234950000Y-104140000D01*
X229235000Y-104140000D01*
X229235000Y-101600000D01*
G37*
X252809524Y-90624819D02*
X252809524Y-89624819D01*
X252809524Y-89624819D02*
X253047619Y-89624819D01*
X253047619Y-89624819D02*
X253190476Y-89672438D01*
X253190476Y-89672438D02*
X253285714Y-89767676D01*
X253285714Y-89767676D02*
X253333333Y-89862914D01*
X253333333Y-89862914D02*
X253380952Y-90053390D01*
X253380952Y-90053390D02*
X253380952Y-90196247D01*
X253380952Y-90196247D02*
X253333333Y-90386723D01*
X253333333Y-90386723D02*
X253285714Y-90481961D01*
X253285714Y-90481961D02*
X253190476Y-90577200D01*
X253190476Y-90577200D02*
X253047619Y-90624819D01*
X253047619Y-90624819D02*
X252809524Y-90624819D01*
X253761905Y-90339104D02*
X254238095Y-90339104D01*
X253666667Y-90624819D02*
X254000000Y-89624819D01*
X254000000Y-89624819D02*
X254333333Y-90624819D01*
X255238095Y-90529580D02*
X255190476Y-90577200D01*
X255190476Y-90577200D02*
X255047619Y-90624819D01*
X255047619Y-90624819D02*
X254952381Y-90624819D01*
X254952381Y-90624819D02*
X254809524Y-90577200D01*
X254809524Y-90577200D02*
X254714286Y-90481961D01*
X254714286Y-90481961D02*
X254666667Y-90386723D01*
X254666667Y-90386723D02*
X254619048Y-90196247D01*
X254619048Y-90196247D02*
X254619048Y-90053390D01*
X254619048Y-90053390D02*
X254666667Y-89862914D01*
X254666667Y-89862914D02*
X254714286Y-89767676D01*
X254714286Y-89767676D02*
X254809524Y-89672438D01*
X254809524Y-89672438D02*
X254952381Y-89624819D01*
X254952381Y-89624819D02*
X255047619Y-89624819D01*
X255047619Y-89624819D02*
X255190476Y-89672438D01*
X255190476Y-89672438D02*
X255238095Y-89720057D01*
X221059524Y-91259819D02*
X221059524Y-90259819D01*
X221059524Y-90259819D02*
X221297619Y-90259819D01*
X221297619Y-90259819D02*
X221440476Y-90307438D01*
X221440476Y-90307438D02*
X221535714Y-90402676D01*
X221535714Y-90402676D02*
X221583333Y-90497914D01*
X221583333Y-90497914D02*
X221630952Y-90688390D01*
X221630952Y-90688390D02*
X221630952Y-90831247D01*
X221630952Y-90831247D02*
X221583333Y-91021723D01*
X221583333Y-91021723D02*
X221535714Y-91116961D01*
X221535714Y-91116961D02*
X221440476Y-91212200D01*
X221440476Y-91212200D02*
X221297619Y-91259819D01*
X221297619Y-91259819D02*
X221059524Y-91259819D01*
X222011905Y-90974104D02*
X222488095Y-90974104D01*
X221916667Y-91259819D02*
X222250000Y-90259819D01*
X222250000Y-90259819D02*
X222583333Y-91259819D01*
X223488095Y-91164580D02*
X223440476Y-91212200D01*
X223440476Y-91212200D02*
X223297619Y-91259819D01*
X223297619Y-91259819D02*
X223202381Y-91259819D01*
X223202381Y-91259819D02*
X223059524Y-91212200D01*
X223059524Y-91212200D02*
X222964286Y-91116961D01*
X222964286Y-91116961D02*
X222916667Y-91021723D01*
X222916667Y-91021723D02*
X222869048Y-90831247D01*
X222869048Y-90831247D02*
X222869048Y-90688390D01*
X222869048Y-90688390D02*
X222916667Y-90497914D01*
X222916667Y-90497914D02*
X222964286Y-90402676D01*
X222964286Y-90402676D02*
X223059524Y-90307438D01*
X223059524Y-90307438D02*
X223202381Y-90259819D01*
X223202381Y-90259819D02*
X223297619Y-90259819D01*
X223297619Y-90259819D02*
X223440476Y-90307438D01*
X223440476Y-90307438D02*
X223488095Y-90355057D01*
X253222142Y-104864819D02*
X252745952Y-104864819D01*
X252745952Y-104864819D02*
X252698333Y-105341009D01*
X252698333Y-105341009D02*
X252745952Y-105293390D01*
X252745952Y-105293390D02*
X252841190Y-105245771D01*
X252841190Y-105245771D02*
X253079285Y-105245771D01*
X253079285Y-105245771D02*
X253174523Y-105293390D01*
X253174523Y-105293390D02*
X253222142Y-105341009D01*
X253222142Y-105341009D02*
X253269761Y-105436247D01*
X253269761Y-105436247D02*
X253269761Y-105674342D01*
X253269761Y-105674342D02*
X253222142Y-105769580D01*
X253222142Y-105769580D02*
X253174523Y-105817200D01*
X253174523Y-105817200D02*
X253079285Y-105864819D01*
X253079285Y-105864819D02*
X252841190Y-105864819D01*
X252841190Y-105864819D02*
X252745952Y-105817200D01*
X252745952Y-105817200D02*
X252698333Y-105769580D01*
X253603095Y-105198152D02*
X253841190Y-105864819D01*
X253841190Y-105864819D02*
X254079285Y-105198152D01*
X245197380Y-105864819D02*
X244864047Y-105388628D01*
X244625952Y-105864819D02*
X244625952Y-104864819D01*
X244625952Y-104864819D02*
X245006904Y-104864819D01*
X245006904Y-104864819D02*
X245102142Y-104912438D01*
X245102142Y-104912438D02*
X245149761Y-104960057D01*
X245149761Y-104960057D02*
X245197380Y-105055295D01*
X245197380Y-105055295D02*
X245197380Y-105198152D01*
X245197380Y-105198152D02*
X245149761Y-105293390D01*
X245149761Y-105293390D02*
X245102142Y-105341009D01*
X245102142Y-105341009D02*
X245006904Y-105388628D01*
X245006904Y-105388628D02*
X244625952Y-105388628D01*
X245578333Y-105817200D02*
X245721190Y-105864819D01*
X245721190Y-105864819D02*
X245959285Y-105864819D01*
X245959285Y-105864819D02*
X246054523Y-105817200D01*
X246054523Y-105817200D02*
X246102142Y-105769580D01*
X246102142Y-105769580D02*
X246149761Y-105674342D01*
X246149761Y-105674342D02*
X246149761Y-105579104D01*
X246149761Y-105579104D02*
X246102142Y-105483866D01*
X246102142Y-105483866D02*
X246054523Y-105436247D01*
X246054523Y-105436247D02*
X245959285Y-105388628D01*
X245959285Y-105388628D02*
X245768809Y-105341009D01*
X245768809Y-105341009D02*
X245673571Y-105293390D01*
X245673571Y-105293390D02*
X245625952Y-105245771D01*
X245625952Y-105245771D02*
X245578333Y-105150533D01*
X245578333Y-105150533D02*
X245578333Y-105055295D01*
X245578333Y-105055295D02*
X245625952Y-104960057D01*
X245625952Y-104960057D02*
X245673571Y-104912438D01*
X245673571Y-104912438D02*
X245768809Y-104864819D01*
X245768809Y-104864819D02*
X246006904Y-104864819D01*
X246006904Y-104864819D02*
X246149761Y-104912438D01*
X246435476Y-104864819D02*
X247006904Y-104864819D01*
X246721190Y-105864819D02*
X246721190Y-104864819D01*
X221654761Y-100689580D02*
X221607142Y-100737200D01*
X221607142Y-100737200D02*
X221464285Y-100784819D01*
X221464285Y-100784819D02*
X221369047Y-100784819D01*
X221369047Y-100784819D02*
X221226190Y-100737200D01*
X221226190Y-100737200D02*
X221130952Y-100641961D01*
X221130952Y-100641961D02*
X221083333Y-100546723D01*
X221083333Y-100546723D02*
X221035714Y-100356247D01*
X221035714Y-100356247D02*
X221035714Y-100213390D01*
X221035714Y-100213390D02*
X221083333Y-100022914D01*
X221083333Y-100022914D02*
X221130952Y-99927676D01*
X221130952Y-99927676D02*
X221226190Y-99832438D01*
X221226190Y-99832438D02*
X221369047Y-99784819D01*
X221369047Y-99784819D02*
X221464285Y-99784819D01*
X221464285Y-99784819D02*
X221607142Y-99832438D01*
X221607142Y-99832438D02*
X221654761Y-99880057D01*
X222559523Y-100784819D02*
X222083333Y-100784819D01*
X222083333Y-100784819D02*
X222083333Y-99784819D01*
X222892857Y-100784819D02*
X222892857Y-99784819D01*
X223464285Y-100784819D02*
X223035714Y-100213390D01*
X223464285Y-99784819D02*
X222892857Y-100356247D01*
D11*
X240551615Y-85528428D02*
X240551615Y-84028428D01*
X240551615Y-84028428D02*
X240908758Y-84028428D01*
X240908758Y-84028428D02*
X241123044Y-84099857D01*
X241123044Y-84099857D02*
X241265901Y-84242714D01*
X241265901Y-84242714D02*
X241337330Y-84385571D01*
X241337330Y-84385571D02*
X241408758Y-84671285D01*
X241408758Y-84671285D02*
X241408758Y-84885571D01*
X241408758Y-84885571D02*
X241337330Y-85171285D01*
X241337330Y-85171285D02*
X241265901Y-85314142D01*
X241265901Y-85314142D02*
X241123044Y-85457000D01*
X241123044Y-85457000D02*
X240908758Y-85528428D01*
X240908758Y-85528428D02*
X240551615Y-85528428D01*
X241980187Y-85099857D02*
X242694473Y-85099857D01*
X241837330Y-85528428D02*
X242337330Y-84028428D01*
X242337330Y-84028428D02*
X242837330Y-85528428D01*
X244194472Y-85385571D02*
X244123044Y-85457000D01*
X244123044Y-85457000D02*
X243908758Y-85528428D01*
X243908758Y-85528428D02*
X243765901Y-85528428D01*
X243765901Y-85528428D02*
X243551615Y-85457000D01*
X243551615Y-85457000D02*
X243408758Y-85314142D01*
X243408758Y-85314142D02*
X243337329Y-85171285D01*
X243337329Y-85171285D02*
X243265901Y-84885571D01*
X243265901Y-84885571D02*
X243265901Y-84671285D01*
X243265901Y-84671285D02*
X243337329Y-84385571D01*
X243337329Y-84385571D02*
X243408758Y-84242714D01*
X243408758Y-84242714D02*
X243551615Y-84099857D01*
X243551615Y-84099857D02*
X243765901Y-84028428D01*
X243765901Y-84028428D02*
X243908758Y-84028428D01*
X243908758Y-84028428D02*
X244123044Y-84099857D01*
X244123044Y-84099857D02*
X244194472Y-84171285D01*
X232931615Y-91878428D02*
X232931615Y-90378428D01*
X232931615Y-90378428D02*
X233288758Y-90378428D01*
X233288758Y-90378428D02*
X233503044Y-90449857D01*
X233503044Y-90449857D02*
X233645901Y-90592714D01*
X233645901Y-90592714D02*
X233717330Y-90735571D01*
X233717330Y-90735571D02*
X233788758Y-91021285D01*
X233788758Y-91021285D02*
X233788758Y-91235571D01*
X233788758Y-91235571D02*
X233717330Y-91521285D01*
X233717330Y-91521285D02*
X233645901Y-91664142D01*
X233645901Y-91664142D02*
X233503044Y-91807000D01*
X233503044Y-91807000D02*
X233288758Y-91878428D01*
X233288758Y-91878428D02*
X232931615Y-91878428D01*
X234360187Y-91449857D02*
X235074473Y-91449857D01*
X234217330Y-91878428D02*
X234717330Y-90378428D01*
X234717330Y-90378428D02*
X235217330Y-91878428D01*
X236574472Y-91735571D02*
X236503044Y-91807000D01*
X236503044Y-91807000D02*
X236288758Y-91878428D01*
X236288758Y-91878428D02*
X236145901Y-91878428D01*
X236145901Y-91878428D02*
X235931615Y-91807000D01*
X235931615Y-91807000D02*
X235788758Y-91664142D01*
X235788758Y-91664142D02*
X235717329Y-91521285D01*
X235717329Y-91521285D02*
X235645901Y-91235571D01*
X235645901Y-91235571D02*
X235645901Y-91021285D01*
X235645901Y-91021285D02*
X235717329Y-90735571D01*
X235717329Y-90735571D02*
X235788758Y-90592714D01*
X235788758Y-90592714D02*
X235931615Y-90449857D01*
X235931615Y-90449857D02*
X236145901Y-90378428D01*
X236145901Y-90378428D02*
X236288758Y-90378428D01*
X236288758Y-90378428D02*
X236503044Y-90449857D01*
X236503044Y-90449857D02*
X236574472Y-90521285D01*
X239916615Y-107753428D02*
X239916615Y-106253428D01*
X239916615Y-106253428D02*
X240416615Y-107324857D01*
X240416615Y-107324857D02*
X240916615Y-106253428D01*
X240916615Y-106253428D02*
X240916615Y-107753428D01*
X241630901Y-107753428D02*
X241630901Y-106253428D01*
X242345187Y-107753428D02*
X242345187Y-106253428D01*
X242345187Y-106253428D02*
X242702330Y-106253428D01*
X242702330Y-106253428D02*
X242916616Y-106324857D01*
X242916616Y-106324857D02*
X243059473Y-106467714D01*
X243059473Y-106467714D02*
X243130902Y-106610571D01*
X243130902Y-106610571D02*
X243202330Y-106896285D01*
X243202330Y-106896285D02*
X243202330Y-107110571D01*
X243202330Y-107110571D02*
X243130902Y-107396285D01*
X243130902Y-107396285D02*
X243059473Y-107539142D01*
X243059473Y-107539142D02*
X242916616Y-107682000D01*
X242916616Y-107682000D02*
X242702330Y-107753428D01*
X242702330Y-107753428D02*
X242345187Y-107753428D01*
X243845187Y-107753428D02*
X243845187Y-106253428D01*
X233153758Y-106340571D02*
X233082330Y-106412000D01*
X233082330Y-106412000D02*
X232868044Y-106483428D01*
X232868044Y-106483428D02*
X232725187Y-106483428D01*
X232725187Y-106483428D02*
X232510901Y-106412000D01*
X232510901Y-106412000D02*
X232368044Y-106269142D01*
X232368044Y-106269142D02*
X232296615Y-106126285D01*
X232296615Y-106126285D02*
X232225187Y-105840571D01*
X232225187Y-105840571D02*
X232225187Y-105626285D01*
X232225187Y-105626285D02*
X232296615Y-105340571D01*
X232296615Y-105340571D02*
X232368044Y-105197714D01*
X232368044Y-105197714D02*
X232510901Y-105054857D01*
X232510901Y-105054857D02*
X232725187Y-104983428D01*
X232725187Y-104983428D02*
X232868044Y-104983428D01*
X232868044Y-104983428D02*
X233082330Y-105054857D01*
X233082330Y-105054857D02*
X233153758Y-105126285D01*
X234510901Y-106483428D02*
X233796615Y-106483428D01*
X233796615Y-106483428D02*
X233796615Y-104983428D01*
X235296616Y-104983428D02*
X235582330Y-104983428D01*
X235582330Y-104983428D02*
X235725187Y-105054857D01*
X235725187Y-105054857D02*
X235868044Y-105197714D01*
X235868044Y-105197714D02*
X235939473Y-105483428D01*
X235939473Y-105483428D02*
X235939473Y-105983428D01*
X235939473Y-105983428D02*
X235868044Y-106269142D01*
X235868044Y-106269142D02*
X235725187Y-106412000D01*
X235725187Y-106412000D02*
X235582330Y-106483428D01*
X235582330Y-106483428D02*
X235296616Y-106483428D01*
X235296616Y-106483428D02*
X235153759Y-106412000D01*
X235153759Y-106412000D02*
X235010901Y-106269142D01*
X235010901Y-106269142D02*
X234939473Y-105983428D01*
X234939473Y-105983428D02*
X234939473Y-105483428D01*
X234939473Y-105483428D02*
X235010901Y-105197714D01*
X235010901Y-105197714D02*
X235153759Y-105054857D01*
X235153759Y-105054857D02*
X235296616Y-104983428D01*
X237439473Y-106340571D02*
X237368045Y-106412000D01*
X237368045Y-106412000D02*
X237153759Y-106483428D01*
X237153759Y-106483428D02*
X237010902Y-106483428D01*
X237010902Y-106483428D02*
X236796616Y-106412000D01*
X236796616Y-106412000D02*
X236653759Y-106269142D01*
X236653759Y-106269142D02*
X236582330Y-106126285D01*
X236582330Y-106126285D02*
X236510902Y-105840571D01*
X236510902Y-105840571D02*
X236510902Y-105626285D01*
X236510902Y-105626285D02*
X236582330Y-105340571D01*
X236582330Y-105340571D02*
X236653759Y-105197714D01*
X236653759Y-105197714D02*
X236796616Y-105054857D01*
X236796616Y-105054857D02*
X237010902Y-104983428D01*
X237010902Y-104983428D02*
X237153759Y-104983428D01*
X237153759Y-104983428D02*
X237368045Y-105054857D01*
X237368045Y-105054857D02*
X237439473Y-105126285D01*
X238082330Y-106483428D02*
X238082330Y-104983428D01*
X238939473Y-106483428D02*
X238296616Y-105626285D01*
X238939473Y-104983428D02*
X238082330Y-105840571D01*
D10*
X248211905Y-90181389D02*
X248211905Y-89181389D01*
X248211905Y-89181389D02*
X248450000Y-89181389D01*
X248450000Y-89181389D02*
X248592857Y-89229008D01*
X248592857Y-89229008D02*
X248688095Y-89324246D01*
X248688095Y-89324246D02*
X248735714Y-89419484D01*
X248735714Y-89419484D02*
X248783333Y-89609960D01*
X248783333Y-89609960D02*
X248783333Y-89752817D01*
X248783333Y-89752817D02*
X248735714Y-89943293D01*
X248735714Y-89943293D02*
X248688095Y-90038531D01*
X248688095Y-90038531D02*
X248592857Y-90133770D01*
X248592857Y-90133770D02*
X248450000Y-90181389D01*
X248450000Y-90181389D02*
X248211905Y-90181389D01*
X249116667Y-89181389D02*
X249783333Y-89181389D01*
X249783333Y-89181389D02*
X249354762Y-90181389D01*
X236728095Y-52359819D02*
X236728095Y-53169342D01*
X236728095Y-53169342D02*
X236775714Y-53264580D01*
X236775714Y-53264580D02*
X236823333Y-53312200D01*
X236823333Y-53312200D02*
X236918571Y-53359819D01*
X236918571Y-53359819D02*
X237109047Y-53359819D01*
X237109047Y-53359819D02*
X237204285Y-53312200D01*
X237204285Y-53312200D02*
X237251904Y-53264580D01*
X237251904Y-53264580D02*
X237299523Y-53169342D01*
X237299523Y-53169342D02*
X237299523Y-52359819D01*
X237728095Y-52455057D02*
X237775714Y-52407438D01*
X237775714Y-52407438D02*
X237870952Y-52359819D01*
X237870952Y-52359819D02*
X238109047Y-52359819D01*
X238109047Y-52359819D02*
X238204285Y-52407438D01*
X238204285Y-52407438D02*
X238251904Y-52455057D01*
X238251904Y-52455057D02*
X238299523Y-52550295D01*
X238299523Y-52550295D02*
X238299523Y-52645533D01*
X238299523Y-52645533D02*
X238251904Y-52788390D01*
X238251904Y-52788390D02*
X237680476Y-53359819D01*
X237680476Y-53359819D02*
X238299523Y-53359819D01*
X243673333Y-46304580D02*
X243625714Y-46352200D01*
X243625714Y-46352200D02*
X243482857Y-46399819D01*
X243482857Y-46399819D02*
X243387619Y-46399819D01*
X243387619Y-46399819D02*
X243244762Y-46352200D01*
X243244762Y-46352200D02*
X243149524Y-46256961D01*
X243149524Y-46256961D02*
X243101905Y-46161723D01*
X243101905Y-46161723D02*
X243054286Y-45971247D01*
X243054286Y-45971247D02*
X243054286Y-45828390D01*
X243054286Y-45828390D02*
X243101905Y-45637914D01*
X243101905Y-45637914D02*
X243149524Y-45542676D01*
X243149524Y-45542676D02*
X243244762Y-45447438D01*
X243244762Y-45447438D02*
X243387619Y-45399819D01*
X243387619Y-45399819D02*
X243482857Y-45399819D01*
X243482857Y-45399819D02*
X243625714Y-45447438D01*
X243625714Y-45447438D02*
X243673333Y-45495057D01*
X244530476Y-45399819D02*
X244340000Y-45399819D01*
X244340000Y-45399819D02*
X244244762Y-45447438D01*
X244244762Y-45447438D02*
X244197143Y-45495057D01*
X244197143Y-45495057D02*
X244101905Y-45637914D01*
X244101905Y-45637914D02*
X244054286Y-45828390D01*
X244054286Y-45828390D02*
X244054286Y-46209342D01*
X244054286Y-46209342D02*
X244101905Y-46304580D01*
X244101905Y-46304580D02*
X244149524Y-46352200D01*
X244149524Y-46352200D02*
X244244762Y-46399819D01*
X244244762Y-46399819D02*
X244435238Y-46399819D01*
X244435238Y-46399819D02*
X244530476Y-46352200D01*
X244530476Y-46352200D02*
X244578095Y-46304580D01*
X244578095Y-46304580D02*
X244625714Y-46209342D01*
X244625714Y-46209342D02*
X244625714Y-45971247D01*
X244625714Y-45971247D02*
X244578095Y-45876009D01*
X244578095Y-45876009D02*
X244530476Y-45828390D01*
X244530476Y-45828390D02*
X244435238Y-45780771D01*
X244435238Y-45780771D02*
X244244762Y-45780771D01*
X244244762Y-45780771D02*
X244149524Y-45828390D01*
X244149524Y-45828390D02*
X244101905Y-45876009D01*
X244101905Y-45876009D02*
X244054286Y-45971247D01*
X242562142Y-94054819D02*
X242228809Y-93578628D01*
X241990714Y-94054819D02*
X241990714Y-93054819D01*
X241990714Y-93054819D02*
X242371666Y-93054819D01*
X242371666Y-93054819D02*
X242466904Y-93102438D01*
X242466904Y-93102438D02*
X242514523Y-93150057D01*
X242514523Y-93150057D02*
X242562142Y-93245295D01*
X242562142Y-93245295D02*
X242562142Y-93388152D01*
X242562142Y-93388152D02*
X242514523Y-93483390D01*
X242514523Y-93483390D02*
X242466904Y-93531009D01*
X242466904Y-93531009D02*
X242371666Y-93578628D01*
X242371666Y-93578628D02*
X241990714Y-93578628D01*
X242943095Y-93150057D02*
X242990714Y-93102438D01*
X242990714Y-93102438D02*
X243085952Y-93054819D01*
X243085952Y-93054819D02*
X243324047Y-93054819D01*
X243324047Y-93054819D02*
X243419285Y-93102438D01*
X243419285Y-93102438D02*
X243466904Y-93150057D01*
X243466904Y-93150057D02*
X243514523Y-93245295D01*
X243514523Y-93245295D02*
X243514523Y-93340533D01*
X243514523Y-93340533D02*
X243466904Y-93483390D01*
X243466904Y-93483390D02*
X242895476Y-94054819D01*
X242895476Y-94054819D02*
X243514523Y-94054819D01*
X243895476Y-93150057D02*
X243943095Y-93102438D01*
X243943095Y-93102438D02*
X244038333Y-93054819D01*
X244038333Y-93054819D02*
X244276428Y-93054819D01*
X244276428Y-93054819D02*
X244371666Y-93102438D01*
X244371666Y-93102438D02*
X244419285Y-93150057D01*
X244419285Y-93150057D02*
X244466904Y-93245295D01*
X244466904Y-93245295D02*
X244466904Y-93340533D01*
X244466904Y-93340533D02*
X244419285Y-93483390D01*
X244419285Y-93483390D02*
X243847857Y-94054819D01*
X243847857Y-94054819D02*
X244466904Y-94054819D01*
X222242142Y-94689819D02*
X221908809Y-94213628D01*
X221670714Y-94689819D02*
X221670714Y-93689819D01*
X221670714Y-93689819D02*
X222051666Y-93689819D01*
X222051666Y-93689819D02*
X222146904Y-93737438D01*
X222146904Y-93737438D02*
X222194523Y-93785057D01*
X222194523Y-93785057D02*
X222242142Y-93880295D01*
X222242142Y-93880295D02*
X222242142Y-94023152D01*
X222242142Y-94023152D02*
X222194523Y-94118390D01*
X222194523Y-94118390D02*
X222146904Y-94166009D01*
X222146904Y-94166009D02*
X222051666Y-94213628D01*
X222051666Y-94213628D02*
X221670714Y-94213628D01*
X222623095Y-93785057D02*
X222670714Y-93737438D01*
X222670714Y-93737438D02*
X222765952Y-93689819D01*
X222765952Y-93689819D02*
X223004047Y-93689819D01*
X223004047Y-93689819D02*
X223099285Y-93737438D01*
X223099285Y-93737438D02*
X223146904Y-93785057D01*
X223146904Y-93785057D02*
X223194523Y-93880295D01*
X223194523Y-93880295D02*
X223194523Y-93975533D01*
X223194523Y-93975533D02*
X223146904Y-94118390D01*
X223146904Y-94118390D02*
X222575476Y-94689819D01*
X222575476Y-94689819D02*
X223194523Y-94689819D01*
X224146904Y-94689819D02*
X223575476Y-94689819D01*
X223861190Y-94689819D02*
X223861190Y-93689819D01*
X223861190Y-93689819D02*
X223765952Y-93832676D01*
X223765952Y-93832676D02*
X223670714Y-93927914D01*
X223670714Y-93927914D02*
X223575476Y-93975533D01*
X222242142Y-75639819D02*
X221908809Y-75163628D01*
X221670714Y-75639819D02*
X221670714Y-74639819D01*
X221670714Y-74639819D02*
X222051666Y-74639819D01*
X222051666Y-74639819D02*
X222146904Y-74687438D01*
X222146904Y-74687438D02*
X222194523Y-74735057D01*
X222194523Y-74735057D02*
X222242142Y-74830295D01*
X222242142Y-74830295D02*
X222242142Y-74973152D01*
X222242142Y-74973152D02*
X222194523Y-75068390D01*
X222194523Y-75068390D02*
X222146904Y-75116009D01*
X222146904Y-75116009D02*
X222051666Y-75163628D01*
X222051666Y-75163628D02*
X221670714Y-75163628D01*
X222623095Y-74735057D02*
X222670714Y-74687438D01*
X222670714Y-74687438D02*
X222765952Y-74639819D01*
X222765952Y-74639819D02*
X223004047Y-74639819D01*
X223004047Y-74639819D02*
X223099285Y-74687438D01*
X223099285Y-74687438D02*
X223146904Y-74735057D01*
X223146904Y-74735057D02*
X223194523Y-74830295D01*
X223194523Y-74830295D02*
X223194523Y-74925533D01*
X223194523Y-74925533D02*
X223146904Y-75068390D01*
X223146904Y-75068390D02*
X222575476Y-75639819D01*
X222575476Y-75639819D02*
X223194523Y-75639819D01*
X223813571Y-74639819D02*
X223908809Y-74639819D01*
X223908809Y-74639819D02*
X224004047Y-74687438D01*
X224004047Y-74687438D02*
X224051666Y-74735057D01*
X224051666Y-74735057D02*
X224099285Y-74830295D01*
X224099285Y-74830295D02*
X224146904Y-75020771D01*
X224146904Y-75020771D02*
X224146904Y-75258866D01*
X224146904Y-75258866D02*
X224099285Y-75449342D01*
X224099285Y-75449342D02*
X224051666Y-75544580D01*
X224051666Y-75544580D02*
X224004047Y-75592200D01*
X224004047Y-75592200D02*
X223908809Y-75639819D01*
X223908809Y-75639819D02*
X223813571Y-75639819D01*
X223813571Y-75639819D02*
X223718333Y-75592200D01*
X223718333Y-75592200D02*
X223670714Y-75544580D01*
X223670714Y-75544580D02*
X223623095Y-75449342D01*
X223623095Y-75449342D02*
X223575476Y-75258866D01*
X223575476Y-75258866D02*
X223575476Y-75020771D01*
X223575476Y-75020771D02*
X223623095Y-74830295D01*
X223623095Y-74830295D02*
X223670714Y-74735057D01*
X223670714Y-74735057D02*
X223718333Y-74687438D01*
X223718333Y-74687438D02*
X223813571Y-74639819D01*
X243832142Y-79449819D02*
X243498809Y-78973628D01*
X243260714Y-79449819D02*
X243260714Y-78449819D01*
X243260714Y-78449819D02*
X243641666Y-78449819D01*
X243641666Y-78449819D02*
X243736904Y-78497438D01*
X243736904Y-78497438D02*
X243784523Y-78545057D01*
X243784523Y-78545057D02*
X243832142Y-78640295D01*
X243832142Y-78640295D02*
X243832142Y-78783152D01*
X243832142Y-78783152D02*
X243784523Y-78878390D01*
X243784523Y-78878390D02*
X243736904Y-78926009D01*
X243736904Y-78926009D02*
X243641666Y-78973628D01*
X243641666Y-78973628D02*
X243260714Y-78973628D01*
X244784523Y-79449819D02*
X244213095Y-79449819D01*
X244498809Y-79449819D02*
X244498809Y-78449819D01*
X244498809Y-78449819D02*
X244403571Y-78592676D01*
X244403571Y-78592676D02*
X244308333Y-78687914D01*
X244308333Y-78687914D02*
X244213095Y-78735533D01*
X245403571Y-78449819D02*
X245498809Y-78449819D01*
X245498809Y-78449819D02*
X245594047Y-78497438D01*
X245594047Y-78497438D02*
X245641666Y-78545057D01*
X245641666Y-78545057D02*
X245689285Y-78640295D01*
X245689285Y-78640295D02*
X245736904Y-78830771D01*
X245736904Y-78830771D02*
X245736904Y-79068866D01*
X245736904Y-79068866D02*
X245689285Y-79259342D01*
X245689285Y-79259342D02*
X245641666Y-79354580D01*
X245641666Y-79354580D02*
X245594047Y-79402200D01*
X245594047Y-79402200D02*
X245498809Y-79449819D01*
X245498809Y-79449819D02*
X245403571Y-79449819D01*
X245403571Y-79449819D02*
X245308333Y-79402200D01*
X245308333Y-79402200D02*
X245260714Y-79354580D01*
X245260714Y-79354580D02*
X245213095Y-79259342D01*
X245213095Y-79259342D02*
X245165476Y-79068866D01*
X245165476Y-79068866D02*
X245165476Y-78830771D01*
X245165476Y-78830771D02*
X245213095Y-78640295D01*
X245213095Y-78640295D02*
X245260714Y-78545057D01*
X245260714Y-78545057D02*
X245308333Y-78497438D01*
X245308333Y-78497438D02*
X245403571Y-78449819D01*
X247710714Y-98664819D02*
X247710714Y-97664819D01*
X247710714Y-97664819D02*
X247948809Y-97664819D01*
X247948809Y-97664819D02*
X248091666Y-97712438D01*
X248091666Y-97712438D02*
X248186904Y-97807676D01*
X248186904Y-97807676D02*
X248234523Y-97902914D01*
X248234523Y-97902914D02*
X248282142Y-98093390D01*
X248282142Y-98093390D02*
X248282142Y-98236247D01*
X248282142Y-98236247D02*
X248234523Y-98426723D01*
X248234523Y-98426723D02*
X248186904Y-98521961D01*
X248186904Y-98521961D02*
X248091666Y-98617200D01*
X248091666Y-98617200D02*
X247948809Y-98664819D01*
X247948809Y-98664819D02*
X247710714Y-98664819D01*
X249234523Y-98664819D02*
X248663095Y-98664819D01*
X248948809Y-98664819D02*
X248948809Y-97664819D01*
X248948809Y-97664819D02*
X248853571Y-97807676D01*
X248853571Y-97807676D02*
X248758333Y-97902914D01*
X248758333Y-97902914D02*
X248663095Y-97950533D01*
X249615476Y-97760057D02*
X249663095Y-97712438D01*
X249663095Y-97712438D02*
X249758333Y-97664819D01*
X249758333Y-97664819D02*
X249996428Y-97664819D01*
X249996428Y-97664819D02*
X250091666Y-97712438D01*
X250091666Y-97712438D02*
X250139285Y-97760057D01*
X250139285Y-97760057D02*
X250186904Y-97855295D01*
X250186904Y-97855295D02*
X250186904Y-97950533D01*
X250186904Y-97950533D02*
X250139285Y-98093390D01*
X250139285Y-98093390D02*
X249567857Y-98664819D01*
X249567857Y-98664819D02*
X250186904Y-98664819D01*
X226750714Y-99514819D02*
X226750714Y-98514819D01*
X226750714Y-98514819D02*
X226988809Y-98514819D01*
X226988809Y-98514819D02*
X227131666Y-98562438D01*
X227131666Y-98562438D02*
X227226904Y-98657676D01*
X227226904Y-98657676D02*
X227274523Y-98752914D01*
X227274523Y-98752914D02*
X227322142Y-98943390D01*
X227322142Y-98943390D02*
X227322142Y-99086247D01*
X227322142Y-99086247D02*
X227274523Y-99276723D01*
X227274523Y-99276723D02*
X227226904Y-99371961D01*
X227226904Y-99371961D02*
X227131666Y-99467200D01*
X227131666Y-99467200D02*
X226988809Y-99514819D01*
X226988809Y-99514819D02*
X226750714Y-99514819D01*
X228274523Y-99514819D02*
X227703095Y-99514819D01*
X227988809Y-99514819D02*
X227988809Y-98514819D01*
X227988809Y-98514819D02*
X227893571Y-98657676D01*
X227893571Y-98657676D02*
X227798333Y-98752914D01*
X227798333Y-98752914D02*
X227703095Y-98800533D01*
X229226904Y-99514819D02*
X228655476Y-99514819D01*
X228941190Y-99514819D02*
X228941190Y-98514819D01*
X228941190Y-98514819D02*
X228845952Y-98657676D01*
X228845952Y-98657676D02*
X228750714Y-98752914D01*
X228750714Y-98752914D02*
X228655476Y-98800533D01*
X226115714Y-77504819D02*
X226115714Y-76504819D01*
X226115714Y-76504819D02*
X226353809Y-76504819D01*
X226353809Y-76504819D02*
X226496666Y-76552438D01*
X226496666Y-76552438D02*
X226591904Y-76647676D01*
X226591904Y-76647676D02*
X226639523Y-76742914D01*
X226639523Y-76742914D02*
X226687142Y-76933390D01*
X226687142Y-76933390D02*
X226687142Y-77076247D01*
X226687142Y-77076247D02*
X226639523Y-77266723D01*
X226639523Y-77266723D02*
X226591904Y-77361961D01*
X226591904Y-77361961D02*
X226496666Y-77457200D01*
X226496666Y-77457200D02*
X226353809Y-77504819D01*
X226353809Y-77504819D02*
X226115714Y-77504819D01*
X227639523Y-77504819D02*
X227068095Y-77504819D01*
X227353809Y-77504819D02*
X227353809Y-76504819D01*
X227353809Y-76504819D02*
X227258571Y-76647676D01*
X227258571Y-76647676D02*
X227163333Y-76742914D01*
X227163333Y-76742914D02*
X227068095Y-76790533D01*
X228258571Y-76504819D02*
X228353809Y-76504819D01*
X228353809Y-76504819D02*
X228449047Y-76552438D01*
X228449047Y-76552438D02*
X228496666Y-76600057D01*
X228496666Y-76600057D02*
X228544285Y-76695295D01*
X228544285Y-76695295D02*
X228591904Y-76885771D01*
X228591904Y-76885771D02*
X228591904Y-77123866D01*
X228591904Y-77123866D02*
X228544285Y-77314342D01*
X228544285Y-77314342D02*
X228496666Y-77409580D01*
X228496666Y-77409580D02*
X228449047Y-77457200D01*
X228449047Y-77457200D02*
X228353809Y-77504819D01*
X228353809Y-77504819D02*
X228258571Y-77504819D01*
X228258571Y-77504819D02*
X228163333Y-77457200D01*
X228163333Y-77457200D02*
X228115714Y-77409580D01*
X228115714Y-77409580D02*
X228068095Y-77314342D01*
X228068095Y-77314342D02*
X228020476Y-77123866D01*
X228020476Y-77123866D02*
X228020476Y-76885771D01*
X228020476Y-76885771D02*
X228068095Y-76695295D01*
X228068095Y-76695295D02*
X228115714Y-76600057D01*
X228115714Y-76600057D02*
X228163333Y-76552438D01*
X228163333Y-76552438D02*
X228258571Y-76504819D01*
X245641905Y-83004819D02*
X245641905Y-82004819D01*
X245641905Y-82004819D02*
X245880000Y-82004819D01*
X245880000Y-82004819D02*
X246022857Y-82052438D01*
X246022857Y-82052438D02*
X246118095Y-82147676D01*
X246118095Y-82147676D02*
X246165714Y-82242914D01*
X246165714Y-82242914D02*
X246213333Y-82433390D01*
X246213333Y-82433390D02*
X246213333Y-82576247D01*
X246213333Y-82576247D02*
X246165714Y-82766723D01*
X246165714Y-82766723D02*
X246118095Y-82861961D01*
X246118095Y-82861961D02*
X246022857Y-82957200D01*
X246022857Y-82957200D02*
X245880000Y-83004819D01*
X245880000Y-83004819D02*
X245641905Y-83004819D01*
X246689524Y-83004819D02*
X246880000Y-83004819D01*
X246880000Y-83004819D02*
X246975238Y-82957200D01*
X246975238Y-82957200D02*
X247022857Y-82909580D01*
X247022857Y-82909580D02*
X247118095Y-82766723D01*
X247118095Y-82766723D02*
X247165714Y-82576247D01*
X247165714Y-82576247D02*
X247165714Y-82195295D01*
X247165714Y-82195295D02*
X247118095Y-82100057D01*
X247118095Y-82100057D02*
X247070476Y-82052438D01*
X247070476Y-82052438D02*
X246975238Y-82004819D01*
X246975238Y-82004819D02*
X246784762Y-82004819D01*
X246784762Y-82004819D02*
X246689524Y-82052438D01*
X246689524Y-82052438D02*
X246641905Y-82100057D01*
X246641905Y-82100057D02*
X246594286Y-82195295D01*
X246594286Y-82195295D02*
X246594286Y-82433390D01*
X246594286Y-82433390D02*
X246641905Y-82528628D01*
X246641905Y-82528628D02*
X246689524Y-82576247D01*
X246689524Y-82576247D02*
X246784762Y-82623866D01*
X246784762Y-82623866D02*
X246975238Y-82623866D01*
X246975238Y-82623866D02*
X247070476Y-82576247D01*
X247070476Y-82576247D02*
X247118095Y-82528628D01*
X247118095Y-82528628D02*
X247165714Y-82433390D01*
X250023333Y-73099819D02*
X249690000Y-72623628D01*
X249451905Y-73099819D02*
X249451905Y-72099819D01*
X249451905Y-72099819D02*
X249832857Y-72099819D01*
X249832857Y-72099819D02*
X249928095Y-72147438D01*
X249928095Y-72147438D02*
X249975714Y-72195057D01*
X249975714Y-72195057D02*
X250023333Y-72290295D01*
X250023333Y-72290295D02*
X250023333Y-72433152D01*
X250023333Y-72433152D02*
X249975714Y-72528390D01*
X249975714Y-72528390D02*
X249928095Y-72576009D01*
X249928095Y-72576009D02*
X249832857Y-72623628D01*
X249832857Y-72623628D02*
X249451905Y-72623628D01*
X250356667Y-72099819D02*
X251023333Y-72099819D01*
X251023333Y-72099819D02*
X250594762Y-73099819D01*
X253228333Y-86781150D02*
X253180714Y-86828770D01*
X253180714Y-86828770D02*
X253037857Y-86876389D01*
X253037857Y-86876389D02*
X252942619Y-86876389D01*
X252942619Y-86876389D02*
X252799762Y-86828770D01*
X252799762Y-86828770D02*
X252704524Y-86733531D01*
X252704524Y-86733531D02*
X252656905Y-86638293D01*
X252656905Y-86638293D02*
X252609286Y-86447817D01*
X252609286Y-86447817D02*
X252609286Y-86304960D01*
X252609286Y-86304960D02*
X252656905Y-86114484D01*
X252656905Y-86114484D02*
X252704524Y-86019246D01*
X252704524Y-86019246D02*
X252799762Y-85924008D01*
X252799762Y-85924008D02*
X252942619Y-85876389D01*
X252942619Y-85876389D02*
X253037857Y-85876389D01*
X253037857Y-85876389D02*
X253180714Y-85924008D01*
X253180714Y-85924008D02*
X253228333Y-85971627D01*
X254133095Y-85876389D02*
X253656905Y-85876389D01*
X253656905Y-85876389D02*
X253609286Y-86352579D01*
X253609286Y-86352579D02*
X253656905Y-86304960D01*
X253656905Y-86304960D02*
X253752143Y-86257341D01*
X253752143Y-86257341D02*
X253990238Y-86257341D01*
X253990238Y-86257341D02*
X254085476Y-86304960D01*
X254085476Y-86304960D02*
X254133095Y-86352579D01*
X254133095Y-86352579D02*
X254180714Y-86447817D01*
X254180714Y-86447817D02*
X254180714Y-86685912D01*
X254180714Y-86685912D02*
X254133095Y-86781150D01*
X254133095Y-86781150D02*
X254085476Y-86828770D01*
X254085476Y-86828770D02*
X253990238Y-86876389D01*
X253990238Y-86876389D02*
X253752143Y-86876389D01*
X253752143Y-86876389D02*
X253656905Y-86828770D01*
X253656905Y-86828770D02*
X253609286Y-86781150D01*
X246848333Y-75639819D02*
X246515000Y-75163628D01*
X246276905Y-75639819D02*
X246276905Y-74639819D01*
X246276905Y-74639819D02*
X246657857Y-74639819D01*
X246657857Y-74639819D02*
X246753095Y-74687438D01*
X246753095Y-74687438D02*
X246800714Y-74735057D01*
X246800714Y-74735057D02*
X246848333Y-74830295D01*
X246848333Y-74830295D02*
X246848333Y-74973152D01*
X246848333Y-74973152D02*
X246800714Y-75068390D01*
X246800714Y-75068390D02*
X246753095Y-75116009D01*
X246753095Y-75116009D02*
X246657857Y-75163628D01*
X246657857Y-75163628D02*
X246276905Y-75163628D01*
X247419762Y-75068390D02*
X247324524Y-75020771D01*
X247324524Y-75020771D02*
X247276905Y-74973152D01*
X247276905Y-74973152D02*
X247229286Y-74877914D01*
X247229286Y-74877914D02*
X247229286Y-74830295D01*
X247229286Y-74830295D02*
X247276905Y-74735057D01*
X247276905Y-74735057D02*
X247324524Y-74687438D01*
X247324524Y-74687438D02*
X247419762Y-74639819D01*
X247419762Y-74639819D02*
X247610238Y-74639819D01*
X247610238Y-74639819D02*
X247705476Y-74687438D01*
X247705476Y-74687438D02*
X247753095Y-74735057D01*
X247753095Y-74735057D02*
X247800714Y-74830295D01*
X247800714Y-74830295D02*
X247800714Y-74877914D01*
X247800714Y-74877914D02*
X247753095Y-74973152D01*
X247753095Y-74973152D02*
X247705476Y-75020771D01*
X247705476Y-75020771D02*
X247610238Y-75068390D01*
X247610238Y-75068390D02*
X247419762Y-75068390D01*
X247419762Y-75068390D02*
X247324524Y-75116009D01*
X247324524Y-75116009D02*
X247276905Y-75163628D01*
X247276905Y-75163628D02*
X247229286Y-75258866D01*
X247229286Y-75258866D02*
X247229286Y-75449342D01*
X247229286Y-75449342D02*
X247276905Y-75544580D01*
X247276905Y-75544580D02*
X247324524Y-75592200D01*
X247324524Y-75592200D02*
X247419762Y-75639819D01*
X247419762Y-75639819D02*
X247610238Y-75639819D01*
X247610238Y-75639819D02*
X247705476Y-75592200D01*
X247705476Y-75592200D02*
X247753095Y-75544580D01*
X247753095Y-75544580D02*
X247800714Y-75449342D01*
X247800714Y-75449342D02*
X247800714Y-75258866D01*
X247800714Y-75258866D02*
X247753095Y-75163628D01*
X247753095Y-75163628D02*
X247705476Y-75116009D01*
X247705476Y-75116009D02*
X247610238Y-75068390D01*
X241499819Y-34456666D02*
X241023628Y-34789999D01*
X241499819Y-35028094D02*
X240499819Y-35028094D01*
X240499819Y-35028094D02*
X240499819Y-34647142D01*
X240499819Y-34647142D02*
X240547438Y-34551904D01*
X240547438Y-34551904D02*
X240595057Y-34504285D01*
X240595057Y-34504285D02*
X240690295Y-34456666D01*
X240690295Y-34456666D02*
X240833152Y-34456666D01*
X240833152Y-34456666D02*
X240928390Y-34504285D01*
X240928390Y-34504285D02*
X240976009Y-34551904D01*
X240976009Y-34551904D02*
X241023628Y-34647142D01*
X241023628Y-34647142D02*
X241023628Y-35028094D01*
X241499819Y-33504285D02*
X241499819Y-34075713D01*
X241499819Y-33789999D02*
X240499819Y-33789999D01*
X240499819Y-33789999D02*
X240642676Y-33885237D01*
X240642676Y-33885237D02*
X240737914Y-33980475D01*
X240737914Y-33980475D02*
X240785533Y-34075713D01*
X247576905Y-87196389D02*
X247576905Y-86196389D01*
X247576905Y-86196389D02*
X247815000Y-86196389D01*
X247815000Y-86196389D02*
X247957857Y-86244008D01*
X247957857Y-86244008D02*
X248053095Y-86339246D01*
X248053095Y-86339246D02*
X248100714Y-86434484D01*
X248100714Y-86434484D02*
X248148333Y-86624960D01*
X248148333Y-86624960D02*
X248148333Y-86767817D01*
X248148333Y-86767817D02*
X248100714Y-86958293D01*
X248100714Y-86958293D02*
X248053095Y-87053531D01*
X248053095Y-87053531D02*
X247957857Y-87148770D01*
X247957857Y-87148770D02*
X247815000Y-87196389D01*
X247815000Y-87196389D02*
X247576905Y-87196389D01*
X249005476Y-86529722D02*
X249005476Y-87196389D01*
X248767381Y-86148770D02*
X248529286Y-86863055D01*
X248529286Y-86863055D02*
X249148333Y-86863055D01*
X232402142Y-94434819D02*
X232068809Y-93958628D01*
X231830714Y-94434819D02*
X231830714Y-93434819D01*
X231830714Y-93434819D02*
X232211666Y-93434819D01*
X232211666Y-93434819D02*
X232306904Y-93482438D01*
X232306904Y-93482438D02*
X232354523Y-93530057D01*
X232354523Y-93530057D02*
X232402142Y-93625295D01*
X232402142Y-93625295D02*
X232402142Y-93768152D01*
X232402142Y-93768152D02*
X232354523Y-93863390D01*
X232354523Y-93863390D02*
X232306904Y-93911009D01*
X232306904Y-93911009D02*
X232211666Y-93958628D01*
X232211666Y-93958628D02*
X231830714Y-93958628D01*
X233354523Y-94434819D02*
X232783095Y-94434819D01*
X233068809Y-94434819D02*
X233068809Y-93434819D01*
X233068809Y-93434819D02*
X232973571Y-93577676D01*
X232973571Y-93577676D02*
X232878333Y-93672914D01*
X232878333Y-93672914D02*
X232783095Y-93720533D01*
X233830714Y-94434819D02*
X234021190Y-94434819D01*
X234021190Y-94434819D02*
X234116428Y-94387200D01*
X234116428Y-94387200D02*
X234164047Y-94339580D01*
X234164047Y-94339580D02*
X234259285Y-94196723D01*
X234259285Y-94196723D02*
X234306904Y-94006247D01*
X234306904Y-94006247D02*
X234306904Y-93625295D01*
X234306904Y-93625295D02*
X234259285Y-93530057D01*
X234259285Y-93530057D02*
X234211666Y-93482438D01*
X234211666Y-93482438D02*
X234116428Y-93434819D01*
X234116428Y-93434819D02*
X233925952Y-93434819D01*
X233925952Y-93434819D02*
X233830714Y-93482438D01*
X233830714Y-93482438D02*
X233783095Y-93530057D01*
X233783095Y-93530057D02*
X233735476Y-93625295D01*
X233735476Y-93625295D02*
X233735476Y-93863390D01*
X233735476Y-93863390D02*
X233783095Y-93958628D01*
X233783095Y-93958628D02*
X233830714Y-94006247D01*
X233830714Y-94006247D02*
X233925952Y-94053866D01*
X233925952Y-94053866D02*
X234116428Y-94053866D01*
X234116428Y-94053866D02*
X234211666Y-94006247D01*
X234211666Y-94006247D02*
X234259285Y-93958628D01*
X234259285Y-93958628D02*
X234306904Y-93863390D01*
X232941905Y-98149819D02*
X232941905Y-97149819D01*
X232941905Y-97149819D02*
X233180000Y-97149819D01*
X233180000Y-97149819D02*
X233322857Y-97197438D01*
X233322857Y-97197438D02*
X233418095Y-97292676D01*
X233418095Y-97292676D02*
X233465714Y-97387914D01*
X233465714Y-97387914D02*
X233513333Y-97578390D01*
X233513333Y-97578390D02*
X233513333Y-97721247D01*
X233513333Y-97721247D02*
X233465714Y-97911723D01*
X233465714Y-97911723D02*
X233418095Y-98006961D01*
X233418095Y-98006961D02*
X233322857Y-98102200D01*
X233322857Y-98102200D02*
X233180000Y-98149819D01*
X233180000Y-98149819D02*
X232941905Y-98149819D01*
X234370476Y-97149819D02*
X234180000Y-97149819D01*
X234180000Y-97149819D02*
X234084762Y-97197438D01*
X234084762Y-97197438D02*
X234037143Y-97245057D01*
X234037143Y-97245057D02*
X233941905Y-97387914D01*
X233941905Y-97387914D02*
X233894286Y-97578390D01*
X233894286Y-97578390D02*
X233894286Y-97959342D01*
X233894286Y-97959342D02*
X233941905Y-98054580D01*
X233941905Y-98054580D02*
X233989524Y-98102200D01*
X233989524Y-98102200D02*
X234084762Y-98149819D01*
X234084762Y-98149819D02*
X234275238Y-98149819D01*
X234275238Y-98149819D02*
X234370476Y-98102200D01*
X234370476Y-98102200D02*
X234418095Y-98054580D01*
X234418095Y-98054580D02*
X234465714Y-97959342D01*
X234465714Y-97959342D02*
X234465714Y-97721247D01*
X234465714Y-97721247D02*
X234418095Y-97626009D01*
X234418095Y-97626009D02*
X234370476Y-97578390D01*
X234370476Y-97578390D02*
X234275238Y-97530771D01*
X234275238Y-97530771D02*
X234084762Y-97530771D01*
X234084762Y-97530771D02*
X233989524Y-97578390D01*
X233989524Y-97578390D02*
X233941905Y-97626009D01*
X233941905Y-97626009D02*
X233894286Y-97721247D01*
X222718333Y-81115830D02*
X222670714Y-81163450D01*
X222670714Y-81163450D02*
X222527857Y-81211069D01*
X222527857Y-81211069D02*
X222432619Y-81211069D01*
X222432619Y-81211069D02*
X222289762Y-81163450D01*
X222289762Y-81163450D02*
X222194524Y-81068211D01*
X222194524Y-81068211D02*
X222146905Y-80972973D01*
X222146905Y-80972973D02*
X222099286Y-80782497D01*
X222099286Y-80782497D02*
X222099286Y-80639640D01*
X222099286Y-80639640D02*
X222146905Y-80449164D01*
X222146905Y-80449164D02*
X222194524Y-80353926D01*
X222194524Y-80353926D02*
X222289762Y-80258688D01*
X222289762Y-80258688D02*
X222432619Y-80211069D01*
X222432619Y-80211069D02*
X222527857Y-80211069D01*
X222527857Y-80211069D02*
X222670714Y-80258688D01*
X222670714Y-80258688D02*
X222718333Y-80306307D01*
X223575476Y-80544402D02*
X223575476Y-81211069D01*
X223337381Y-80163450D02*
X223099286Y-80877735D01*
X223099286Y-80877735D02*
X223718333Y-80877735D01*
X234148333Y-78689580D02*
X234100714Y-78737200D01*
X234100714Y-78737200D02*
X233957857Y-78784819D01*
X233957857Y-78784819D02*
X233862619Y-78784819D01*
X233862619Y-78784819D02*
X233719762Y-78737200D01*
X233719762Y-78737200D02*
X233624524Y-78641961D01*
X233624524Y-78641961D02*
X233576905Y-78546723D01*
X233576905Y-78546723D02*
X233529286Y-78356247D01*
X233529286Y-78356247D02*
X233529286Y-78213390D01*
X233529286Y-78213390D02*
X233576905Y-78022914D01*
X233576905Y-78022914D02*
X233624524Y-77927676D01*
X233624524Y-77927676D02*
X233719762Y-77832438D01*
X233719762Y-77832438D02*
X233862619Y-77784819D01*
X233862619Y-77784819D02*
X233957857Y-77784819D01*
X233957857Y-77784819D02*
X234100714Y-77832438D01*
X234100714Y-77832438D02*
X234148333Y-77880057D01*
X234529286Y-77880057D02*
X234576905Y-77832438D01*
X234576905Y-77832438D02*
X234672143Y-77784819D01*
X234672143Y-77784819D02*
X234910238Y-77784819D01*
X234910238Y-77784819D02*
X235005476Y-77832438D01*
X235005476Y-77832438D02*
X235053095Y-77880057D01*
X235053095Y-77880057D02*
X235100714Y-77975295D01*
X235100714Y-77975295D02*
X235100714Y-78070533D01*
X235100714Y-78070533D02*
X235053095Y-78213390D01*
X235053095Y-78213390D02*
X234481667Y-78784819D01*
X234481667Y-78784819D02*
X235100714Y-78784819D01*
X243026084Y-82971150D02*
X242978465Y-83018770D01*
X242978465Y-83018770D02*
X242835608Y-83066389D01*
X242835608Y-83066389D02*
X242740370Y-83066389D01*
X242740370Y-83066389D02*
X242597513Y-83018770D01*
X242597513Y-83018770D02*
X242502275Y-82923531D01*
X242502275Y-82923531D02*
X242454656Y-82828293D01*
X242454656Y-82828293D02*
X242407037Y-82637817D01*
X242407037Y-82637817D02*
X242407037Y-82494960D01*
X242407037Y-82494960D02*
X242454656Y-82304484D01*
X242454656Y-82304484D02*
X242502275Y-82209246D01*
X242502275Y-82209246D02*
X242597513Y-82114008D01*
X242597513Y-82114008D02*
X242740370Y-82066389D01*
X242740370Y-82066389D02*
X242835608Y-82066389D01*
X242835608Y-82066389D02*
X242978465Y-82114008D01*
X242978465Y-82114008D02*
X243026084Y-82161627D01*
X243359418Y-82066389D02*
X243978465Y-82066389D01*
X243978465Y-82066389D02*
X243645132Y-82447341D01*
X243645132Y-82447341D02*
X243787989Y-82447341D01*
X243787989Y-82447341D02*
X243883227Y-82494960D01*
X243883227Y-82494960D02*
X243930846Y-82542579D01*
X243930846Y-82542579D02*
X243978465Y-82637817D01*
X243978465Y-82637817D02*
X243978465Y-82875912D01*
X243978465Y-82875912D02*
X243930846Y-82971150D01*
X243930846Y-82971150D02*
X243883227Y-83018770D01*
X243883227Y-83018770D02*
X243787989Y-83066389D01*
X243787989Y-83066389D02*
X243502275Y-83066389D01*
X243502275Y-83066389D02*
X243407037Y-83018770D01*
X243407037Y-83018770D02*
X243359418Y-82971150D01*
X223782142Y-68654819D02*
X223448809Y-68178628D01*
X223210714Y-68654819D02*
X223210714Y-67654819D01*
X223210714Y-67654819D02*
X223591666Y-67654819D01*
X223591666Y-67654819D02*
X223686904Y-67702438D01*
X223686904Y-67702438D02*
X223734523Y-67750057D01*
X223734523Y-67750057D02*
X223782142Y-67845295D01*
X223782142Y-67845295D02*
X223782142Y-67988152D01*
X223782142Y-67988152D02*
X223734523Y-68083390D01*
X223734523Y-68083390D02*
X223686904Y-68131009D01*
X223686904Y-68131009D02*
X223591666Y-68178628D01*
X223591666Y-68178628D02*
X223210714Y-68178628D01*
X224734523Y-68654819D02*
X224163095Y-68654819D01*
X224448809Y-68654819D02*
X224448809Y-67654819D01*
X224448809Y-67654819D02*
X224353571Y-67797676D01*
X224353571Y-67797676D02*
X224258333Y-67892914D01*
X224258333Y-67892914D02*
X224163095Y-67940533D01*
X225686904Y-68654819D02*
X225115476Y-68654819D01*
X225401190Y-68654819D02*
X225401190Y-67654819D01*
X225401190Y-67654819D02*
X225305952Y-67797676D01*
X225305952Y-67797676D02*
X225210714Y-67892914D01*
X225210714Y-67892914D02*
X225115476Y-67940533D01*
X244549819Y-51442857D02*
X244073628Y-51776190D01*
X244549819Y-52014285D02*
X243549819Y-52014285D01*
X243549819Y-52014285D02*
X243549819Y-51633333D01*
X243549819Y-51633333D02*
X243597438Y-51538095D01*
X243597438Y-51538095D02*
X243645057Y-51490476D01*
X243645057Y-51490476D02*
X243740295Y-51442857D01*
X243740295Y-51442857D02*
X243883152Y-51442857D01*
X243883152Y-51442857D02*
X243978390Y-51490476D01*
X243978390Y-51490476D02*
X244026009Y-51538095D01*
X244026009Y-51538095D02*
X244073628Y-51633333D01*
X244073628Y-51633333D02*
X244073628Y-52014285D01*
X244549819Y-50490476D02*
X244549819Y-51061904D01*
X244549819Y-50776190D02*
X243549819Y-50776190D01*
X243549819Y-50776190D02*
X243692676Y-50871428D01*
X243692676Y-50871428D02*
X243787914Y-50966666D01*
X243787914Y-50966666D02*
X243835533Y-51061904D01*
X243883152Y-49633333D02*
X244549819Y-49633333D01*
X243502200Y-49871428D02*
X244216485Y-50109523D01*
X244216485Y-50109523D02*
X244216485Y-49490476D01*
X222242142Y-84356069D02*
X221908809Y-83879878D01*
X221670714Y-84356069D02*
X221670714Y-83356069D01*
X221670714Y-83356069D02*
X222051666Y-83356069D01*
X222051666Y-83356069D02*
X222146904Y-83403688D01*
X222146904Y-83403688D02*
X222194523Y-83451307D01*
X222194523Y-83451307D02*
X222242142Y-83546545D01*
X222242142Y-83546545D02*
X222242142Y-83689402D01*
X222242142Y-83689402D02*
X222194523Y-83784640D01*
X222194523Y-83784640D02*
X222146904Y-83832259D01*
X222146904Y-83832259D02*
X222051666Y-83879878D01*
X222051666Y-83879878D02*
X221670714Y-83879878D01*
X223194523Y-84356069D02*
X222623095Y-84356069D01*
X222908809Y-84356069D02*
X222908809Y-83356069D01*
X222908809Y-83356069D02*
X222813571Y-83498926D01*
X222813571Y-83498926D02*
X222718333Y-83594164D01*
X222718333Y-83594164D02*
X222623095Y-83641783D01*
X223527857Y-83356069D02*
X224194523Y-83356069D01*
X224194523Y-83356069D02*
X223765952Y-84356069D01*
X250023333Y-69669819D02*
X249690000Y-69193628D01*
X249451905Y-69669819D02*
X249451905Y-68669819D01*
X249451905Y-68669819D02*
X249832857Y-68669819D01*
X249832857Y-68669819D02*
X249928095Y-68717438D01*
X249928095Y-68717438D02*
X249975714Y-68765057D01*
X249975714Y-68765057D02*
X250023333Y-68860295D01*
X250023333Y-68860295D02*
X250023333Y-69003152D01*
X250023333Y-69003152D02*
X249975714Y-69098390D01*
X249975714Y-69098390D02*
X249928095Y-69146009D01*
X249928095Y-69146009D02*
X249832857Y-69193628D01*
X249832857Y-69193628D02*
X249451905Y-69193628D01*
X250880476Y-68669819D02*
X250690000Y-68669819D01*
X250690000Y-68669819D02*
X250594762Y-68717438D01*
X250594762Y-68717438D02*
X250547143Y-68765057D01*
X250547143Y-68765057D02*
X250451905Y-68907914D01*
X250451905Y-68907914D02*
X250404286Y-69098390D01*
X250404286Y-69098390D02*
X250404286Y-69479342D01*
X250404286Y-69479342D02*
X250451905Y-69574580D01*
X250451905Y-69574580D02*
X250499524Y-69622200D01*
X250499524Y-69622200D02*
X250594762Y-69669819D01*
X250594762Y-69669819D02*
X250785238Y-69669819D01*
X250785238Y-69669819D02*
X250880476Y-69622200D01*
X250880476Y-69622200D02*
X250928095Y-69574580D01*
X250928095Y-69574580D02*
X250975714Y-69479342D01*
X250975714Y-69479342D02*
X250975714Y-69241247D01*
X250975714Y-69241247D02*
X250928095Y-69146009D01*
X250928095Y-69146009D02*
X250880476Y-69098390D01*
X250880476Y-69098390D02*
X250785238Y-69050771D01*
X250785238Y-69050771D02*
X250594762Y-69050771D01*
X250594762Y-69050771D02*
X250499524Y-69098390D01*
X250499524Y-69098390D02*
X250451905Y-69146009D01*
X250451905Y-69146009D02*
X250404286Y-69241247D01*
X225298095Y-28029819D02*
X225298095Y-28839342D01*
X225298095Y-28839342D02*
X225345714Y-28934580D01*
X225345714Y-28934580D02*
X225393333Y-28982200D01*
X225393333Y-28982200D02*
X225488571Y-29029819D01*
X225488571Y-29029819D02*
X225679047Y-29029819D01*
X225679047Y-29029819D02*
X225774285Y-28982200D01*
X225774285Y-28982200D02*
X225821904Y-28934580D01*
X225821904Y-28934580D02*
X225869523Y-28839342D01*
X225869523Y-28839342D02*
X225869523Y-28029819D01*
X226869523Y-29029819D02*
X226298095Y-29029819D01*
X226583809Y-29029819D02*
X226583809Y-28029819D01*
X226583809Y-28029819D02*
X226488571Y-28172676D01*
X226488571Y-28172676D02*
X226393333Y-28267914D01*
X226393333Y-28267914D02*
X226298095Y-28315533D01*
X236238095Y-23584819D02*
X236238095Y-24394342D01*
X236238095Y-24394342D02*
X236285714Y-24489580D01*
X236285714Y-24489580D02*
X236333333Y-24537200D01*
X236333333Y-24537200D02*
X236428571Y-24584819D01*
X236428571Y-24584819D02*
X236619047Y-24584819D01*
X236619047Y-24584819D02*
X236714285Y-24537200D01*
X236714285Y-24537200D02*
X236761904Y-24489580D01*
X236761904Y-24489580D02*
X236809523Y-24394342D01*
X236809523Y-24394342D02*
X236809523Y-23584819D01*
X237238095Y-24537200D02*
X237380952Y-24584819D01*
X237380952Y-24584819D02*
X237619047Y-24584819D01*
X237619047Y-24584819D02*
X237714285Y-24537200D01*
X237714285Y-24537200D02*
X237761904Y-24489580D01*
X237761904Y-24489580D02*
X237809523Y-24394342D01*
X237809523Y-24394342D02*
X237809523Y-24299104D01*
X237809523Y-24299104D02*
X237761904Y-24203866D01*
X237761904Y-24203866D02*
X237714285Y-24156247D01*
X237714285Y-24156247D02*
X237619047Y-24108628D01*
X237619047Y-24108628D02*
X237428571Y-24061009D01*
X237428571Y-24061009D02*
X237333333Y-24013390D01*
X237333333Y-24013390D02*
X237285714Y-23965771D01*
X237285714Y-23965771D02*
X237238095Y-23870533D01*
X237238095Y-23870533D02*
X237238095Y-23775295D01*
X237238095Y-23775295D02*
X237285714Y-23680057D01*
X237285714Y-23680057D02*
X237333333Y-23632438D01*
X237333333Y-23632438D02*
X237428571Y-23584819D01*
X237428571Y-23584819D02*
X237666666Y-23584819D01*
X237666666Y-23584819D02*
X237809523Y-23632438D01*
X238571428Y-24061009D02*
X238714285Y-24108628D01*
X238714285Y-24108628D02*
X238761904Y-24156247D01*
X238761904Y-24156247D02*
X238809523Y-24251485D01*
X238809523Y-24251485D02*
X238809523Y-24394342D01*
X238809523Y-24394342D02*
X238761904Y-24489580D01*
X238761904Y-24489580D02*
X238714285Y-24537200D01*
X238714285Y-24537200D02*
X238619047Y-24584819D01*
X238619047Y-24584819D02*
X238238095Y-24584819D01*
X238238095Y-24584819D02*
X238238095Y-23584819D01*
X238238095Y-23584819D02*
X238571428Y-23584819D01*
X238571428Y-23584819D02*
X238666666Y-23632438D01*
X238666666Y-23632438D02*
X238714285Y-23680057D01*
X238714285Y-23680057D02*
X238761904Y-23775295D01*
X238761904Y-23775295D02*
X238761904Y-23870533D01*
X238761904Y-23870533D02*
X238714285Y-23965771D01*
X238714285Y-23965771D02*
X238666666Y-24013390D01*
X238666666Y-24013390D02*
X238571428Y-24061009D01*
X238571428Y-24061009D02*
X238238095Y-24061009D01*
X248382380Y-29664819D02*
X248049047Y-29188628D01*
X247810952Y-29664819D02*
X247810952Y-28664819D01*
X247810952Y-28664819D02*
X248191904Y-28664819D01*
X248191904Y-28664819D02*
X248287142Y-28712438D01*
X248287142Y-28712438D02*
X248334761Y-28760057D01*
X248334761Y-28760057D02*
X248382380Y-28855295D01*
X248382380Y-28855295D02*
X248382380Y-28998152D01*
X248382380Y-28998152D02*
X248334761Y-29093390D01*
X248334761Y-29093390D02*
X248287142Y-29141009D01*
X248287142Y-29141009D02*
X248191904Y-29188628D01*
X248191904Y-29188628D02*
X247810952Y-29188628D01*
X248763333Y-29617200D02*
X248906190Y-29664819D01*
X248906190Y-29664819D02*
X249144285Y-29664819D01*
X249144285Y-29664819D02*
X249239523Y-29617200D01*
X249239523Y-29617200D02*
X249287142Y-29569580D01*
X249287142Y-29569580D02*
X249334761Y-29474342D01*
X249334761Y-29474342D02*
X249334761Y-29379104D01*
X249334761Y-29379104D02*
X249287142Y-29283866D01*
X249287142Y-29283866D02*
X249239523Y-29236247D01*
X249239523Y-29236247D02*
X249144285Y-29188628D01*
X249144285Y-29188628D02*
X248953809Y-29141009D01*
X248953809Y-29141009D02*
X248858571Y-29093390D01*
X248858571Y-29093390D02*
X248810952Y-29045771D01*
X248810952Y-29045771D02*
X248763333Y-28950533D01*
X248763333Y-28950533D02*
X248763333Y-28855295D01*
X248763333Y-28855295D02*
X248810952Y-28760057D01*
X248810952Y-28760057D02*
X248858571Y-28712438D01*
X248858571Y-28712438D02*
X248953809Y-28664819D01*
X248953809Y-28664819D02*
X249191904Y-28664819D01*
X249191904Y-28664819D02*
X249334761Y-28712438D01*
X249620476Y-28664819D02*
X250191904Y-28664819D01*
X249906190Y-29664819D02*
X249906190Y-28664819D01*
X233244819Y-50172857D02*
X232768628Y-50506190D01*
X233244819Y-50744285D02*
X232244819Y-50744285D01*
X232244819Y-50744285D02*
X232244819Y-50363333D01*
X232244819Y-50363333D02*
X232292438Y-50268095D01*
X232292438Y-50268095D02*
X232340057Y-50220476D01*
X232340057Y-50220476D02*
X232435295Y-50172857D01*
X232435295Y-50172857D02*
X232578152Y-50172857D01*
X232578152Y-50172857D02*
X232673390Y-50220476D01*
X232673390Y-50220476D02*
X232721009Y-50268095D01*
X232721009Y-50268095D02*
X232768628Y-50363333D01*
X232768628Y-50363333D02*
X232768628Y-50744285D01*
X233244819Y-49220476D02*
X233244819Y-49791904D01*
X233244819Y-49506190D02*
X232244819Y-49506190D01*
X232244819Y-49506190D02*
X232387676Y-49601428D01*
X232387676Y-49601428D02*
X232482914Y-49696666D01*
X232482914Y-49696666D02*
X232530533Y-49791904D01*
X232244819Y-48887142D02*
X232244819Y-48268095D01*
X232244819Y-48268095D02*
X232625771Y-48601428D01*
X232625771Y-48601428D02*
X232625771Y-48458571D01*
X232625771Y-48458571D02*
X232673390Y-48363333D01*
X232673390Y-48363333D02*
X232721009Y-48315714D01*
X232721009Y-48315714D02*
X232816247Y-48268095D01*
X232816247Y-48268095D02*
X233054342Y-48268095D01*
X233054342Y-48268095D02*
X233149580Y-48315714D01*
X233149580Y-48315714D02*
X233197200Y-48363333D01*
X233197200Y-48363333D02*
X233244819Y-48458571D01*
X233244819Y-48458571D02*
X233244819Y-48744285D01*
X233244819Y-48744285D02*
X233197200Y-48839523D01*
X233197200Y-48839523D02*
X233149580Y-48887142D01*
X225806766Y-87255435D02*
X225806766Y-86255435D01*
X225806766Y-86255435D02*
X226044861Y-86255435D01*
X226044861Y-86255435D02*
X226187718Y-86303054D01*
X226187718Y-86303054D02*
X226282956Y-86398292D01*
X226282956Y-86398292D02*
X226330575Y-86493530D01*
X226330575Y-86493530D02*
X226378194Y-86684006D01*
X226378194Y-86684006D02*
X226378194Y-86826863D01*
X226378194Y-86826863D02*
X226330575Y-87017339D01*
X226330575Y-87017339D02*
X226282956Y-87112577D01*
X226282956Y-87112577D02*
X226187718Y-87207816D01*
X226187718Y-87207816D02*
X226044861Y-87255435D01*
X226044861Y-87255435D02*
X225806766Y-87255435D01*
X227282956Y-86255435D02*
X226806766Y-86255435D01*
X226806766Y-86255435D02*
X226759147Y-86731625D01*
X226759147Y-86731625D02*
X226806766Y-86684006D01*
X226806766Y-86684006D02*
X226902004Y-86636387D01*
X226902004Y-86636387D02*
X227140099Y-86636387D01*
X227140099Y-86636387D02*
X227235337Y-86684006D01*
X227235337Y-86684006D02*
X227282956Y-86731625D01*
X227282956Y-86731625D02*
X227330575Y-86826863D01*
X227330575Y-86826863D02*
X227330575Y-87064958D01*
X227330575Y-87064958D02*
X227282956Y-87160196D01*
X227282956Y-87160196D02*
X227235337Y-87207816D01*
X227235337Y-87207816D02*
X227140099Y-87255435D01*
X227140099Y-87255435D02*
X226902004Y-87255435D01*
X226902004Y-87255435D02*
X226806766Y-87207816D01*
X226806766Y-87207816D02*
X226759147Y-87160196D01*
X238656905Y-99514819D02*
X238656905Y-98514819D01*
X238656905Y-98514819D02*
X238895000Y-98514819D01*
X238895000Y-98514819D02*
X239037857Y-98562438D01*
X239037857Y-98562438D02*
X239133095Y-98657676D01*
X239133095Y-98657676D02*
X239180714Y-98752914D01*
X239180714Y-98752914D02*
X239228333Y-98943390D01*
X239228333Y-98943390D02*
X239228333Y-99086247D01*
X239228333Y-99086247D02*
X239180714Y-99276723D01*
X239180714Y-99276723D02*
X239133095Y-99371961D01*
X239133095Y-99371961D02*
X239037857Y-99467200D01*
X239037857Y-99467200D02*
X238895000Y-99514819D01*
X238895000Y-99514819D02*
X238656905Y-99514819D01*
X240180714Y-99514819D02*
X239609286Y-99514819D01*
X239895000Y-99514819D02*
X239895000Y-98514819D01*
X239895000Y-98514819D02*
X239799762Y-98657676D01*
X239799762Y-98657676D02*
X239704524Y-98752914D01*
X239704524Y-98752914D02*
X239609286Y-98800533D01*
X241499819Y-38901666D02*
X241023628Y-39234999D01*
X241499819Y-39473094D02*
X240499819Y-39473094D01*
X240499819Y-39473094D02*
X240499819Y-39092142D01*
X240499819Y-39092142D02*
X240547438Y-38996904D01*
X240547438Y-38996904D02*
X240595057Y-38949285D01*
X240595057Y-38949285D02*
X240690295Y-38901666D01*
X240690295Y-38901666D02*
X240833152Y-38901666D01*
X240833152Y-38901666D02*
X240928390Y-38949285D01*
X240928390Y-38949285D02*
X240976009Y-38996904D01*
X240976009Y-38996904D02*
X241023628Y-39092142D01*
X241023628Y-39092142D02*
X241023628Y-39473094D01*
X240595057Y-38520713D02*
X240547438Y-38473094D01*
X240547438Y-38473094D02*
X240499819Y-38377856D01*
X240499819Y-38377856D02*
X240499819Y-38139761D01*
X240499819Y-38139761D02*
X240547438Y-38044523D01*
X240547438Y-38044523D02*
X240595057Y-37996904D01*
X240595057Y-37996904D02*
X240690295Y-37949285D01*
X240690295Y-37949285D02*
X240785533Y-37949285D01*
X240785533Y-37949285D02*
X240928390Y-37996904D01*
X240928390Y-37996904D02*
X241499819Y-38568332D01*
X241499819Y-38568332D02*
X241499819Y-37949285D01*
X229944819Y-45727857D02*
X229468628Y-46061190D01*
X229944819Y-46299285D02*
X228944819Y-46299285D01*
X228944819Y-46299285D02*
X228944819Y-45918333D01*
X228944819Y-45918333D02*
X228992438Y-45823095D01*
X228992438Y-45823095D02*
X229040057Y-45775476D01*
X229040057Y-45775476D02*
X229135295Y-45727857D01*
X229135295Y-45727857D02*
X229278152Y-45727857D01*
X229278152Y-45727857D02*
X229373390Y-45775476D01*
X229373390Y-45775476D02*
X229421009Y-45823095D01*
X229421009Y-45823095D02*
X229468628Y-45918333D01*
X229468628Y-45918333D02*
X229468628Y-46299285D01*
X229944819Y-44775476D02*
X229944819Y-45346904D01*
X229944819Y-45061190D02*
X228944819Y-45061190D01*
X228944819Y-45061190D02*
X229087676Y-45156428D01*
X229087676Y-45156428D02*
X229182914Y-45251666D01*
X229182914Y-45251666D02*
X229230533Y-45346904D01*
X228944819Y-43870714D02*
X228944819Y-44346904D01*
X228944819Y-44346904D02*
X229421009Y-44394523D01*
X229421009Y-44394523D02*
X229373390Y-44346904D01*
X229373390Y-44346904D02*
X229325771Y-44251666D01*
X229325771Y-44251666D02*
X229325771Y-44013571D01*
X229325771Y-44013571D02*
X229373390Y-43918333D01*
X229373390Y-43918333D02*
X229421009Y-43870714D01*
X229421009Y-43870714D02*
X229516247Y-43823095D01*
X229516247Y-43823095D02*
X229754342Y-43823095D01*
X229754342Y-43823095D02*
X229849580Y-43870714D01*
X229849580Y-43870714D02*
X229897200Y-43918333D01*
X229897200Y-43918333D02*
X229944819Y-44013571D01*
X229944819Y-44013571D02*
X229944819Y-44251666D01*
X229944819Y-44251666D02*
X229897200Y-44346904D01*
X229897200Y-44346904D02*
X229849580Y-44394523D01*
X225806766Y-90240435D02*
X225806766Y-89240435D01*
X225806766Y-89240435D02*
X226044861Y-89240435D01*
X226044861Y-89240435D02*
X226187718Y-89288054D01*
X226187718Y-89288054D02*
X226282956Y-89383292D01*
X226282956Y-89383292D02*
X226330575Y-89478530D01*
X226330575Y-89478530D02*
X226378194Y-89669006D01*
X226378194Y-89669006D02*
X226378194Y-89811863D01*
X226378194Y-89811863D02*
X226330575Y-90002339D01*
X226330575Y-90002339D02*
X226282956Y-90097577D01*
X226282956Y-90097577D02*
X226187718Y-90192816D01*
X226187718Y-90192816D02*
X226044861Y-90240435D01*
X226044861Y-90240435D02*
X225806766Y-90240435D01*
X226711528Y-89240435D02*
X227330575Y-89240435D01*
X227330575Y-89240435D02*
X226997242Y-89621387D01*
X226997242Y-89621387D02*
X227140099Y-89621387D01*
X227140099Y-89621387D02*
X227235337Y-89669006D01*
X227235337Y-89669006D02*
X227282956Y-89716625D01*
X227282956Y-89716625D02*
X227330575Y-89811863D01*
X227330575Y-89811863D02*
X227330575Y-90049958D01*
X227330575Y-90049958D02*
X227282956Y-90145196D01*
X227282956Y-90145196D02*
X227235337Y-90192816D01*
X227235337Y-90192816D02*
X227140099Y-90240435D01*
X227140099Y-90240435D02*
X226854385Y-90240435D01*
X226854385Y-90240435D02*
X226759147Y-90192816D01*
X226759147Y-90192816D02*
X226711528Y-90145196D01*
X240498333Y-64844819D02*
X240165000Y-64368628D01*
X239926905Y-64844819D02*
X239926905Y-63844819D01*
X239926905Y-63844819D02*
X240307857Y-63844819D01*
X240307857Y-63844819D02*
X240403095Y-63892438D01*
X240403095Y-63892438D02*
X240450714Y-63940057D01*
X240450714Y-63940057D02*
X240498333Y-64035295D01*
X240498333Y-64035295D02*
X240498333Y-64178152D01*
X240498333Y-64178152D02*
X240450714Y-64273390D01*
X240450714Y-64273390D02*
X240403095Y-64321009D01*
X240403095Y-64321009D02*
X240307857Y-64368628D01*
X240307857Y-64368628D02*
X239926905Y-64368628D01*
X241355476Y-64178152D02*
X241355476Y-64844819D01*
X241117381Y-63797200D02*
X240879286Y-64511485D01*
X240879286Y-64511485D02*
X241498333Y-64511485D01*
X252722142Y-79449819D02*
X252388809Y-78973628D01*
X252150714Y-79449819D02*
X252150714Y-78449819D01*
X252150714Y-78449819D02*
X252531666Y-78449819D01*
X252531666Y-78449819D02*
X252626904Y-78497438D01*
X252626904Y-78497438D02*
X252674523Y-78545057D01*
X252674523Y-78545057D02*
X252722142Y-78640295D01*
X252722142Y-78640295D02*
X252722142Y-78783152D01*
X252722142Y-78783152D02*
X252674523Y-78878390D01*
X252674523Y-78878390D02*
X252626904Y-78926009D01*
X252626904Y-78926009D02*
X252531666Y-78973628D01*
X252531666Y-78973628D02*
X252150714Y-78973628D01*
X253674523Y-79449819D02*
X253103095Y-79449819D01*
X253388809Y-79449819D02*
X253388809Y-78449819D01*
X253388809Y-78449819D02*
X253293571Y-78592676D01*
X253293571Y-78592676D02*
X253198333Y-78687914D01*
X253198333Y-78687914D02*
X253103095Y-78735533D01*
X254245952Y-78878390D02*
X254150714Y-78830771D01*
X254150714Y-78830771D02*
X254103095Y-78783152D01*
X254103095Y-78783152D02*
X254055476Y-78687914D01*
X254055476Y-78687914D02*
X254055476Y-78640295D01*
X254055476Y-78640295D02*
X254103095Y-78545057D01*
X254103095Y-78545057D02*
X254150714Y-78497438D01*
X254150714Y-78497438D02*
X254245952Y-78449819D01*
X254245952Y-78449819D02*
X254436428Y-78449819D01*
X254436428Y-78449819D02*
X254531666Y-78497438D01*
X254531666Y-78497438D02*
X254579285Y-78545057D01*
X254579285Y-78545057D02*
X254626904Y-78640295D01*
X254626904Y-78640295D02*
X254626904Y-78687914D01*
X254626904Y-78687914D02*
X254579285Y-78783152D01*
X254579285Y-78783152D02*
X254531666Y-78830771D01*
X254531666Y-78830771D02*
X254436428Y-78878390D01*
X254436428Y-78878390D02*
X254245952Y-78878390D01*
X254245952Y-78878390D02*
X254150714Y-78926009D01*
X254150714Y-78926009D02*
X254103095Y-78973628D01*
X254103095Y-78973628D02*
X254055476Y-79068866D01*
X254055476Y-79068866D02*
X254055476Y-79259342D01*
X254055476Y-79259342D02*
X254103095Y-79354580D01*
X254103095Y-79354580D02*
X254150714Y-79402200D01*
X254150714Y-79402200D02*
X254245952Y-79449819D01*
X254245952Y-79449819D02*
X254436428Y-79449819D01*
X254436428Y-79449819D02*
X254531666Y-79402200D01*
X254531666Y-79402200D02*
X254579285Y-79354580D01*
X254579285Y-79354580D02*
X254626904Y-79259342D01*
X254626904Y-79259342D02*
X254626904Y-79068866D01*
X254626904Y-79068866D02*
X254579285Y-78973628D01*
X254579285Y-78973628D02*
X254531666Y-78926009D01*
X254531666Y-78926009D02*
X254436428Y-78878390D01*
X253198333Y-95449819D02*
X252865000Y-94973628D01*
X252626905Y-95449819D02*
X252626905Y-94449819D01*
X252626905Y-94449819D02*
X253007857Y-94449819D01*
X253007857Y-94449819D02*
X253103095Y-94497438D01*
X253103095Y-94497438D02*
X253150714Y-94545057D01*
X253150714Y-94545057D02*
X253198333Y-94640295D01*
X253198333Y-94640295D02*
X253198333Y-94783152D01*
X253198333Y-94783152D02*
X253150714Y-94878390D01*
X253150714Y-94878390D02*
X253103095Y-94926009D01*
X253103095Y-94926009D02*
X253007857Y-94973628D01*
X253007857Y-94973628D02*
X252626905Y-94973628D01*
X253674524Y-95449819D02*
X253865000Y-95449819D01*
X253865000Y-95449819D02*
X253960238Y-95402200D01*
X253960238Y-95402200D02*
X254007857Y-95354580D01*
X254007857Y-95354580D02*
X254103095Y-95211723D01*
X254103095Y-95211723D02*
X254150714Y-95021247D01*
X254150714Y-95021247D02*
X254150714Y-94640295D01*
X254150714Y-94640295D02*
X254103095Y-94545057D01*
X254103095Y-94545057D02*
X254055476Y-94497438D01*
X254055476Y-94497438D02*
X253960238Y-94449819D01*
X253960238Y-94449819D02*
X253769762Y-94449819D01*
X253769762Y-94449819D02*
X253674524Y-94497438D01*
X253674524Y-94497438D02*
X253626905Y-94545057D01*
X253626905Y-94545057D02*
X253579286Y-94640295D01*
X253579286Y-94640295D02*
X253579286Y-94878390D01*
X253579286Y-94878390D02*
X253626905Y-94973628D01*
X253626905Y-94973628D02*
X253674524Y-95021247D01*
X253674524Y-95021247D02*
X253769762Y-95068866D01*
X253769762Y-95068866D02*
X253960238Y-95068866D01*
X253960238Y-95068866D02*
X254055476Y-95021247D01*
X254055476Y-95021247D02*
X254103095Y-94973628D01*
X254103095Y-94973628D02*
X254150714Y-94878390D01*
X237624580Y-38901666D02*
X237672200Y-38949285D01*
X237672200Y-38949285D02*
X237719819Y-39092142D01*
X237719819Y-39092142D02*
X237719819Y-39187380D01*
X237719819Y-39187380D02*
X237672200Y-39330237D01*
X237672200Y-39330237D02*
X237576961Y-39425475D01*
X237576961Y-39425475D02*
X237481723Y-39473094D01*
X237481723Y-39473094D02*
X237291247Y-39520713D01*
X237291247Y-39520713D02*
X237148390Y-39520713D01*
X237148390Y-39520713D02*
X236957914Y-39473094D01*
X236957914Y-39473094D02*
X236862676Y-39425475D01*
X236862676Y-39425475D02*
X236767438Y-39330237D01*
X236767438Y-39330237D02*
X236719819Y-39187380D01*
X236719819Y-39187380D02*
X236719819Y-39092142D01*
X236719819Y-39092142D02*
X236767438Y-38949285D01*
X236767438Y-38949285D02*
X236815057Y-38901666D01*
X237719819Y-37949285D02*
X237719819Y-38520713D01*
X237719819Y-38234999D02*
X236719819Y-38234999D01*
X236719819Y-38234999D02*
X236862676Y-38330237D01*
X236862676Y-38330237D02*
X236957914Y-38425475D01*
X236957914Y-38425475D02*
X237005533Y-38520713D01*
X251482142Y-98151389D02*
X251148809Y-97675198D01*
X250910714Y-98151389D02*
X250910714Y-97151389D01*
X250910714Y-97151389D02*
X251291666Y-97151389D01*
X251291666Y-97151389D02*
X251386904Y-97199008D01*
X251386904Y-97199008D02*
X251434523Y-97246627D01*
X251434523Y-97246627D02*
X251482142Y-97341865D01*
X251482142Y-97341865D02*
X251482142Y-97484722D01*
X251482142Y-97484722D02*
X251434523Y-97579960D01*
X251434523Y-97579960D02*
X251386904Y-97627579D01*
X251386904Y-97627579D02*
X251291666Y-97675198D01*
X251291666Y-97675198D02*
X250910714Y-97675198D01*
X252434523Y-98151389D02*
X251863095Y-98151389D01*
X252148809Y-98151389D02*
X252148809Y-97151389D01*
X252148809Y-97151389D02*
X252053571Y-97294246D01*
X252053571Y-97294246D02*
X251958333Y-97389484D01*
X251958333Y-97389484D02*
X251863095Y-97437103D01*
X252815476Y-97246627D02*
X252863095Y-97199008D01*
X252863095Y-97199008D02*
X252958333Y-97151389D01*
X252958333Y-97151389D02*
X253196428Y-97151389D01*
X253196428Y-97151389D02*
X253291666Y-97199008D01*
X253291666Y-97199008D02*
X253339285Y-97246627D01*
X253339285Y-97246627D02*
X253386904Y-97341865D01*
X253386904Y-97341865D02*
X253386904Y-97437103D01*
X253386904Y-97437103D02*
X253339285Y-97579960D01*
X253339285Y-97579960D02*
X252767857Y-98151389D01*
X252767857Y-98151389D02*
X253386904Y-98151389D01*
X245944819Y-54617857D02*
X245468628Y-54951190D01*
X245944819Y-55189285D02*
X244944819Y-55189285D01*
X244944819Y-55189285D02*
X244944819Y-54808333D01*
X244944819Y-54808333D02*
X244992438Y-54713095D01*
X244992438Y-54713095D02*
X245040057Y-54665476D01*
X245040057Y-54665476D02*
X245135295Y-54617857D01*
X245135295Y-54617857D02*
X245278152Y-54617857D01*
X245278152Y-54617857D02*
X245373390Y-54665476D01*
X245373390Y-54665476D02*
X245421009Y-54713095D01*
X245421009Y-54713095D02*
X245468628Y-54808333D01*
X245468628Y-54808333D02*
X245468628Y-55189285D01*
X245944819Y-53665476D02*
X245944819Y-54236904D01*
X245944819Y-53951190D02*
X244944819Y-53951190D01*
X244944819Y-53951190D02*
X245087676Y-54046428D01*
X245087676Y-54046428D02*
X245182914Y-54141666D01*
X245182914Y-54141666D02*
X245230533Y-54236904D01*
X244944819Y-52808333D02*
X244944819Y-52998809D01*
X244944819Y-52998809D02*
X244992438Y-53094047D01*
X244992438Y-53094047D02*
X245040057Y-53141666D01*
X245040057Y-53141666D02*
X245182914Y-53236904D01*
X245182914Y-53236904D02*
X245373390Y-53284523D01*
X245373390Y-53284523D02*
X245754342Y-53284523D01*
X245754342Y-53284523D02*
X245849580Y-53236904D01*
X245849580Y-53236904D02*
X245897200Y-53189285D01*
X245897200Y-53189285D02*
X245944819Y-53094047D01*
X245944819Y-53094047D02*
X245944819Y-52903571D01*
X245944819Y-52903571D02*
X245897200Y-52808333D01*
X245897200Y-52808333D02*
X245849580Y-52760714D01*
X245849580Y-52760714D02*
X245754342Y-52713095D01*
X245754342Y-52713095D02*
X245516247Y-52713095D01*
X245516247Y-52713095D02*
X245421009Y-52760714D01*
X245421009Y-52760714D02*
X245373390Y-52808333D01*
X245373390Y-52808333D02*
X245325771Y-52903571D01*
X245325771Y-52903571D02*
X245325771Y-53094047D01*
X245325771Y-53094047D02*
X245373390Y-53189285D01*
X245373390Y-53189285D02*
X245421009Y-53236904D01*
X245421009Y-53236904D02*
X245516247Y-53284523D01*
X223416905Y-105864819D02*
X223416905Y-104864819D01*
X223416905Y-104864819D02*
X223655000Y-104864819D01*
X223655000Y-104864819D02*
X223797857Y-104912438D01*
X223797857Y-104912438D02*
X223893095Y-105007676D01*
X223893095Y-105007676D02*
X223940714Y-105102914D01*
X223940714Y-105102914D02*
X223988333Y-105293390D01*
X223988333Y-105293390D02*
X223988333Y-105436247D01*
X223988333Y-105436247D02*
X223940714Y-105626723D01*
X223940714Y-105626723D02*
X223893095Y-105721961D01*
X223893095Y-105721961D02*
X223797857Y-105817200D01*
X223797857Y-105817200D02*
X223655000Y-105864819D01*
X223655000Y-105864819D02*
X223416905Y-105864819D01*
X224559762Y-105293390D02*
X224464524Y-105245771D01*
X224464524Y-105245771D02*
X224416905Y-105198152D01*
X224416905Y-105198152D02*
X224369286Y-105102914D01*
X224369286Y-105102914D02*
X224369286Y-105055295D01*
X224369286Y-105055295D02*
X224416905Y-104960057D01*
X224416905Y-104960057D02*
X224464524Y-104912438D01*
X224464524Y-104912438D02*
X224559762Y-104864819D01*
X224559762Y-104864819D02*
X224750238Y-104864819D01*
X224750238Y-104864819D02*
X224845476Y-104912438D01*
X224845476Y-104912438D02*
X224893095Y-104960057D01*
X224893095Y-104960057D02*
X224940714Y-105055295D01*
X224940714Y-105055295D02*
X224940714Y-105102914D01*
X224940714Y-105102914D02*
X224893095Y-105198152D01*
X224893095Y-105198152D02*
X224845476Y-105245771D01*
X224845476Y-105245771D02*
X224750238Y-105293390D01*
X224750238Y-105293390D02*
X224559762Y-105293390D01*
X224559762Y-105293390D02*
X224464524Y-105341009D01*
X224464524Y-105341009D02*
X224416905Y-105388628D01*
X224416905Y-105388628D02*
X224369286Y-105483866D01*
X224369286Y-105483866D02*
X224369286Y-105674342D01*
X224369286Y-105674342D02*
X224416905Y-105769580D01*
X224416905Y-105769580D02*
X224464524Y-105817200D01*
X224464524Y-105817200D02*
X224559762Y-105864819D01*
X224559762Y-105864819D02*
X224750238Y-105864819D01*
X224750238Y-105864819D02*
X224845476Y-105817200D01*
X224845476Y-105817200D02*
X224893095Y-105769580D01*
X224893095Y-105769580D02*
X224940714Y-105674342D01*
X224940714Y-105674342D02*
X224940714Y-105483866D01*
X224940714Y-105483866D02*
X224893095Y-105388628D01*
X224893095Y-105388628D02*
X224845476Y-105341009D01*
X224845476Y-105341009D02*
X224750238Y-105293390D01*
X237323333Y-73099819D02*
X236990000Y-72623628D01*
X236751905Y-73099819D02*
X236751905Y-72099819D01*
X236751905Y-72099819D02*
X237132857Y-72099819D01*
X237132857Y-72099819D02*
X237228095Y-72147438D01*
X237228095Y-72147438D02*
X237275714Y-72195057D01*
X237275714Y-72195057D02*
X237323333Y-72290295D01*
X237323333Y-72290295D02*
X237323333Y-72433152D01*
X237323333Y-72433152D02*
X237275714Y-72528390D01*
X237275714Y-72528390D02*
X237228095Y-72576009D01*
X237228095Y-72576009D02*
X237132857Y-72623628D01*
X237132857Y-72623628D02*
X236751905Y-72623628D01*
X238228095Y-72099819D02*
X237751905Y-72099819D01*
X237751905Y-72099819D02*
X237704286Y-72576009D01*
X237704286Y-72576009D02*
X237751905Y-72528390D01*
X237751905Y-72528390D02*
X237847143Y-72480771D01*
X237847143Y-72480771D02*
X238085238Y-72480771D01*
X238085238Y-72480771D02*
X238180476Y-72528390D01*
X238180476Y-72528390D02*
X238228095Y-72576009D01*
X238228095Y-72576009D02*
X238275714Y-72671247D01*
X238275714Y-72671247D02*
X238275714Y-72909342D01*
X238275714Y-72909342D02*
X238228095Y-73004580D01*
X238228095Y-73004580D02*
X238180476Y-73052200D01*
X238180476Y-73052200D02*
X238085238Y-73099819D01*
X238085238Y-73099819D02*
X237847143Y-73099819D01*
X237847143Y-73099819D02*
X237751905Y-73052200D01*
X237751905Y-73052200D02*
X237704286Y-73004580D01*
X234148333Y-75639819D02*
X233815000Y-75163628D01*
X233576905Y-75639819D02*
X233576905Y-74639819D01*
X233576905Y-74639819D02*
X233957857Y-74639819D01*
X233957857Y-74639819D02*
X234053095Y-74687438D01*
X234053095Y-74687438D02*
X234100714Y-74735057D01*
X234100714Y-74735057D02*
X234148333Y-74830295D01*
X234148333Y-74830295D02*
X234148333Y-74973152D01*
X234148333Y-74973152D02*
X234100714Y-75068390D01*
X234100714Y-75068390D02*
X234053095Y-75116009D01*
X234053095Y-75116009D02*
X233957857Y-75163628D01*
X233957857Y-75163628D02*
X233576905Y-75163628D01*
X234481667Y-74639819D02*
X235100714Y-74639819D01*
X235100714Y-74639819D02*
X234767381Y-75020771D01*
X234767381Y-75020771D02*
X234910238Y-75020771D01*
X234910238Y-75020771D02*
X235005476Y-75068390D01*
X235005476Y-75068390D02*
X235053095Y-75116009D01*
X235053095Y-75116009D02*
X235100714Y-75211247D01*
X235100714Y-75211247D02*
X235100714Y-75449342D01*
X235100714Y-75449342D02*
X235053095Y-75544580D01*
X235053095Y-75544580D02*
X235005476Y-75592200D01*
X235005476Y-75592200D02*
X234910238Y-75639819D01*
X234910238Y-75639819D02*
X234624524Y-75639819D01*
X234624524Y-75639819D02*
X234529286Y-75592200D01*
X234529286Y-75592200D02*
X234481667Y-75544580D01*
X251991905Y-107134819D02*
X251991905Y-106134819D01*
X251991905Y-106134819D02*
X252230000Y-106134819D01*
X252230000Y-106134819D02*
X252372857Y-106182438D01*
X252372857Y-106182438D02*
X252468095Y-106277676D01*
X252468095Y-106277676D02*
X252515714Y-106372914D01*
X252515714Y-106372914D02*
X252563333Y-106563390D01*
X252563333Y-106563390D02*
X252563333Y-106706247D01*
X252563333Y-106706247D02*
X252515714Y-106896723D01*
X252515714Y-106896723D02*
X252468095Y-106991961D01*
X252468095Y-106991961D02*
X252372857Y-107087200D01*
X252372857Y-107087200D02*
X252230000Y-107134819D01*
X252230000Y-107134819D02*
X251991905Y-107134819D01*
X252944286Y-106230057D02*
X252991905Y-106182438D01*
X252991905Y-106182438D02*
X253087143Y-106134819D01*
X253087143Y-106134819D02*
X253325238Y-106134819D01*
X253325238Y-106134819D02*
X253420476Y-106182438D01*
X253420476Y-106182438D02*
X253468095Y-106230057D01*
X253468095Y-106230057D02*
X253515714Y-106325295D01*
X253515714Y-106325295D02*
X253515714Y-106420533D01*
X253515714Y-106420533D02*
X253468095Y-106563390D01*
X253468095Y-106563390D02*
X252896667Y-107134819D01*
X252896667Y-107134819D02*
X253515714Y-107134819D01*
D12*
X246590000Y-92726570D02*
X250600000Y-92726570D01*
X246590000Y-90726570D02*
X250600000Y-90726570D01*
X246590000Y-90726570D02*
X246590000Y-92726570D01*
X237490000Y-52060000D02*
X235540000Y-52060000D01*
X237490000Y-43190000D02*
X235540000Y-43190000D01*
X237490000Y-52060000D02*
X240940000Y-52060000D01*
X237490000Y-43190000D02*
X239440000Y-43190000D01*
X243578748Y-46890000D02*
X244101252Y-46890000D01*
X243578748Y-48360000D02*
X244101252Y-48360000D01*
X242977936Y-94515000D02*
X243432064Y-94515000D01*
X242977936Y-95985000D02*
X243432064Y-95985000D01*
X222657936Y-95150000D02*
X223112064Y-95150000D01*
X222657936Y-96620000D02*
X223112064Y-96620000D01*
X222657936Y-76100000D02*
X223112064Y-76100000D01*
X222657936Y-77570000D02*
X223112064Y-77570000D01*
X244247936Y-79910000D02*
X244702064Y-79910000D01*
X244247936Y-81380000D02*
X244702064Y-81380000D01*
X247252666Y-96328608D02*
G75*
G03*
X250484999Y-96485515I1672334J1078608D01*
G01*
X249965960Y-94170001D02*
G75*
G03*
X247883871Y-94170164I-1040960J-1079999D01*
G01*
X250484999Y-94014485D02*
G75*
G03*
X247252666Y-94171392I-1559999J-1235515D01*
G01*
X247883871Y-96329836D02*
G75*
G03*
X249965960Y-96329999I1041129J1079836D01*
G01*
X250485000Y-94170000D02*
X250485000Y-94014000D01*
X250485000Y-96486000D02*
X250485000Y-96330000D01*
X226400000Y-94649000D02*
X226400000Y-94805000D01*
X226400000Y-96965000D02*
X226400000Y-97121000D01*
X229001129Y-94805164D02*
G75*
G03*
X226919040Y-94805001I-1041129J-1079836D01*
G01*
X226400001Y-97120515D02*
G75*
G03*
X229632334Y-96963608I1559999J1235515D01*
G01*
X226919040Y-96964999D02*
G75*
G03*
X229001129Y-96964836I1040960J1079999D01*
G01*
X229632334Y-94806392D02*
G75*
G03*
X226400001Y-94649485I-1672334J-1078608D01*
G01*
X225770000Y-78774000D02*
X225770000Y-78930000D01*
X225770000Y-81090000D02*
X225770000Y-81246000D01*
X228371129Y-78930164D02*
G75*
G03*
X226289040Y-78930001I-1041129J-1079836D01*
G01*
X225770001Y-81245515D02*
G75*
G03*
X229002334Y-81088608I1559999J1235515D01*
G01*
X226289040Y-81089999D02*
G75*
G03*
X228371129Y-81089836I1040960J1079999D01*
G01*
X229002334Y-78931392D02*
G75*
G03*
X225770001Y-78774485I-1672334J-1078608D01*
G01*
X247355000Y-79409000D02*
X247355000Y-79565000D01*
X247355000Y-81725000D02*
X247355000Y-81881000D01*
X249956129Y-79565164D02*
G75*
G03*
X247874040Y-79565001I-1041129J-1079836D01*
G01*
X247355001Y-81880515D02*
G75*
G03*
X250587334Y-81723608I1559999J1235515D01*
G01*
X247874040Y-81724999D02*
G75*
G03*
X249956129Y-81724836I1040960J1079999D01*
G01*
X250587334Y-79566392D02*
G75*
G03*
X247355001Y-79409485I-1672334J-1078608D01*
G01*
X249962936Y-73560000D02*
X250417064Y-73560000D01*
X249962936Y-75030000D02*
X250417064Y-75030000D01*
X253656252Y-84006570D02*
X253133748Y-84006570D01*
X253656252Y-85476570D02*
X253133748Y-85476570D01*
X248057936Y-76100000D02*
X248512064Y-76100000D01*
X248057936Y-77570000D02*
X248512064Y-77570000D01*
X240130000Y-34062936D02*
X240130000Y-34517064D01*
X238660000Y-34062936D02*
X238660000Y-34517064D01*
X250675000Y-83741570D02*
X246665000Y-83741570D01*
X250675000Y-85741570D02*
X246665000Y-85741570D01*
X250675000Y-85741570D02*
X250675000Y-83741570D01*
X233272064Y-94515000D02*
X232817936Y-94515000D01*
X233272064Y-95985000D02*
X232817936Y-95985000D01*
X231320000Y-100695000D02*
X235330000Y-100695000D01*
X231320000Y-98695000D02*
X235330000Y-98695000D01*
X231320000Y-98695000D02*
X231320000Y-100695000D01*
X223146252Y-79811250D02*
X222623748Y-79811250D01*
X223146252Y-78341250D02*
X222623748Y-78341250D01*
X234053748Y-79275000D02*
X234576252Y-79275000D01*
X234053748Y-80745000D02*
X234576252Y-80745000D01*
X240291252Y-79275000D02*
X239768748Y-79275000D01*
X240291252Y-80745000D02*
X239768748Y-80745000D01*
X224197936Y-69115000D02*
X224652064Y-69115000D01*
X224197936Y-70585000D02*
X224652064Y-70585000D01*
X245010000Y-51027064D02*
X245010000Y-50572936D01*
X246480000Y-51027064D02*
X246480000Y-50572936D01*
X223112064Y-82986250D02*
X222657936Y-82986250D01*
X223112064Y-81516250D02*
X222657936Y-81516250D01*
X250417064Y-71855000D02*
X249962936Y-71855000D01*
X250417064Y-70385000D02*
X249962936Y-70385000D01*
X252740000Y-60960000D02*
X252740000Y-31750000D01*
X252740000Y-31750000D02*
X250200000Y-31750000D01*
X250200000Y-63500000D02*
X252740000Y-60960000D01*
X250200000Y-63500000D02*
X248930000Y-63500000D01*
X250200000Y-31750000D02*
X250200000Y-26670000D01*
X250200000Y-26670000D02*
X222260000Y-26670000D01*
X242580000Y-29210000D02*
X232420000Y-29210000D01*
X242580000Y-26670000D02*
X242580000Y-29210000D01*
X242580000Y-26670000D02*
X242580000Y-20320000D01*
X242580000Y-20320000D02*
X232420000Y-20320000D01*
X232420000Y-29210000D02*
X232420000Y-26670000D01*
X232420000Y-20320000D02*
X232420000Y-26670000D01*
X224800000Y-63500000D02*
X248930000Y-63500000D01*
X224800000Y-63500000D02*
X222260000Y-60960000D01*
X222260000Y-60960000D02*
X222260000Y-26670000D01*
D13*
X251470000Y-30480000D02*
X250200000Y-30480000D01*
X250200000Y-27940000D01*
X251470000Y-27940000D01*
X251470000Y-30480000D01*
G36*
X251470000Y-30480000D02*
G01*
X250200000Y-30480000D01*
X250200000Y-27940000D01*
X251470000Y-27940000D01*
X251470000Y-30480000D01*
G37*
D12*
X231875000Y-49302936D02*
X231875000Y-49757064D01*
X230405000Y-49302936D02*
X230405000Y-49757064D01*
X228904861Y-83800616D02*
X224894861Y-83800616D01*
X228904861Y-85800616D02*
X224894861Y-85800616D01*
X228904861Y-85800616D02*
X228904861Y-83800616D01*
X240875000Y-99711570D02*
X244885000Y-99711570D01*
X240875000Y-97711570D02*
X244885000Y-97711570D01*
X240875000Y-97711570D02*
X240875000Y-99711570D01*
X240130000Y-38507936D02*
X240130000Y-38962064D01*
X238660000Y-38507936D02*
X238660000Y-38962064D01*
X230405000Y-45312064D02*
X230405000Y-44857936D01*
X231875000Y-45312064D02*
X231875000Y-44857936D01*
X224184861Y-90785616D02*
X224184861Y-92785616D01*
X224184861Y-90785616D02*
X228194861Y-90785616D01*
X224184861Y-92785616D02*
X228194861Y-92785616D01*
X240437936Y-65305000D02*
X240892064Y-65305000D01*
X240437936Y-66775000D02*
X240892064Y-66775000D01*
X253137936Y-79910000D02*
X253592064Y-79910000D01*
X253137936Y-81380000D02*
X253592064Y-81380000D01*
X253592064Y-92610000D02*
X253137936Y-92610000D01*
X253592064Y-94080000D02*
X253137936Y-94080000D01*
X236320000Y-38473748D02*
X236320000Y-38996252D01*
X234850000Y-38473748D02*
X234850000Y-38996252D01*
X251897936Y-100081570D02*
X252352064Y-100081570D01*
X251897936Y-98611570D02*
X252352064Y-98611570D01*
X244575000Y-53747936D02*
X244575000Y-54202064D01*
X243105000Y-53747936D02*
X243105000Y-54202064D01*
X228904861Y-106025616D02*
X224894861Y-106025616D01*
X228904861Y-108025616D02*
X224894861Y-108025616D01*
X228904861Y-108025616D02*
X228904861Y-106025616D01*
X237262936Y-73560000D02*
X237717064Y-73560000D01*
X237262936Y-75030000D02*
X237717064Y-75030000D01*
X234087936Y-76100000D02*
X234542064Y-76100000D01*
X234087936Y-77570000D02*
X234542064Y-77570000D01*
X251280000Y-105680000D02*
X247270000Y-105680000D01*
X251280000Y-107680000D02*
X247270000Y-107680000D01*
X251280000Y-107680000D02*
X251280000Y-105680000D01*
%LPC*%
D14*
X250600000Y-91726570D03*
X247300000Y-91726570D03*
D15*
X239965000Y-51435000D03*
X239965000Y-50165000D03*
X239965000Y-48895000D03*
X239965000Y-47625000D03*
X239965000Y-46355000D03*
X239965000Y-45085000D03*
X239965000Y-43815000D03*
X235015000Y-43815000D03*
X235015000Y-45085000D03*
X235015000Y-46355000D03*
X235015000Y-47625000D03*
X235015000Y-48895000D03*
X235015000Y-50165000D03*
X235015000Y-51435000D03*
D16*
X242802500Y-47625000D03*
X244877500Y-47625000D03*
D17*
X242205000Y-95250000D03*
X244205000Y-95250000D03*
X221885000Y-95885000D03*
X223885000Y-95885000D03*
X221885000Y-76835000D03*
X223885000Y-76835000D03*
X243475000Y-80645000D03*
X245475000Y-80645000D03*
D18*
X247655000Y-95250000D03*
D19*
X250195000Y-95250000D03*
X226690000Y-95885000D03*
D18*
X229230000Y-95885000D03*
D19*
X226060000Y-80010000D03*
D18*
X228600000Y-80010000D03*
D19*
X247645000Y-80645000D03*
D18*
X250185000Y-80645000D03*
D17*
X249190000Y-74295000D03*
X251190000Y-74295000D03*
D20*
X252357500Y-84741570D03*
X254432500Y-84741570D03*
D17*
X247285000Y-76835000D03*
X249285000Y-76835000D03*
D21*
X239395000Y-33290000D03*
X239395000Y-35290000D03*
D22*
X246665000Y-84741570D03*
X249965000Y-84741570D03*
D23*
X232045000Y-95250000D03*
X234045000Y-95250000D03*
D14*
X235330000Y-99695000D03*
X232030000Y-99695000D03*
D20*
X223922500Y-79076250D03*
X221847500Y-79076250D03*
D16*
X233277500Y-80010000D03*
X235352500Y-80010000D03*
D20*
X238992500Y-80010000D03*
X241067500Y-80010000D03*
D17*
X223425000Y-69850000D03*
X225425000Y-69850000D03*
D24*
X245745000Y-51800000D03*
X245745000Y-49800000D03*
D23*
X223885000Y-82251250D03*
X221885000Y-82251250D03*
X251190000Y-71120000D03*
X249190000Y-71120000D03*
D25*
X251470000Y-55880000D03*
X248930000Y-55880000D03*
X251470000Y-53340000D03*
X248930000Y-53340000D03*
X251470000Y-50800000D03*
X248930000Y-50800000D03*
X251470000Y-48260000D03*
X248930000Y-48260000D03*
X251470000Y-45720000D03*
X248930000Y-45720000D03*
X251470000Y-43180000D03*
X248930000Y-43180000D03*
X251470000Y-40640000D03*
X248930000Y-40640000D03*
X251470000Y-38100000D03*
X248930000Y-38100000D03*
X251470000Y-35560000D03*
X248930000Y-35560000D03*
X251470000Y-33020000D03*
X248930000Y-33020000D03*
X226070000Y-55880000D03*
X223530000Y-55880000D03*
X226070000Y-53340000D03*
X223530000Y-53340000D03*
X226070000Y-50800000D03*
X223530000Y-50800000D03*
X226070000Y-48260000D03*
X223530000Y-48260000D03*
X226070000Y-45720000D03*
X223530000Y-45720000D03*
X226070000Y-43180000D03*
X223530000Y-43180000D03*
X226070000Y-40640000D03*
X223530000Y-40640000D03*
X226070000Y-38100000D03*
X223530000Y-38100000D03*
X226070000Y-35560000D03*
X223530000Y-35560000D03*
X226070000Y-33020000D03*
X223530000Y-33020000D03*
D21*
X231140000Y-48530000D03*
X231140000Y-50530000D03*
D22*
X224894861Y-84800616D03*
X228194861Y-84800616D03*
D14*
X244885000Y-98711570D03*
X241585000Y-98711570D03*
D21*
X239395000Y-37735000D03*
X239395000Y-39735000D03*
D24*
X231140000Y-46085000D03*
X231140000Y-44085000D03*
D14*
X224894861Y-91785616D03*
X228194861Y-91785616D03*
D17*
X239665000Y-66040000D03*
X241665000Y-66040000D03*
X252365000Y-80645000D03*
X254365000Y-80645000D03*
D23*
X252365000Y-93345000D03*
X254365000Y-93345000D03*
D26*
X235585000Y-37697500D03*
X235585000Y-39772500D03*
D17*
X253125000Y-99346570D03*
X251125000Y-99346570D03*
D21*
X243840000Y-52975000D03*
X243840000Y-54975000D03*
D22*
X224894861Y-107025616D03*
X228194861Y-107025616D03*
D17*
X236490000Y-74295000D03*
X238490000Y-74295000D03*
X233315000Y-76835000D03*
X235315000Y-76835000D03*
D22*
X247270000Y-106680000D03*
X250570000Y-106680000D03*
D27*
X230479861Y-87980616D03*
X222179861Y-87980616D03*
D28*
X233579861Y-87980616D03*
D29*
X226675000Y-73100000D03*
X226675000Y-66600000D03*
X222175000Y-73100000D03*
X222175000Y-66600000D03*
D30*
X243165000Y-76910000D03*
D29*
X238165000Y-76910000D03*
X240665000Y-76910000D03*
D31*
X235065000Y-69410000D03*
X246265000Y-69410000D03*
D29*
X238165000Y-62410000D03*
X243165000Y-62410000D03*
D27*
X245670000Y-87921570D03*
X253970000Y-87921570D03*
D28*
X242570000Y-87921570D03*
D27*
X245670000Y-102921570D03*
D28*
X242570000Y-102921570D03*
D27*
X253970000Y-102921570D03*
D32*
X251968000Y-59179000D03*
X251968000Y-29715000D03*
X223012000Y-59179000D03*
X223012000Y-29715000D03*
D33*
X246380000Y-29715000D03*
D34*
X243840000Y-29715000D03*
X241300000Y-29715000D03*
X238760000Y-29715000D03*
X236220000Y-29715000D03*
X233680000Y-29715000D03*
X231140000Y-29715000D03*
X228600000Y-29715000D03*
D27*
X230479861Y-102980616D03*
X222179861Y-102980616D03*
D28*
X233579861Y-102980616D03*
%LPD*%
M02*
