G04 #@! TF.GenerationSoftware,KiCad,Pcbnew,7.0.5-0*
G04 #@! TF.CreationDate,2024-02-27T22:34:33-05:00*
G04 #@! TF.ProjectId,Grand_central_pcb_simple,4772616e-645f-4636-956e-7472616c5f70,rev?*
G04 #@! TF.SameCoordinates,Original*
G04 #@! TF.FileFunction,Paste,Bot*
G04 #@! TF.FilePolarity,Positive*
%FSLAX46Y46*%
G04 Gerber Fmt 4.6, Leading zero omitted, Abs format (unit mm)*
G04 Created by KiCad (PCBNEW 7.0.5-0) date 2024-02-27 22:34:33*
%MOMM*%
%LPD*%
G01*
G04 APERTURE LIST*
%ADD10C,0.300000*%
G04 APERTURE END LIST*
D10*
X122474510Y-164029171D02*
X122474510Y-165529171D01*
X122474510Y-165529171D02*
X122974510Y-164457742D01*
X122974510Y-164457742D02*
X123474510Y-165529171D01*
X123474510Y-165529171D02*
X123474510Y-164029171D01*
X124188796Y-164029171D02*
X124188796Y-165529171D01*
X124903082Y-164029171D02*
X124903082Y-165529171D01*
X124903082Y-165529171D02*
X125260225Y-165529171D01*
X125260225Y-165529171D02*
X125474511Y-165457742D01*
X125474511Y-165457742D02*
X125617368Y-165314885D01*
X125617368Y-165314885D02*
X125688797Y-165172028D01*
X125688797Y-165172028D02*
X125760225Y-164886314D01*
X125760225Y-164886314D02*
X125760225Y-164672028D01*
X125760225Y-164672028D02*
X125688797Y-164386314D01*
X125688797Y-164386314D02*
X125617368Y-164243457D01*
X125617368Y-164243457D02*
X125474511Y-164100600D01*
X125474511Y-164100600D02*
X125260225Y-164029171D01*
X125260225Y-164029171D02*
X124903082Y-164029171D01*
X126403082Y-164029171D02*
X126403082Y-165529171D01*
X128545940Y-165529171D02*
X128831654Y-165529171D01*
X128831654Y-165529171D02*
X128974511Y-165457742D01*
X128974511Y-165457742D02*
X129117368Y-165314885D01*
X129117368Y-165314885D02*
X129188797Y-165029171D01*
X129188797Y-165029171D02*
X129188797Y-164529171D01*
X129188797Y-164529171D02*
X129117368Y-164243457D01*
X129117368Y-164243457D02*
X128974511Y-164100600D01*
X128974511Y-164100600D02*
X128831654Y-164029171D01*
X128831654Y-164029171D02*
X128545940Y-164029171D01*
X128545940Y-164029171D02*
X128403083Y-164100600D01*
X128403083Y-164100600D02*
X128260225Y-164243457D01*
X128260225Y-164243457D02*
X128188797Y-164529171D01*
X128188797Y-164529171D02*
X128188797Y-165029171D01*
X128188797Y-165029171D02*
X128260225Y-165314885D01*
X128260225Y-165314885D02*
X128403083Y-165457742D01*
X128403083Y-165457742D02*
X128545940Y-165529171D01*
X129831654Y-165529171D02*
X129831654Y-164314885D01*
X129831654Y-164314885D02*
X129903083Y-164172028D01*
X129903083Y-164172028D02*
X129974512Y-164100600D01*
X129974512Y-164100600D02*
X130117369Y-164029171D01*
X130117369Y-164029171D02*
X130403083Y-164029171D01*
X130403083Y-164029171D02*
X130545940Y-164100600D01*
X130545940Y-164100600D02*
X130617369Y-164172028D01*
X130617369Y-164172028D02*
X130688797Y-164314885D01*
X130688797Y-164314885D02*
X130688797Y-165529171D01*
X131188798Y-165529171D02*
X132045941Y-165529171D01*
X131617369Y-164029171D02*
X131617369Y-165529171D01*
X105964510Y-164029171D02*
X105964510Y-165529171D01*
X105964510Y-165529171D02*
X106464510Y-164457742D01*
X106464510Y-164457742D02*
X106964510Y-165529171D01*
X106964510Y-165529171D02*
X106964510Y-164029171D01*
X107678796Y-164029171D02*
X107678796Y-165529171D01*
X108393082Y-164029171D02*
X108393082Y-165529171D01*
X108393082Y-165529171D02*
X108750225Y-165529171D01*
X108750225Y-165529171D02*
X108964511Y-165457742D01*
X108964511Y-165457742D02*
X109107368Y-165314885D01*
X109107368Y-165314885D02*
X109178797Y-165172028D01*
X109178797Y-165172028D02*
X109250225Y-164886314D01*
X109250225Y-164886314D02*
X109250225Y-164672028D01*
X109250225Y-164672028D02*
X109178797Y-164386314D01*
X109178797Y-164386314D02*
X109107368Y-164243457D01*
X109107368Y-164243457D02*
X108964511Y-164100600D01*
X108964511Y-164100600D02*
X108750225Y-164029171D01*
X108750225Y-164029171D02*
X108393082Y-164029171D01*
X109893082Y-164029171D02*
X109893082Y-165529171D01*
X111750225Y-164029171D02*
X111750225Y-165529171D01*
X112464511Y-164029171D02*
X112464511Y-165529171D01*
X112464511Y-165529171D02*
X113321654Y-164029171D01*
X113321654Y-164029171D02*
X113321654Y-165529171D01*
X90311653Y-164029171D02*
X89811653Y-164743457D01*
X89454510Y-164029171D02*
X89454510Y-165529171D01*
X89454510Y-165529171D02*
X90025939Y-165529171D01*
X90025939Y-165529171D02*
X90168796Y-165457742D01*
X90168796Y-165457742D02*
X90240225Y-165386314D01*
X90240225Y-165386314D02*
X90311653Y-165243457D01*
X90311653Y-165243457D02*
X90311653Y-165029171D01*
X90311653Y-165029171D02*
X90240225Y-164886314D01*
X90240225Y-164886314D02*
X90168796Y-164814885D01*
X90168796Y-164814885D02*
X90025939Y-164743457D01*
X90025939Y-164743457D02*
X89454510Y-164743457D01*
X91525939Y-164100600D02*
X91383082Y-164029171D01*
X91383082Y-164029171D02*
X91097368Y-164029171D01*
X91097368Y-164029171D02*
X90954510Y-164100600D01*
X90954510Y-164100600D02*
X90883082Y-164243457D01*
X90883082Y-164243457D02*
X90883082Y-164814885D01*
X90883082Y-164814885D02*
X90954510Y-164957742D01*
X90954510Y-164957742D02*
X91097368Y-165029171D01*
X91097368Y-165029171D02*
X91383082Y-165029171D01*
X91383082Y-165029171D02*
X91525939Y-164957742D01*
X91525939Y-164957742D02*
X91597368Y-164814885D01*
X91597368Y-164814885D02*
X91597368Y-164672028D01*
X91597368Y-164672028D02*
X90883082Y-164529171D01*
X92168796Y-164100600D02*
X92311653Y-164029171D01*
X92311653Y-164029171D02*
X92597367Y-164029171D01*
X92597367Y-164029171D02*
X92740224Y-164100600D01*
X92740224Y-164100600D02*
X92811653Y-164243457D01*
X92811653Y-164243457D02*
X92811653Y-164314885D01*
X92811653Y-164314885D02*
X92740224Y-164457742D01*
X92740224Y-164457742D02*
X92597367Y-164529171D01*
X92597367Y-164529171D02*
X92383082Y-164529171D01*
X92383082Y-164529171D02*
X92240224Y-164600600D01*
X92240224Y-164600600D02*
X92168796Y-164743457D01*
X92168796Y-164743457D02*
X92168796Y-164814885D01*
X92168796Y-164814885D02*
X92240224Y-164957742D01*
X92240224Y-164957742D02*
X92383082Y-165029171D01*
X92383082Y-165029171D02*
X92597367Y-165029171D01*
X92597367Y-165029171D02*
X92740224Y-164957742D01*
X94025939Y-164100600D02*
X93883082Y-164029171D01*
X93883082Y-164029171D02*
X93597368Y-164029171D01*
X93597368Y-164029171D02*
X93454510Y-164100600D01*
X93454510Y-164100600D02*
X93383082Y-164243457D01*
X93383082Y-164243457D02*
X93383082Y-164814885D01*
X93383082Y-164814885D02*
X93454510Y-164957742D01*
X93454510Y-164957742D02*
X93597368Y-165029171D01*
X93597368Y-165029171D02*
X93883082Y-165029171D01*
X93883082Y-165029171D02*
X94025939Y-164957742D01*
X94025939Y-164957742D02*
X94097368Y-164814885D01*
X94097368Y-164814885D02*
X94097368Y-164672028D01*
X94097368Y-164672028D02*
X93383082Y-164529171D01*
X94525939Y-165029171D02*
X95097367Y-165029171D01*
X94740224Y-165529171D02*
X94740224Y-164243457D01*
X94740224Y-164243457D02*
X94811653Y-164100600D01*
X94811653Y-164100600D02*
X94954510Y-164029171D01*
X94954510Y-164029171D02*
X95097367Y-164029171D01*
X75071653Y-164172028D02*
X75000225Y-164100600D01*
X75000225Y-164100600D02*
X74785939Y-164029171D01*
X74785939Y-164029171D02*
X74643082Y-164029171D01*
X74643082Y-164029171D02*
X74428796Y-164100600D01*
X74428796Y-164100600D02*
X74285939Y-164243457D01*
X74285939Y-164243457D02*
X74214510Y-164386314D01*
X74214510Y-164386314D02*
X74143082Y-164672028D01*
X74143082Y-164672028D02*
X74143082Y-164886314D01*
X74143082Y-164886314D02*
X74214510Y-165172028D01*
X74214510Y-165172028D02*
X74285939Y-165314885D01*
X74285939Y-165314885D02*
X74428796Y-165457742D01*
X74428796Y-165457742D02*
X74643082Y-165529171D01*
X74643082Y-165529171D02*
X74785939Y-165529171D01*
X74785939Y-165529171D02*
X75000225Y-165457742D01*
X75000225Y-165457742D02*
X75071653Y-165386314D01*
X75928796Y-164029171D02*
X75785939Y-164100600D01*
X75785939Y-164100600D02*
X75714510Y-164243457D01*
X75714510Y-164243457D02*
X75714510Y-165529171D01*
X76714510Y-164029171D02*
X76571653Y-164100600D01*
X76571653Y-164100600D02*
X76500224Y-164172028D01*
X76500224Y-164172028D02*
X76428796Y-164314885D01*
X76428796Y-164314885D02*
X76428796Y-164743457D01*
X76428796Y-164743457D02*
X76500224Y-164886314D01*
X76500224Y-164886314D02*
X76571653Y-164957742D01*
X76571653Y-164957742D02*
X76714510Y-165029171D01*
X76714510Y-165029171D02*
X76928796Y-165029171D01*
X76928796Y-165029171D02*
X77071653Y-164957742D01*
X77071653Y-164957742D02*
X77143082Y-164886314D01*
X77143082Y-164886314D02*
X77214510Y-164743457D01*
X77214510Y-164743457D02*
X77214510Y-164314885D01*
X77214510Y-164314885D02*
X77143082Y-164172028D01*
X77143082Y-164172028D02*
X77071653Y-164100600D01*
X77071653Y-164100600D02*
X76928796Y-164029171D01*
X76928796Y-164029171D02*
X76714510Y-164029171D01*
X78500225Y-164100600D02*
X78357367Y-164029171D01*
X78357367Y-164029171D02*
X78071653Y-164029171D01*
X78071653Y-164029171D02*
X77928796Y-164100600D01*
X77928796Y-164100600D02*
X77857367Y-164172028D01*
X77857367Y-164172028D02*
X77785939Y-164314885D01*
X77785939Y-164314885D02*
X77785939Y-164743457D01*
X77785939Y-164743457D02*
X77857367Y-164886314D01*
X77857367Y-164886314D02*
X77928796Y-164957742D01*
X77928796Y-164957742D02*
X78071653Y-165029171D01*
X78071653Y-165029171D02*
X78357367Y-165029171D01*
X78357367Y-165029171D02*
X78500225Y-164957742D01*
X79143081Y-164029171D02*
X79143081Y-165529171D01*
X79285939Y-164600600D02*
X79714510Y-164029171D01*
X79714510Y-165029171D02*
X79143081Y-164457742D01*
M02*
