%TF.GenerationSoftware,KiCad,Pcbnew,7.0.5-0*%
%TF.CreationDate,2024-01-09T14:25:18-05:00*%
%TF.ProjectId,ESP-32_USB_sequencer,4553502d-3332-45f5-9553-425f73657175,rev?*%
%TF.SameCoordinates,Original*%
%TF.FileFunction,Legend,Top*%
%TF.FilePolarity,Positive*%
%FSLAX46Y46*%
G04 Gerber Fmt 4.6, Leading zero omitted, Abs format (unit mm)*
G04 Created by KiCad (PCBNEW 7.0.5-0) date 2024-01-09 14:25:18*
%MOMM*%
%LPD*%
G01*
G04 APERTURE LIST*
%ADD10C,0.150000*%
%ADD11C,0.120000*%
%ADD12C,0.100000*%
G04 APERTURE END LIST*
D10*
X130175741Y-103427819D02*
X129699551Y-103427819D01*
X129699551Y-103427819D02*
X129651932Y-103904009D01*
X129651932Y-103904009D02*
X129699551Y-103856390D01*
X129699551Y-103856390D02*
X129794789Y-103808771D01*
X129794789Y-103808771D02*
X130032884Y-103808771D01*
X130032884Y-103808771D02*
X130128122Y-103856390D01*
X130128122Y-103856390D02*
X130175741Y-103904009D01*
X130175741Y-103904009D02*
X130223360Y-103999247D01*
X130223360Y-103999247D02*
X130223360Y-104237342D01*
X130223360Y-104237342D02*
X130175741Y-104332580D01*
X130175741Y-104332580D02*
X130128122Y-104380200D01*
X130128122Y-104380200D02*
X130032884Y-104427819D01*
X130032884Y-104427819D02*
X129794789Y-104427819D01*
X129794789Y-104427819D02*
X129699551Y-104380200D01*
X129699551Y-104380200D02*
X129651932Y-104332580D01*
X130556694Y-103761152D02*
X130794789Y-104427819D01*
X130794789Y-104427819D02*
X131032884Y-103761152D01*
X130210112Y-98572295D02*
X129829160Y-98572295D01*
X129829160Y-98572295D02*
X129791064Y-98953247D01*
X129791064Y-98953247D02*
X129829160Y-98915152D01*
X129829160Y-98915152D02*
X129905350Y-98877057D01*
X129905350Y-98877057D02*
X130095826Y-98877057D01*
X130095826Y-98877057D02*
X130172017Y-98915152D01*
X130172017Y-98915152D02*
X130210112Y-98953247D01*
X130210112Y-98953247D02*
X130248207Y-99029438D01*
X130248207Y-99029438D02*
X130248207Y-99219914D01*
X130248207Y-99219914D02*
X130210112Y-99296104D01*
X130210112Y-99296104D02*
X130172017Y-99334200D01*
X130172017Y-99334200D02*
X130095826Y-99372295D01*
X130095826Y-99372295D02*
X129905350Y-99372295D01*
X129905350Y-99372295D02*
X129829160Y-99334200D01*
X129829160Y-99334200D02*
X129791064Y-99296104D01*
X130514874Y-98838961D02*
X130705350Y-99372295D01*
X130705350Y-99372295D02*
X130895827Y-98838961D01*
X131772017Y-99334200D02*
X131886303Y-99372295D01*
X131886303Y-99372295D02*
X132076779Y-99372295D01*
X132076779Y-99372295D02*
X132152970Y-99334200D01*
X132152970Y-99334200D02*
X132191065Y-99296104D01*
X132191065Y-99296104D02*
X132229160Y-99219914D01*
X132229160Y-99219914D02*
X132229160Y-99143723D01*
X132229160Y-99143723D02*
X132191065Y-99067533D01*
X132191065Y-99067533D02*
X132152970Y-99029438D01*
X132152970Y-99029438D02*
X132076779Y-98991342D01*
X132076779Y-98991342D02*
X131924398Y-98953247D01*
X131924398Y-98953247D02*
X131848208Y-98915152D01*
X131848208Y-98915152D02*
X131810113Y-98877057D01*
X131810113Y-98877057D02*
X131772017Y-98800866D01*
X131772017Y-98800866D02*
X131772017Y-98724676D01*
X131772017Y-98724676D02*
X131810113Y-98648485D01*
X131810113Y-98648485D02*
X131848208Y-98610390D01*
X131848208Y-98610390D02*
X131924398Y-98572295D01*
X131924398Y-98572295D02*
X132114875Y-98572295D01*
X132114875Y-98572295D02*
X132229160Y-98610390D01*
X133029161Y-99296104D02*
X132991065Y-99334200D01*
X132991065Y-99334200D02*
X132876780Y-99372295D01*
X132876780Y-99372295D02*
X132800589Y-99372295D01*
X132800589Y-99372295D02*
X132686303Y-99334200D01*
X132686303Y-99334200D02*
X132610113Y-99258009D01*
X132610113Y-99258009D02*
X132572018Y-99181819D01*
X132572018Y-99181819D02*
X132533922Y-99029438D01*
X132533922Y-99029438D02*
X132533922Y-98915152D01*
X132533922Y-98915152D02*
X132572018Y-98762771D01*
X132572018Y-98762771D02*
X132610113Y-98686580D01*
X132610113Y-98686580D02*
X132686303Y-98610390D01*
X132686303Y-98610390D02*
X132800589Y-98572295D01*
X132800589Y-98572295D02*
X132876780Y-98572295D01*
X132876780Y-98572295D02*
X132991065Y-98610390D01*
X132991065Y-98610390D02*
X133029161Y-98648485D01*
X133752970Y-99372295D02*
X133372018Y-99372295D01*
X133372018Y-99372295D02*
X133372018Y-98572295D01*
X130210112Y-100931183D02*
X129829160Y-100931183D01*
X129829160Y-100931183D02*
X129791064Y-101312135D01*
X129791064Y-101312135D02*
X129829160Y-101274040D01*
X129829160Y-101274040D02*
X129905350Y-101235945D01*
X129905350Y-101235945D02*
X130095826Y-101235945D01*
X130095826Y-101235945D02*
X130172017Y-101274040D01*
X130172017Y-101274040D02*
X130210112Y-101312135D01*
X130210112Y-101312135D02*
X130248207Y-101388326D01*
X130248207Y-101388326D02*
X130248207Y-101578802D01*
X130248207Y-101578802D02*
X130210112Y-101654992D01*
X130210112Y-101654992D02*
X130172017Y-101693088D01*
X130172017Y-101693088D02*
X130095826Y-101731183D01*
X130095826Y-101731183D02*
X129905350Y-101731183D01*
X129905350Y-101731183D02*
X129829160Y-101693088D01*
X129829160Y-101693088D02*
X129791064Y-101654992D01*
X130514874Y-101197849D02*
X130705350Y-101731183D01*
X130705350Y-101731183D02*
X130895827Y-101197849D01*
X131772017Y-101693088D02*
X131886303Y-101731183D01*
X131886303Y-101731183D02*
X132076779Y-101731183D01*
X132076779Y-101731183D02*
X132152970Y-101693088D01*
X132152970Y-101693088D02*
X132191065Y-101654992D01*
X132191065Y-101654992D02*
X132229160Y-101578802D01*
X132229160Y-101578802D02*
X132229160Y-101502611D01*
X132229160Y-101502611D02*
X132191065Y-101426421D01*
X132191065Y-101426421D02*
X132152970Y-101388326D01*
X132152970Y-101388326D02*
X132076779Y-101350230D01*
X132076779Y-101350230D02*
X131924398Y-101312135D01*
X131924398Y-101312135D02*
X131848208Y-101274040D01*
X131848208Y-101274040D02*
X131810113Y-101235945D01*
X131810113Y-101235945D02*
X131772017Y-101159754D01*
X131772017Y-101159754D02*
X131772017Y-101083564D01*
X131772017Y-101083564D02*
X131810113Y-101007373D01*
X131810113Y-101007373D02*
X131848208Y-100969278D01*
X131848208Y-100969278D02*
X131924398Y-100931183D01*
X131924398Y-100931183D02*
X132114875Y-100931183D01*
X132114875Y-100931183D02*
X132229160Y-100969278D01*
X132572018Y-101731183D02*
X132572018Y-100931183D01*
X132572018Y-100931183D02*
X132762494Y-100931183D01*
X132762494Y-100931183D02*
X132876780Y-100969278D01*
X132876780Y-100969278D02*
X132952970Y-101045468D01*
X132952970Y-101045468D02*
X132991065Y-101121659D01*
X132991065Y-101121659D02*
X133029161Y-101274040D01*
X133029161Y-101274040D02*
X133029161Y-101388326D01*
X133029161Y-101388326D02*
X132991065Y-101540707D01*
X132991065Y-101540707D02*
X132952970Y-101616897D01*
X132952970Y-101616897D02*
X132876780Y-101693088D01*
X132876780Y-101693088D02*
X132762494Y-101731183D01*
X132762494Y-101731183D02*
X132572018Y-101731183D01*
X133333922Y-101502611D02*
X133714875Y-101502611D01*
X133257732Y-101731183D02*
X133524399Y-100931183D01*
X133524399Y-100931183D02*
X133791065Y-101731183D01*
X130519416Y-116363860D02*
X130138464Y-116363860D01*
X130138464Y-116363860D02*
X130100368Y-116744812D01*
X130100368Y-116744812D02*
X130138464Y-116706717D01*
X130138464Y-116706717D02*
X130214654Y-116668622D01*
X130214654Y-116668622D02*
X130405130Y-116668622D01*
X130405130Y-116668622D02*
X130481321Y-116706717D01*
X130481321Y-116706717D02*
X130519416Y-116744812D01*
X130519416Y-116744812D02*
X130557511Y-116821003D01*
X130557511Y-116821003D02*
X130557511Y-117011479D01*
X130557511Y-117011479D02*
X130519416Y-117087669D01*
X130519416Y-117087669D02*
X130481321Y-117125765D01*
X130481321Y-117125765D02*
X130405130Y-117163860D01*
X130405130Y-117163860D02*
X130214654Y-117163860D01*
X130214654Y-117163860D02*
X130138464Y-117125765D01*
X130138464Y-117125765D02*
X130100368Y-117087669D01*
X130824178Y-116630526D02*
X131014654Y-117163860D01*
X131014654Y-117163860D02*
X131205131Y-116630526D01*
X132081321Y-117125765D02*
X132195607Y-117163860D01*
X132195607Y-117163860D02*
X132386083Y-117163860D01*
X132386083Y-117163860D02*
X132462274Y-117125765D01*
X132462274Y-117125765D02*
X132500369Y-117087669D01*
X132500369Y-117087669D02*
X132538464Y-117011479D01*
X132538464Y-117011479D02*
X132538464Y-116935288D01*
X132538464Y-116935288D02*
X132500369Y-116859098D01*
X132500369Y-116859098D02*
X132462274Y-116821003D01*
X132462274Y-116821003D02*
X132386083Y-116782907D01*
X132386083Y-116782907D02*
X132233702Y-116744812D01*
X132233702Y-116744812D02*
X132157512Y-116706717D01*
X132157512Y-116706717D02*
X132119417Y-116668622D01*
X132119417Y-116668622D02*
X132081321Y-116592431D01*
X132081321Y-116592431D02*
X132081321Y-116516241D01*
X132081321Y-116516241D02*
X132119417Y-116440050D01*
X132119417Y-116440050D02*
X132157512Y-116401955D01*
X132157512Y-116401955D02*
X132233702Y-116363860D01*
X132233702Y-116363860D02*
X132424179Y-116363860D01*
X132424179Y-116363860D02*
X132538464Y-116401955D01*
X132881322Y-117163860D02*
X132881322Y-116363860D01*
X132881322Y-116363860D02*
X133071798Y-116363860D01*
X133071798Y-116363860D02*
X133186084Y-116401955D01*
X133186084Y-116401955D02*
X133262274Y-116478145D01*
X133262274Y-116478145D02*
X133300369Y-116554336D01*
X133300369Y-116554336D02*
X133338465Y-116706717D01*
X133338465Y-116706717D02*
X133338465Y-116821003D01*
X133338465Y-116821003D02*
X133300369Y-116973384D01*
X133300369Y-116973384D02*
X133262274Y-117049574D01*
X133262274Y-117049574D02*
X133186084Y-117125765D01*
X133186084Y-117125765D02*
X133071798Y-117163860D01*
X133071798Y-117163860D02*
X132881322Y-117163860D01*
X133643226Y-116935288D02*
X134024179Y-116935288D01*
X133567036Y-117163860D02*
X133833703Y-116363860D01*
X133833703Y-116363860D02*
X134100369Y-117163860D01*
X130571054Y-121527850D02*
X130475816Y-121480231D01*
X130475816Y-121480231D02*
X130332959Y-121480231D01*
X130332959Y-121480231D02*
X130190102Y-121527850D01*
X130190102Y-121527850D02*
X130094864Y-121623088D01*
X130094864Y-121623088D02*
X130047245Y-121718326D01*
X130047245Y-121718326D02*
X129999626Y-121908802D01*
X129999626Y-121908802D02*
X129999626Y-122051659D01*
X129999626Y-122051659D02*
X130047245Y-122242135D01*
X130047245Y-122242135D02*
X130094864Y-122337373D01*
X130094864Y-122337373D02*
X130190102Y-122432612D01*
X130190102Y-122432612D02*
X130332959Y-122480231D01*
X130332959Y-122480231D02*
X130428197Y-122480231D01*
X130428197Y-122480231D02*
X130571054Y-122432612D01*
X130571054Y-122432612D02*
X130618673Y-122384992D01*
X130618673Y-122384992D02*
X130618673Y-122051659D01*
X130618673Y-122051659D02*
X130428197Y-122051659D01*
X131047245Y-122480231D02*
X131047245Y-121480231D01*
X131047245Y-121480231D02*
X131618673Y-122480231D01*
X131618673Y-122480231D02*
X131618673Y-121480231D01*
X132094864Y-122480231D02*
X132094864Y-121480231D01*
X132094864Y-121480231D02*
X132332959Y-121480231D01*
X132332959Y-121480231D02*
X132475816Y-121527850D01*
X132475816Y-121527850D02*
X132571054Y-121623088D01*
X132571054Y-121623088D02*
X132618673Y-121718326D01*
X132618673Y-121718326D02*
X132666292Y-121908802D01*
X132666292Y-121908802D02*
X132666292Y-122051659D01*
X132666292Y-122051659D02*
X132618673Y-122242135D01*
X132618673Y-122242135D02*
X132571054Y-122337373D01*
X132571054Y-122337373D02*
X132475816Y-122432612D01*
X132475816Y-122432612D02*
X132332959Y-122480231D01*
X132332959Y-122480231D02*
X132094864Y-122480231D01*
X130519416Y-114004972D02*
X130138464Y-114004972D01*
X130138464Y-114004972D02*
X130100368Y-114385924D01*
X130100368Y-114385924D02*
X130138464Y-114347829D01*
X130138464Y-114347829D02*
X130214654Y-114309734D01*
X130214654Y-114309734D02*
X130405130Y-114309734D01*
X130405130Y-114309734D02*
X130481321Y-114347829D01*
X130481321Y-114347829D02*
X130519416Y-114385924D01*
X130519416Y-114385924D02*
X130557511Y-114462115D01*
X130557511Y-114462115D02*
X130557511Y-114652591D01*
X130557511Y-114652591D02*
X130519416Y-114728781D01*
X130519416Y-114728781D02*
X130481321Y-114766877D01*
X130481321Y-114766877D02*
X130405130Y-114804972D01*
X130405130Y-114804972D02*
X130214654Y-114804972D01*
X130214654Y-114804972D02*
X130138464Y-114766877D01*
X130138464Y-114766877D02*
X130100368Y-114728781D01*
X130824178Y-114271638D02*
X131014654Y-114804972D01*
X131014654Y-114804972D02*
X131205131Y-114271638D01*
X132081321Y-114766877D02*
X132195607Y-114804972D01*
X132195607Y-114804972D02*
X132386083Y-114804972D01*
X132386083Y-114804972D02*
X132462274Y-114766877D01*
X132462274Y-114766877D02*
X132500369Y-114728781D01*
X132500369Y-114728781D02*
X132538464Y-114652591D01*
X132538464Y-114652591D02*
X132538464Y-114576400D01*
X132538464Y-114576400D02*
X132500369Y-114500210D01*
X132500369Y-114500210D02*
X132462274Y-114462115D01*
X132462274Y-114462115D02*
X132386083Y-114424019D01*
X132386083Y-114424019D02*
X132233702Y-114385924D01*
X132233702Y-114385924D02*
X132157512Y-114347829D01*
X132157512Y-114347829D02*
X132119417Y-114309734D01*
X132119417Y-114309734D02*
X132081321Y-114233543D01*
X132081321Y-114233543D02*
X132081321Y-114157353D01*
X132081321Y-114157353D02*
X132119417Y-114081162D01*
X132119417Y-114081162D02*
X132157512Y-114043067D01*
X132157512Y-114043067D02*
X132233702Y-114004972D01*
X132233702Y-114004972D02*
X132424179Y-114004972D01*
X132424179Y-114004972D02*
X132538464Y-114043067D01*
X133338465Y-114728781D02*
X133300369Y-114766877D01*
X133300369Y-114766877D02*
X133186084Y-114804972D01*
X133186084Y-114804972D02*
X133109893Y-114804972D01*
X133109893Y-114804972D02*
X132995607Y-114766877D01*
X132995607Y-114766877D02*
X132919417Y-114690686D01*
X132919417Y-114690686D02*
X132881322Y-114614496D01*
X132881322Y-114614496D02*
X132843226Y-114462115D01*
X132843226Y-114462115D02*
X132843226Y-114347829D01*
X132843226Y-114347829D02*
X132881322Y-114195448D01*
X132881322Y-114195448D02*
X132919417Y-114119257D01*
X132919417Y-114119257D02*
X132995607Y-114043067D01*
X132995607Y-114043067D02*
X133109893Y-114004972D01*
X133109893Y-114004972D02*
X133186084Y-114004972D01*
X133186084Y-114004972D02*
X133300369Y-114043067D01*
X133300369Y-114043067D02*
X133338465Y-114081162D01*
X134062274Y-114804972D02*
X133681322Y-114804972D01*
X133681322Y-114804972D02*
X133681322Y-114004972D01*
X130485045Y-118860496D02*
X130008855Y-118860496D01*
X130008855Y-118860496D02*
X129961236Y-119336686D01*
X129961236Y-119336686D02*
X130008855Y-119289067D01*
X130008855Y-119289067D02*
X130104093Y-119241448D01*
X130104093Y-119241448D02*
X130342188Y-119241448D01*
X130342188Y-119241448D02*
X130437426Y-119289067D01*
X130437426Y-119289067D02*
X130485045Y-119336686D01*
X130485045Y-119336686D02*
X130532664Y-119431924D01*
X130532664Y-119431924D02*
X130532664Y-119670019D01*
X130532664Y-119670019D02*
X130485045Y-119765257D01*
X130485045Y-119765257D02*
X130437426Y-119812877D01*
X130437426Y-119812877D02*
X130342188Y-119860496D01*
X130342188Y-119860496D02*
X130104093Y-119860496D01*
X130104093Y-119860496D02*
X130008855Y-119812877D01*
X130008855Y-119812877D02*
X129961236Y-119765257D01*
X130865998Y-119193829D02*
X131104093Y-119860496D01*
X131104093Y-119860496D02*
X131342188Y-119193829D01*
X130773680Y-106332112D02*
X130678442Y-106284493D01*
X130678442Y-106284493D02*
X130535585Y-106284493D01*
X130535585Y-106284493D02*
X130392728Y-106332112D01*
X130392728Y-106332112D02*
X130297490Y-106427350D01*
X130297490Y-106427350D02*
X130249871Y-106522588D01*
X130249871Y-106522588D02*
X130202252Y-106713064D01*
X130202252Y-106713064D02*
X130202252Y-106855921D01*
X130202252Y-106855921D02*
X130249871Y-107046397D01*
X130249871Y-107046397D02*
X130297490Y-107141635D01*
X130297490Y-107141635D02*
X130392728Y-107236874D01*
X130392728Y-107236874D02*
X130535585Y-107284493D01*
X130535585Y-107284493D02*
X130630823Y-107284493D01*
X130630823Y-107284493D02*
X130773680Y-107236874D01*
X130773680Y-107236874D02*
X130821299Y-107189254D01*
X130821299Y-107189254D02*
X130821299Y-106855921D01*
X130821299Y-106855921D02*
X130630823Y-106855921D01*
X131249871Y-107284493D02*
X131249871Y-106284493D01*
X131249871Y-106284493D02*
X131821299Y-107284493D01*
X131821299Y-107284493D02*
X131821299Y-106284493D01*
X132297490Y-107284493D02*
X132297490Y-106284493D01*
X132297490Y-106284493D02*
X132535585Y-106284493D01*
X132535585Y-106284493D02*
X132678442Y-106332112D01*
X132678442Y-106332112D02*
X132773680Y-106427350D01*
X132773680Y-106427350D02*
X132821299Y-106522588D01*
X132821299Y-106522588D02*
X132868918Y-106713064D01*
X132868918Y-106713064D02*
X132868918Y-106855921D01*
X132868918Y-106855921D02*
X132821299Y-107046397D01*
X132821299Y-107046397D02*
X132773680Y-107141635D01*
X132773680Y-107141635D02*
X132678442Y-107236874D01*
X132678442Y-107236874D02*
X132535585Y-107284493D01*
X132535585Y-107284493D02*
X132297490Y-107284493D01*
%TO.C,R11*%
X131437142Y-132487819D02*
X131103809Y-132011628D01*
X130865714Y-132487819D02*
X130865714Y-131487819D01*
X130865714Y-131487819D02*
X131246666Y-131487819D01*
X131246666Y-131487819D02*
X131341904Y-131535438D01*
X131341904Y-131535438D02*
X131389523Y-131583057D01*
X131389523Y-131583057D02*
X131437142Y-131678295D01*
X131437142Y-131678295D02*
X131437142Y-131821152D01*
X131437142Y-131821152D02*
X131389523Y-131916390D01*
X131389523Y-131916390D02*
X131341904Y-131964009D01*
X131341904Y-131964009D02*
X131246666Y-132011628D01*
X131246666Y-132011628D02*
X130865714Y-132011628D01*
X132389523Y-132487819D02*
X131818095Y-132487819D01*
X132103809Y-132487819D02*
X132103809Y-131487819D01*
X132103809Y-131487819D02*
X132008571Y-131630676D01*
X132008571Y-131630676D02*
X131913333Y-131725914D01*
X131913333Y-131725914D02*
X131818095Y-131773533D01*
X133341904Y-132487819D02*
X132770476Y-132487819D01*
X133056190Y-132487819D02*
X133056190Y-131487819D01*
X133056190Y-131487819D02*
X132960952Y-131630676D01*
X132960952Y-131630676D02*
X132865714Y-131725914D01*
X132865714Y-131725914D02*
X132770476Y-131773533D01*
%TO.C,R7*%
X110480383Y-178699819D02*
X110147050Y-178223628D01*
X109908955Y-178699819D02*
X109908955Y-177699819D01*
X109908955Y-177699819D02*
X110289907Y-177699819D01*
X110289907Y-177699819D02*
X110385145Y-177747438D01*
X110385145Y-177747438D02*
X110432764Y-177795057D01*
X110432764Y-177795057D02*
X110480383Y-177890295D01*
X110480383Y-177890295D02*
X110480383Y-178033152D01*
X110480383Y-178033152D02*
X110432764Y-178128390D01*
X110432764Y-178128390D02*
X110385145Y-178176009D01*
X110385145Y-178176009D02*
X110289907Y-178223628D01*
X110289907Y-178223628D02*
X109908955Y-178223628D01*
X110813717Y-177699819D02*
X111480383Y-177699819D01*
X111480383Y-177699819D02*
X111051812Y-178699819D01*
%TO.C,R23*%
X104767142Y-155394819D02*
X104433809Y-154918628D01*
X104195714Y-155394819D02*
X104195714Y-154394819D01*
X104195714Y-154394819D02*
X104576666Y-154394819D01*
X104576666Y-154394819D02*
X104671904Y-154442438D01*
X104671904Y-154442438D02*
X104719523Y-154490057D01*
X104719523Y-154490057D02*
X104767142Y-154585295D01*
X104767142Y-154585295D02*
X104767142Y-154728152D01*
X104767142Y-154728152D02*
X104719523Y-154823390D01*
X104719523Y-154823390D02*
X104671904Y-154871009D01*
X104671904Y-154871009D02*
X104576666Y-154918628D01*
X104576666Y-154918628D02*
X104195714Y-154918628D01*
X105148095Y-154490057D02*
X105195714Y-154442438D01*
X105195714Y-154442438D02*
X105290952Y-154394819D01*
X105290952Y-154394819D02*
X105529047Y-154394819D01*
X105529047Y-154394819D02*
X105624285Y-154442438D01*
X105624285Y-154442438D02*
X105671904Y-154490057D01*
X105671904Y-154490057D02*
X105719523Y-154585295D01*
X105719523Y-154585295D02*
X105719523Y-154680533D01*
X105719523Y-154680533D02*
X105671904Y-154823390D01*
X105671904Y-154823390D02*
X105100476Y-155394819D01*
X105100476Y-155394819D02*
X105719523Y-155394819D01*
X106052857Y-154394819D02*
X106671904Y-154394819D01*
X106671904Y-154394819D02*
X106338571Y-154775771D01*
X106338571Y-154775771D02*
X106481428Y-154775771D01*
X106481428Y-154775771D02*
X106576666Y-154823390D01*
X106576666Y-154823390D02*
X106624285Y-154871009D01*
X106624285Y-154871009D02*
X106671904Y-154966247D01*
X106671904Y-154966247D02*
X106671904Y-155204342D01*
X106671904Y-155204342D02*
X106624285Y-155299580D01*
X106624285Y-155299580D02*
X106576666Y-155347200D01*
X106576666Y-155347200D02*
X106481428Y-155394819D01*
X106481428Y-155394819D02*
X106195714Y-155394819D01*
X106195714Y-155394819D02*
X106100476Y-155347200D01*
X106100476Y-155347200D02*
X106052857Y-155299580D01*
%TO.C,R8*%
X126240383Y-178699819D02*
X125907050Y-178223628D01*
X125668955Y-178699819D02*
X125668955Y-177699819D01*
X125668955Y-177699819D02*
X126049907Y-177699819D01*
X126049907Y-177699819D02*
X126145145Y-177747438D01*
X126145145Y-177747438D02*
X126192764Y-177795057D01*
X126192764Y-177795057D02*
X126240383Y-177890295D01*
X126240383Y-177890295D02*
X126240383Y-178033152D01*
X126240383Y-178033152D02*
X126192764Y-178128390D01*
X126192764Y-178128390D02*
X126145145Y-178176009D01*
X126145145Y-178176009D02*
X126049907Y-178223628D01*
X126049907Y-178223628D02*
X125668955Y-178223628D01*
X126811812Y-178128390D02*
X126716574Y-178080771D01*
X126716574Y-178080771D02*
X126668955Y-178033152D01*
X126668955Y-178033152D02*
X126621336Y-177937914D01*
X126621336Y-177937914D02*
X126621336Y-177890295D01*
X126621336Y-177890295D02*
X126668955Y-177795057D01*
X126668955Y-177795057D02*
X126716574Y-177747438D01*
X126716574Y-177747438D02*
X126811812Y-177699819D01*
X126811812Y-177699819D02*
X127002288Y-177699819D01*
X127002288Y-177699819D02*
X127097526Y-177747438D01*
X127097526Y-177747438D02*
X127145145Y-177795057D01*
X127145145Y-177795057D02*
X127192764Y-177890295D01*
X127192764Y-177890295D02*
X127192764Y-177937914D01*
X127192764Y-177937914D02*
X127145145Y-178033152D01*
X127145145Y-178033152D02*
X127097526Y-178080771D01*
X127097526Y-178080771D02*
X127002288Y-178128390D01*
X127002288Y-178128390D02*
X126811812Y-178128390D01*
X126811812Y-178128390D02*
X126716574Y-178176009D01*
X126716574Y-178176009D02*
X126668955Y-178223628D01*
X126668955Y-178223628D02*
X126621336Y-178318866D01*
X126621336Y-178318866D02*
X126621336Y-178509342D01*
X126621336Y-178509342D02*
X126668955Y-178604580D01*
X126668955Y-178604580D02*
X126716574Y-178652200D01*
X126716574Y-178652200D02*
X126811812Y-178699819D01*
X126811812Y-178699819D02*
X127002288Y-178699819D01*
X127002288Y-178699819D02*
X127097526Y-178652200D01*
X127097526Y-178652200D02*
X127145145Y-178604580D01*
X127145145Y-178604580D02*
X127192764Y-178509342D01*
X127192764Y-178509342D02*
X127192764Y-178318866D01*
X127192764Y-178318866D02*
X127145145Y-178223628D01*
X127145145Y-178223628D02*
X127097526Y-178176009D01*
X127097526Y-178176009D02*
X127002288Y-178128390D01*
%TO.C,R22*%
X100957142Y-127454819D02*
X100623809Y-126978628D01*
X100385714Y-127454819D02*
X100385714Y-126454819D01*
X100385714Y-126454819D02*
X100766666Y-126454819D01*
X100766666Y-126454819D02*
X100861904Y-126502438D01*
X100861904Y-126502438D02*
X100909523Y-126550057D01*
X100909523Y-126550057D02*
X100957142Y-126645295D01*
X100957142Y-126645295D02*
X100957142Y-126788152D01*
X100957142Y-126788152D02*
X100909523Y-126883390D01*
X100909523Y-126883390D02*
X100861904Y-126931009D01*
X100861904Y-126931009D02*
X100766666Y-126978628D01*
X100766666Y-126978628D02*
X100385714Y-126978628D01*
X101338095Y-126550057D02*
X101385714Y-126502438D01*
X101385714Y-126502438D02*
X101480952Y-126454819D01*
X101480952Y-126454819D02*
X101719047Y-126454819D01*
X101719047Y-126454819D02*
X101814285Y-126502438D01*
X101814285Y-126502438D02*
X101861904Y-126550057D01*
X101861904Y-126550057D02*
X101909523Y-126645295D01*
X101909523Y-126645295D02*
X101909523Y-126740533D01*
X101909523Y-126740533D02*
X101861904Y-126883390D01*
X101861904Y-126883390D02*
X101290476Y-127454819D01*
X101290476Y-127454819D02*
X101909523Y-127454819D01*
X102290476Y-126550057D02*
X102338095Y-126502438D01*
X102338095Y-126502438D02*
X102433333Y-126454819D01*
X102433333Y-126454819D02*
X102671428Y-126454819D01*
X102671428Y-126454819D02*
X102766666Y-126502438D01*
X102766666Y-126502438D02*
X102814285Y-126550057D01*
X102814285Y-126550057D02*
X102861904Y-126645295D01*
X102861904Y-126645295D02*
X102861904Y-126740533D01*
X102861904Y-126740533D02*
X102814285Y-126883390D01*
X102814285Y-126883390D02*
X102242857Y-127454819D01*
X102242857Y-127454819D02*
X102861904Y-127454819D01*
%TO.C,R1*%
X76033333Y-171524819D02*
X75700000Y-171048628D01*
X75461905Y-171524819D02*
X75461905Y-170524819D01*
X75461905Y-170524819D02*
X75842857Y-170524819D01*
X75842857Y-170524819D02*
X75938095Y-170572438D01*
X75938095Y-170572438D02*
X75985714Y-170620057D01*
X75985714Y-170620057D02*
X76033333Y-170715295D01*
X76033333Y-170715295D02*
X76033333Y-170858152D01*
X76033333Y-170858152D02*
X75985714Y-170953390D01*
X75985714Y-170953390D02*
X75938095Y-171001009D01*
X75938095Y-171001009D02*
X75842857Y-171048628D01*
X75842857Y-171048628D02*
X75461905Y-171048628D01*
X76985714Y-171524819D02*
X76414286Y-171524819D01*
X76700000Y-171524819D02*
X76700000Y-170524819D01*
X76700000Y-170524819D02*
X76604762Y-170667676D01*
X76604762Y-170667676D02*
X76509524Y-170762914D01*
X76509524Y-170762914D02*
X76414286Y-170810533D01*
%TO.C,D1*%
X82271905Y-179049819D02*
X82271905Y-178049819D01*
X82271905Y-178049819D02*
X82510000Y-178049819D01*
X82510000Y-178049819D02*
X82652857Y-178097438D01*
X82652857Y-178097438D02*
X82748095Y-178192676D01*
X82748095Y-178192676D02*
X82795714Y-178287914D01*
X82795714Y-178287914D02*
X82843333Y-178478390D01*
X82843333Y-178478390D02*
X82843333Y-178621247D01*
X82843333Y-178621247D02*
X82795714Y-178811723D01*
X82795714Y-178811723D02*
X82748095Y-178906961D01*
X82748095Y-178906961D02*
X82652857Y-179002200D01*
X82652857Y-179002200D02*
X82510000Y-179049819D01*
X82510000Y-179049819D02*
X82271905Y-179049819D01*
X83795714Y-179049819D02*
X83224286Y-179049819D01*
X83510000Y-179049819D02*
X83510000Y-178049819D01*
X83510000Y-178049819D02*
X83414762Y-178192676D01*
X83414762Y-178192676D02*
X83319524Y-178287914D01*
X83319524Y-178287914D02*
X83224286Y-178335533D01*
%TO.C,D3*%
X114988955Y-179219819D02*
X114988955Y-178219819D01*
X114988955Y-178219819D02*
X115227050Y-178219819D01*
X115227050Y-178219819D02*
X115369907Y-178267438D01*
X115369907Y-178267438D02*
X115465145Y-178362676D01*
X115465145Y-178362676D02*
X115512764Y-178457914D01*
X115512764Y-178457914D02*
X115560383Y-178648390D01*
X115560383Y-178648390D02*
X115560383Y-178791247D01*
X115560383Y-178791247D02*
X115512764Y-178981723D01*
X115512764Y-178981723D02*
X115465145Y-179076961D01*
X115465145Y-179076961D02*
X115369907Y-179172200D01*
X115369907Y-179172200D02*
X115227050Y-179219819D01*
X115227050Y-179219819D02*
X114988955Y-179219819D01*
X115893717Y-178219819D02*
X116512764Y-178219819D01*
X116512764Y-178219819D02*
X116179431Y-178600771D01*
X116179431Y-178600771D02*
X116322288Y-178600771D01*
X116322288Y-178600771D02*
X116417526Y-178648390D01*
X116417526Y-178648390D02*
X116465145Y-178696009D01*
X116465145Y-178696009D02*
X116512764Y-178791247D01*
X116512764Y-178791247D02*
X116512764Y-179029342D01*
X116512764Y-179029342D02*
X116465145Y-179124580D01*
X116465145Y-179124580D02*
X116417526Y-179172200D01*
X116417526Y-179172200D02*
X116322288Y-179219819D01*
X116322288Y-179219819D02*
X116036574Y-179219819D01*
X116036574Y-179219819D02*
X115941336Y-179172200D01*
X115941336Y-179172200D02*
X115893717Y-179124580D01*
%TO.C,R21*%
X116197142Y-127407819D02*
X115863809Y-126931628D01*
X115625714Y-127407819D02*
X115625714Y-126407819D01*
X115625714Y-126407819D02*
X116006666Y-126407819D01*
X116006666Y-126407819D02*
X116101904Y-126455438D01*
X116101904Y-126455438D02*
X116149523Y-126503057D01*
X116149523Y-126503057D02*
X116197142Y-126598295D01*
X116197142Y-126598295D02*
X116197142Y-126741152D01*
X116197142Y-126741152D02*
X116149523Y-126836390D01*
X116149523Y-126836390D02*
X116101904Y-126884009D01*
X116101904Y-126884009D02*
X116006666Y-126931628D01*
X116006666Y-126931628D02*
X115625714Y-126931628D01*
X116578095Y-126503057D02*
X116625714Y-126455438D01*
X116625714Y-126455438D02*
X116720952Y-126407819D01*
X116720952Y-126407819D02*
X116959047Y-126407819D01*
X116959047Y-126407819D02*
X117054285Y-126455438D01*
X117054285Y-126455438D02*
X117101904Y-126503057D01*
X117101904Y-126503057D02*
X117149523Y-126598295D01*
X117149523Y-126598295D02*
X117149523Y-126693533D01*
X117149523Y-126693533D02*
X117101904Y-126836390D01*
X117101904Y-126836390D02*
X116530476Y-127407819D01*
X116530476Y-127407819D02*
X117149523Y-127407819D01*
X118101904Y-127407819D02*
X117530476Y-127407819D01*
X117816190Y-127407819D02*
X117816190Y-126407819D01*
X117816190Y-126407819D02*
X117720952Y-126550676D01*
X117720952Y-126550676D02*
X117625714Y-126645914D01*
X117625714Y-126645914D02*
X117530476Y-126693533D01*
%TO.C,D5*%
X130748955Y-179049819D02*
X130748955Y-178049819D01*
X130748955Y-178049819D02*
X130987050Y-178049819D01*
X130987050Y-178049819D02*
X131129907Y-178097438D01*
X131129907Y-178097438D02*
X131225145Y-178192676D01*
X131225145Y-178192676D02*
X131272764Y-178287914D01*
X131272764Y-178287914D02*
X131320383Y-178478390D01*
X131320383Y-178478390D02*
X131320383Y-178621247D01*
X131320383Y-178621247D02*
X131272764Y-178811723D01*
X131272764Y-178811723D02*
X131225145Y-178906961D01*
X131225145Y-178906961D02*
X131129907Y-179002200D01*
X131129907Y-179002200D02*
X130987050Y-179049819D01*
X130987050Y-179049819D02*
X130748955Y-179049819D01*
X132225145Y-178049819D02*
X131748955Y-178049819D01*
X131748955Y-178049819D02*
X131701336Y-178526009D01*
X131701336Y-178526009D02*
X131748955Y-178478390D01*
X131748955Y-178478390D02*
X131844193Y-178430771D01*
X131844193Y-178430771D02*
X132082288Y-178430771D01*
X132082288Y-178430771D02*
X132177526Y-178478390D01*
X132177526Y-178478390D02*
X132225145Y-178526009D01*
X132225145Y-178526009D02*
X132272764Y-178621247D01*
X132272764Y-178621247D02*
X132272764Y-178859342D01*
X132272764Y-178859342D02*
X132225145Y-178954580D01*
X132225145Y-178954580D02*
X132177526Y-179002200D01*
X132177526Y-179002200D02*
X132082288Y-179049819D01*
X132082288Y-179049819D02*
X131844193Y-179049819D01*
X131844193Y-179049819D02*
X131748955Y-179002200D01*
X131748955Y-179002200D02*
X131701336Y-178954580D01*
%TO.C,U3*%
X91948095Y-162359819D02*
X91948095Y-163169342D01*
X91948095Y-163169342D02*
X91995714Y-163264580D01*
X91995714Y-163264580D02*
X92043333Y-163312200D01*
X92043333Y-163312200D02*
X92138571Y-163359819D01*
X92138571Y-163359819D02*
X92329047Y-163359819D01*
X92329047Y-163359819D02*
X92424285Y-163312200D01*
X92424285Y-163312200D02*
X92471904Y-163264580D01*
X92471904Y-163264580D02*
X92519523Y-163169342D01*
X92519523Y-163169342D02*
X92519523Y-162359819D01*
X92900476Y-162359819D02*
X93519523Y-162359819D01*
X93519523Y-162359819D02*
X93186190Y-162740771D01*
X93186190Y-162740771D02*
X93329047Y-162740771D01*
X93329047Y-162740771D02*
X93424285Y-162788390D01*
X93424285Y-162788390D02*
X93471904Y-162836009D01*
X93471904Y-162836009D02*
X93519523Y-162931247D01*
X93519523Y-162931247D02*
X93519523Y-163169342D01*
X93519523Y-163169342D02*
X93471904Y-163264580D01*
X93471904Y-163264580D02*
X93424285Y-163312200D01*
X93424285Y-163312200D02*
X93329047Y-163359819D01*
X93329047Y-163359819D02*
X93043333Y-163359819D01*
X93043333Y-163359819D02*
X92948095Y-163312200D01*
X92948095Y-163312200D02*
X92900476Y-163264580D01*
%TO.C,U5*%
X100004819Y-145314904D02*
X100814342Y-145314904D01*
X100814342Y-145314904D02*
X100909580Y-145267285D01*
X100909580Y-145267285D02*
X100957200Y-145219666D01*
X100957200Y-145219666D02*
X101004819Y-145124428D01*
X101004819Y-145124428D02*
X101004819Y-144933952D01*
X101004819Y-144933952D02*
X100957200Y-144838714D01*
X100957200Y-144838714D02*
X100909580Y-144791095D01*
X100909580Y-144791095D02*
X100814342Y-144743476D01*
X100814342Y-144743476D02*
X100004819Y-144743476D01*
X100004819Y-143791095D02*
X100004819Y-144267285D01*
X100004819Y-144267285D02*
X100481009Y-144314904D01*
X100481009Y-144314904D02*
X100433390Y-144267285D01*
X100433390Y-144267285D02*
X100385771Y-144172047D01*
X100385771Y-144172047D02*
X100385771Y-143933952D01*
X100385771Y-143933952D02*
X100433390Y-143838714D01*
X100433390Y-143838714D02*
X100481009Y-143791095D01*
X100481009Y-143791095D02*
X100576247Y-143743476D01*
X100576247Y-143743476D02*
X100814342Y-143743476D01*
X100814342Y-143743476D02*
X100909580Y-143791095D01*
X100909580Y-143791095D02*
X100957200Y-143838714D01*
X100957200Y-143838714D02*
X101004819Y-143933952D01*
X101004819Y-143933952D02*
X101004819Y-144172047D01*
X101004819Y-144172047D02*
X100957200Y-144267285D01*
X100957200Y-144267285D02*
X100909580Y-144314904D01*
%TO.C,D7*%
X130748955Y-175239819D02*
X130748955Y-174239819D01*
X130748955Y-174239819D02*
X130987050Y-174239819D01*
X130987050Y-174239819D02*
X131129907Y-174287438D01*
X131129907Y-174287438D02*
X131225145Y-174382676D01*
X131225145Y-174382676D02*
X131272764Y-174477914D01*
X131272764Y-174477914D02*
X131320383Y-174668390D01*
X131320383Y-174668390D02*
X131320383Y-174811247D01*
X131320383Y-174811247D02*
X131272764Y-175001723D01*
X131272764Y-175001723D02*
X131225145Y-175096961D01*
X131225145Y-175096961D02*
X131129907Y-175192200D01*
X131129907Y-175192200D02*
X130987050Y-175239819D01*
X130987050Y-175239819D02*
X130748955Y-175239819D01*
X131653717Y-174239819D02*
X132320383Y-174239819D01*
X132320383Y-174239819D02*
X131891812Y-175239819D01*
%TO.C,Q4*%
X83724761Y-144060057D02*
X83629523Y-144012438D01*
X83629523Y-144012438D02*
X83534285Y-143917200D01*
X83534285Y-143917200D02*
X83391428Y-143774342D01*
X83391428Y-143774342D02*
X83296190Y-143726723D01*
X83296190Y-143726723D02*
X83200952Y-143726723D01*
X83248571Y-143964819D02*
X83153333Y-143917200D01*
X83153333Y-143917200D02*
X83058095Y-143821961D01*
X83058095Y-143821961D02*
X83010476Y-143631485D01*
X83010476Y-143631485D02*
X83010476Y-143298152D01*
X83010476Y-143298152D02*
X83058095Y-143107676D01*
X83058095Y-143107676D02*
X83153333Y-143012438D01*
X83153333Y-143012438D02*
X83248571Y-142964819D01*
X83248571Y-142964819D02*
X83439047Y-142964819D01*
X83439047Y-142964819D02*
X83534285Y-143012438D01*
X83534285Y-143012438D02*
X83629523Y-143107676D01*
X83629523Y-143107676D02*
X83677142Y-143298152D01*
X83677142Y-143298152D02*
X83677142Y-143631485D01*
X83677142Y-143631485D02*
X83629523Y-143821961D01*
X83629523Y-143821961D02*
X83534285Y-143917200D01*
X83534285Y-143917200D02*
X83439047Y-143964819D01*
X83439047Y-143964819D02*
X83248571Y-143964819D01*
X84534285Y-143298152D02*
X84534285Y-143964819D01*
X84296190Y-142917200D02*
X84058095Y-143631485D01*
X84058095Y-143631485D02*
X84677142Y-143631485D01*
%TO.C,R6*%
X77763333Y-178699819D02*
X77430000Y-178223628D01*
X77191905Y-178699819D02*
X77191905Y-177699819D01*
X77191905Y-177699819D02*
X77572857Y-177699819D01*
X77572857Y-177699819D02*
X77668095Y-177747438D01*
X77668095Y-177747438D02*
X77715714Y-177795057D01*
X77715714Y-177795057D02*
X77763333Y-177890295D01*
X77763333Y-177890295D02*
X77763333Y-178033152D01*
X77763333Y-178033152D02*
X77715714Y-178128390D01*
X77715714Y-178128390D02*
X77668095Y-178176009D01*
X77668095Y-178176009D02*
X77572857Y-178223628D01*
X77572857Y-178223628D02*
X77191905Y-178223628D01*
X78620476Y-177699819D02*
X78430000Y-177699819D01*
X78430000Y-177699819D02*
X78334762Y-177747438D01*
X78334762Y-177747438D02*
X78287143Y-177795057D01*
X78287143Y-177795057D02*
X78191905Y-177937914D01*
X78191905Y-177937914D02*
X78144286Y-178128390D01*
X78144286Y-178128390D02*
X78144286Y-178509342D01*
X78144286Y-178509342D02*
X78191905Y-178604580D01*
X78191905Y-178604580D02*
X78239524Y-178652200D01*
X78239524Y-178652200D02*
X78334762Y-178699819D01*
X78334762Y-178699819D02*
X78525238Y-178699819D01*
X78525238Y-178699819D02*
X78620476Y-178652200D01*
X78620476Y-178652200D02*
X78668095Y-178604580D01*
X78668095Y-178604580D02*
X78715714Y-178509342D01*
X78715714Y-178509342D02*
X78715714Y-178271247D01*
X78715714Y-178271247D02*
X78668095Y-178176009D01*
X78668095Y-178176009D02*
X78620476Y-178128390D01*
X78620476Y-178128390D02*
X78525238Y-178080771D01*
X78525238Y-178080771D02*
X78334762Y-178080771D01*
X78334762Y-178080771D02*
X78239524Y-178128390D01*
X78239524Y-178128390D02*
X78191905Y-178176009D01*
X78191905Y-178176009D02*
X78144286Y-178271247D01*
%TO.C,U2*%
X84328095Y-73114819D02*
X84328095Y-73924342D01*
X84328095Y-73924342D02*
X84375714Y-74019580D01*
X84375714Y-74019580D02*
X84423333Y-74067200D01*
X84423333Y-74067200D02*
X84518571Y-74114819D01*
X84518571Y-74114819D02*
X84709047Y-74114819D01*
X84709047Y-74114819D02*
X84804285Y-74067200D01*
X84804285Y-74067200D02*
X84851904Y-74019580D01*
X84851904Y-74019580D02*
X84899523Y-73924342D01*
X84899523Y-73924342D02*
X84899523Y-73114819D01*
X85328095Y-73210057D02*
X85375714Y-73162438D01*
X85375714Y-73162438D02*
X85470952Y-73114819D01*
X85470952Y-73114819D02*
X85709047Y-73114819D01*
X85709047Y-73114819D02*
X85804285Y-73162438D01*
X85804285Y-73162438D02*
X85851904Y-73210057D01*
X85851904Y-73210057D02*
X85899523Y-73305295D01*
X85899523Y-73305295D02*
X85899523Y-73400533D01*
X85899523Y-73400533D02*
X85851904Y-73543390D01*
X85851904Y-73543390D02*
X85280476Y-74114819D01*
X85280476Y-74114819D02*
X85899523Y-74114819D01*
%TO.C,U1*%
X117348095Y-95757819D02*
X117348095Y-96567342D01*
X117348095Y-96567342D02*
X117395714Y-96662580D01*
X117395714Y-96662580D02*
X117443333Y-96710200D01*
X117443333Y-96710200D02*
X117538571Y-96757819D01*
X117538571Y-96757819D02*
X117729047Y-96757819D01*
X117729047Y-96757819D02*
X117824285Y-96710200D01*
X117824285Y-96710200D02*
X117871904Y-96662580D01*
X117871904Y-96662580D02*
X117919523Y-96567342D01*
X117919523Y-96567342D02*
X117919523Y-95757819D01*
X118919523Y-96757819D02*
X118348095Y-96757819D01*
X118633809Y-96757819D02*
X118633809Y-95757819D01*
X118633809Y-95757819D02*
X118538571Y-95900676D01*
X118538571Y-95900676D02*
X118443333Y-95995914D01*
X118443333Y-95995914D02*
X118348095Y-96043533D01*
X113038095Y-76707819D02*
X113038095Y-77517342D01*
X113038095Y-77517342D02*
X113085714Y-77612580D01*
X113085714Y-77612580D02*
X113133333Y-77660200D01*
X113133333Y-77660200D02*
X113228571Y-77707819D01*
X113228571Y-77707819D02*
X113419047Y-77707819D01*
X113419047Y-77707819D02*
X113514285Y-77660200D01*
X113514285Y-77660200D02*
X113561904Y-77612580D01*
X113561904Y-77612580D02*
X113609523Y-77517342D01*
X113609523Y-77517342D02*
X113609523Y-76707819D01*
X114038095Y-77660200D02*
X114180952Y-77707819D01*
X114180952Y-77707819D02*
X114419047Y-77707819D01*
X114419047Y-77707819D02*
X114514285Y-77660200D01*
X114514285Y-77660200D02*
X114561904Y-77612580D01*
X114561904Y-77612580D02*
X114609523Y-77517342D01*
X114609523Y-77517342D02*
X114609523Y-77422104D01*
X114609523Y-77422104D02*
X114561904Y-77326866D01*
X114561904Y-77326866D02*
X114514285Y-77279247D01*
X114514285Y-77279247D02*
X114419047Y-77231628D01*
X114419047Y-77231628D02*
X114228571Y-77184009D01*
X114228571Y-77184009D02*
X114133333Y-77136390D01*
X114133333Y-77136390D02*
X114085714Y-77088771D01*
X114085714Y-77088771D02*
X114038095Y-76993533D01*
X114038095Y-76993533D02*
X114038095Y-76898295D01*
X114038095Y-76898295D02*
X114085714Y-76803057D01*
X114085714Y-76803057D02*
X114133333Y-76755438D01*
X114133333Y-76755438D02*
X114228571Y-76707819D01*
X114228571Y-76707819D02*
X114466666Y-76707819D01*
X114466666Y-76707819D02*
X114609523Y-76755438D01*
X115371428Y-77184009D02*
X115514285Y-77231628D01*
X115514285Y-77231628D02*
X115561904Y-77279247D01*
X115561904Y-77279247D02*
X115609523Y-77374485D01*
X115609523Y-77374485D02*
X115609523Y-77517342D01*
X115609523Y-77517342D02*
X115561904Y-77612580D01*
X115561904Y-77612580D02*
X115514285Y-77660200D01*
X115514285Y-77660200D02*
X115419047Y-77707819D01*
X115419047Y-77707819D02*
X115038095Y-77707819D01*
X115038095Y-77707819D02*
X115038095Y-76707819D01*
X115038095Y-76707819D02*
X115371428Y-76707819D01*
X115371428Y-76707819D02*
X115466666Y-76755438D01*
X115466666Y-76755438D02*
X115514285Y-76803057D01*
X115514285Y-76803057D02*
X115561904Y-76898295D01*
X115561904Y-76898295D02*
X115561904Y-76993533D01*
X115561904Y-76993533D02*
X115514285Y-77088771D01*
X115514285Y-77088771D02*
X115466666Y-77136390D01*
X115466666Y-77136390D02*
X115371428Y-77184009D01*
X115371428Y-77184009D02*
X115038095Y-77184009D01*
X125182380Y-82787819D02*
X124849047Y-82311628D01*
X124610952Y-82787819D02*
X124610952Y-81787819D01*
X124610952Y-81787819D02*
X124991904Y-81787819D01*
X124991904Y-81787819D02*
X125087142Y-81835438D01*
X125087142Y-81835438D02*
X125134761Y-81883057D01*
X125134761Y-81883057D02*
X125182380Y-81978295D01*
X125182380Y-81978295D02*
X125182380Y-82121152D01*
X125182380Y-82121152D02*
X125134761Y-82216390D01*
X125134761Y-82216390D02*
X125087142Y-82264009D01*
X125087142Y-82264009D02*
X124991904Y-82311628D01*
X124991904Y-82311628D02*
X124610952Y-82311628D01*
X125563333Y-82740200D02*
X125706190Y-82787819D01*
X125706190Y-82787819D02*
X125944285Y-82787819D01*
X125944285Y-82787819D02*
X126039523Y-82740200D01*
X126039523Y-82740200D02*
X126087142Y-82692580D01*
X126087142Y-82692580D02*
X126134761Y-82597342D01*
X126134761Y-82597342D02*
X126134761Y-82502104D01*
X126134761Y-82502104D02*
X126087142Y-82406866D01*
X126087142Y-82406866D02*
X126039523Y-82359247D01*
X126039523Y-82359247D02*
X125944285Y-82311628D01*
X125944285Y-82311628D02*
X125753809Y-82264009D01*
X125753809Y-82264009D02*
X125658571Y-82216390D01*
X125658571Y-82216390D02*
X125610952Y-82168771D01*
X125610952Y-82168771D02*
X125563333Y-82073533D01*
X125563333Y-82073533D02*
X125563333Y-81978295D01*
X125563333Y-81978295D02*
X125610952Y-81883057D01*
X125610952Y-81883057D02*
X125658571Y-81835438D01*
X125658571Y-81835438D02*
X125753809Y-81787819D01*
X125753809Y-81787819D02*
X125991904Y-81787819D01*
X125991904Y-81787819D02*
X126134761Y-81835438D01*
X126420476Y-81787819D02*
X126991904Y-81787819D01*
X126706190Y-82787819D02*
X126706190Y-81787819D01*
%TO.C,R18*%
X85717142Y-127624819D02*
X85383809Y-127148628D01*
X85145714Y-127624819D02*
X85145714Y-126624819D01*
X85145714Y-126624819D02*
X85526666Y-126624819D01*
X85526666Y-126624819D02*
X85621904Y-126672438D01*
X85621904Y-126672438D02*
X85669523Y-126720057D01*
X85669523Y-126720057D02*
X85717142Y-126815295D01*
X85717142Y-126815295D02*
X85717142Y-126958152D01*
X85717142Y-126958152D02*
X85669523Y-127053390D01*
X85669523Y-127053390D02*
X85621904Y-127101009D01*
X85621904Y-127101009D02*
X85526666Y-127148628D01*
X85526666Y-127148628D02*
X85145714Y-127148628D01*
X86669523Y-127624819D02*
X86098095Y-127624819D01*
X86383809Y-127624819D02*
X86383809Y-126624819D01*
X86383809Y-126624819D02*
X86288571Y-126767676D01*
X86288571Y-126767676D02*
X86193333Y-126862914D01*
X86193333Y-126862914D02*
X86098095Y-126910533D01*
X87240952Y-127053390D02*
X87145714Y-127005771D01*
X87145714Y-127005771D02*
X87098095Y-126958152D01*
X87098095Y-126958152D02*
X87050476Y-126862914D01*
X87050476Y-126862914D02*
X87050476Y-126815295D01*
X87050476Y-126815295D02*
X87098095Y-126720057D01*
X87098095Y-126720057D02*
X87145714Y-126672438D01*
X87145714Y-126672438D02*
X87240952Y-126624819D01*
X87240952Y-126624819D02*
X87431428Y-126624819D01*
X87431428Y-126624819D02*
X87526666Y-126672438D01*
X87526666Y-126672438D02*
X87574285Y-126720057D01*
X87574285Y-126720057D02*
X87621904Y-126815295D01*
X87621904Y-126815295D02*
X87621904Y-126862914D01*
X87621904Y-126862914D02*
X87574285Y-126958152D01*
X87574285Y-126958152D02*
X87526666Y-127005771D01*
X87526666Y-127005771D02*
X87431428Y-127053390D01*
X87431428Y-127053390D02*
X87240952Y-127053390D01*
X87240952Y-127053390D02*
X87145714Y-127101009D01*
X87145714Y-127101009D02*
X87098095Y-127148628D01*
X87098095Y-127148628D02*
X87050476Y-127243866D01*
X87050476Y-127243866D02*
X87050476Y-127434342D01*
X87050476Y-127434342D02*
X87098095Y-127529580D01*
X87098095Y-127529580D02*
X87145714Y-127577200D01*
X87145714Y-127577200D02*
X87240952Y-127624819D01*
X87240952Y-127624819D02*
X87431428Y-127624819D01*
X87431428Y-127624819D02*
X87526666Y-127577200D01*
X87526666Y-127577200D02*
X87574285Y-127529580D01*
X87574285Y-127529580D02*
X87621904Y-127434342D01*
X87621904Y-127434342D02*
X87621904Y-127243866D01*
X87621904Y-127243866D02*
X87574285Y-127148628D01*
X87574285Y-127148628D02*
X87526666Y-127101009D01*
X87526666Y-127101009D02*
X87431428Y-127053390D01*
%TO.C,R27*%
X118737142Y-147727819D02*
X118403809Y-147251628D01*
X118165714Y-147727819D02*
X118165714Y-146727819D01*
X118165714Y-146727819D02*
X118546666Y-146727819D01*
X118546666Y-146727819D02*
X118641904Y-146775438D01*
X118641904Y-146775438D02*
X118689523Y-146823057D01*
X118689523Y-146823057D02*
X118737142Y-146918295D01*
X118737142Y-146918295D02*
X118737142Y-147061152D01*
X118737142Y-147061152D02*
X118689523Y-147156390D01*
X118689523Y-147156390D02*
X118641904Y-147204009D01*
X118641904Y-147204009D02*
X118546666Y-147251628D01*
X118546666Y-147251628D02*
X118165714Y-147251628D01*
X119118095Y-146823057D02*
X119165714Y-146775438D01*
X119165714Y-146775438D02*
X119260952Y-146727819D01*
X119260952Y-146727819D02*
X119499047Y-146727819D01*
X119499047Y-146727819D02*
X119594285Y-146775438D01*
X119594285Y-146775438D02*
X119641904Y-146823057D01*
X119641904Y-146823057D02*
X119689523Y-146918295D01*
X119689523Y-146918295D02*
X119689523Y-147013533D01*
X119689523Y-147013533D02*
X119641904Y-147156390D01*
X119641904Y-147156390D02*
X119070476Y-147727819D01*
X119070476Y-147727819D02*
X119689523Y-147727819D01*
X120022857Y-146727819D02*
X120689523Y-146727819D01*
X120689523Y-146727819D02*
X120260952Y-147727819D01*
%TO.C,R13*%
X131437142Y-149044819D02*
X131103809Y-148568628D01*
X130865714Y-149044819D02*
X130865714Y-148044819D01*
X130865714Y-148044819D02*
X131246666Y-148044819D01*
X131246666Y-148044819D02*
X131341904Y-148092438D01*
X131341904Y-148092438D02*
X131389523Y-148140057D01*
X131389523Y-148140057D02*
X131437142Y-148235295D01*
X131437142Y-148235295D02*
X131437142Y-148378152D01*
X131437142Y-148378152D02*
X131389523Y-148473390D01*
X131389523Y-148473390D02*
X131341904Y-148521009D01*
X131341904Y-148521009D02*
X131246666Y-148568628D01*
X131246666Y-148568628D02*
X130865714Y-148568628D01*
X132389523Y-149044819D02*
X131818095Y-149044819D01*
X132103809Y-149044819D02*
X132103809Y-148044819D01*
X132103809Y-148044819D02*
X132008571Y-148187676D01*
X132008571Y-148187676D02*
X131913333Y-148282914D01*
X131913333Y-148282914D02*
X131818095Y-148330533D01*
X132722857Y-148044819D02*
X133341904Y-148044819D01*
X133341904Y-148044819D02*
X133008571Y-148425771D01*
X133008571Y-148425771D02*
X133151428Y-148425771D01*
X133151428Y-148425771D02*
X133246666Y-148473390D01*
X133246666Y-148473390D02*
X133294285Y-148521009D01*
X133294285Y-148521009D02*
X133341904Y-148616247D01*
X133341904Y-148616247D02*
X133341904Y-148854342D01*
X133341904Y-148854342D02*
X133294285Y-148949580D01*
X133294285Y-148949580D02*
X133246666Y-148997200D01*
X133246666Y-148997200D02*
X133151428Y-149044819D01*
X133151428Y-149044819D02*
X132865714Y-149044819D01*
X132865714Y-149044819D02*
X132770476Y-148997200D01*
X132770476Y-148997200D02*
X132722857Y-148949580D01*
%TO.C,R14*%
X93337142Y-150287819D02*
X93003809Y-149811628D01*
X92765714Y-150287819D02*
X92765714Y-149287819D01*
X92765714Y-149287819D02*
X93146666Y-149287819D01*
X93146666Y-149287819D02*
X93241904Y-149335438D01*
X93241904Y-149335438D02*
X93289523Y-149383057D01*
X93289523Y-149383057D02*
X93337142Y-149478295D01*
X93337142Y-149478295D02*
X93337142Y-149621152D01*
X93337142Y-149621152D02*
X93289523Y-149716390D01*
X93289523Y-149716390D02*
X93241904Y-149764009D01*
X93241904Y-149764009D02*
X93146666Y-149811628D01*
X93146666Y-149811628D02*
X92765714Y-149811628D01*
X94289523Y-150287819D02*
X93718095Y-150287819D01*
X94003809Y-150287819D02*
X94003809Y-149287819D01*
X94003809Y-149287819D02*
X93908571Y-149430676D01*
X93908571Y-149430676D02*
X93813333Y-149525914D01*
X93813333Y-149525914D02*
X93718095Y-149573533D01*
X95146666Y-149621152D02*
X95146666Y-150287819D01*
X94908571Y-149240200D02*
X94670476Y-149954485D01*
X94670476Y-149954485D02*
X95289523Y-149954485D01*
%TO.C,Q3*%
X93884761Y-145330057D02*
X93789523Y-145282438D01*
X93789523Y-145282438D02*
X93694285Y-145187200D01*
X93694285Y-145187200D02*
X93551428Y-145044342D01*
X93551428Y-145044342D02*
X93456190Y-144996723D01*
X93456190Y-144996723D02*
X93360952Y-144996723D01*
X93408571Y-145234819D02*
X93313333Y-145187200D01*
X93313333Y-145187200D02*
X93218095Y-145091961D01*
X93218095Y-145091961D02*
X93170476Y-144901485D01*
X93170476Y-144901485D02*
X93170476Y-144568152D01*
X93170476Y-144568152D02*
X93218095Y-144377676D01*
X93218095Y-144377676D02*
X93313333Y-144282438D01*
X93313333Y-144282438D02*
X93408571Y-144234819D01*
X93408571Y-144234819D02*
X93599047Y-144234819D01*
X93599047Y-144234819D02*
X93694285Y-144282438D01*
X93694285Y-144282438D02*
X93789523Y-144377676D01*
X93789523Y-144377676D02*
X93837142Y-144568152D01*
X93837142Y-144568152D02*
X93837142Y-144901485D01*
X93837142Y-144901485D02*
X93789523Y-145091961D01*
X93789523Y-145091961D02*
X93694285Y-145187200D01*
X93694285Y-145187200D02*
X93599047Y-145234819D01*
X93599047Y-145234819D02*
X93408571Y-145234819D01*
X94170476Y-144234819D02*
X94789523Y-144234819D01*
X94789523Y-144234819D02*
X94456190Y-144615771D01*
X94456190Y-144615771D02*
X94599047Y-144615771D01*
X94599047Y-144615771D02*
X94694285Y-144663390D01*
X94694285Y-144663390D02*
X94741904Y-144711009D01*
X94741904Y-144711009D02*
X94789523Y-144806247D01*
X94789523Y-144806247D02*
X94789523Y-145044342D01*
X94789523Y-145044342D02*
X94741904Y-145139580D01*
X94741904Y-145139580D02*
X94694285Y-145187200D01*
X94694285Y-145187200D02*
X94599047Y-145234819D01*
X94599047Y-145234819D02*
X94313333Y-145234819D01*
X94313333Y-145234819D02*
X94218095Y-145187200D01*
X94218095Y-145187200D02*
X94170476Y-145139580D01*
%TO.C,Q7*%
X120554761Y-140283057D02*
X120459523Y-140235438D01*
X120459523Y-140235438D02*
X120364285Y-140140200D01*
X120364285Y-140140200D02*
X120221428Y-139997342D01*
X120221428Y-139997342D02*
X120126190Y-139949723D01*
X120126190Y-139949723D02*
X120030952Y-139949723D01*
X120078571Y-140187819D02*
X119983333Y-140140200D01*
X119983333Y-140140200D02*
X119888095Y-140044961D01*
X119888095Y-140044961D02*
X119840476Y-139854485D01*
X119840476Y-139854485D02*
X119840476Y-139521152D01*
X119840476Y-139521152D02*
X119888095Y-139330676D01*
X119888095Y-139330676D02*
X119983333Y-139235438D01*
X119983333Y-139235438D02*
X120078571Y-139187819D01*
X120078571Y-139187819D02*
X120269047Y-139187819D01*
X120269047Y-139187819D02*
X120364285Y-139235438D01*
X120364285Y-139235438D02*
X120459523Y-139330676D01*
X120459523Y-139330676D02*
X120507142Y-139521152D01*
X120507142Y-139521152D02*
X120507142Y-139854485D01*
X120507142Y-139854485D02*
X120459523Y-140044961D01*
X120459523Y-140044961D02*
X120364285Y-140140200D01*
X120364285Y-140140200D02*
X120269047Y-140187819D01*
X120269047Y-140187819D02*
X120078571Y-140187819D01*
X120840476Y-139187819D02*
X121507142Y-139187819D01*
X121507142Y-139187819D02*
X121078571Y-140187819D01*
%TO.C,R17*%
X81354819Y-165742857D02*
X80878628Y-166076190D01*
X81354819Y-166314285D02*
X80354819Y-166314285D01*
X80354819Y-166314285D02*
X80354819Y-165933333D01*
X80354819Y-165933333D02*
X80402438Y-165838095D01*
X80402438Y-165838095D02*
X80450057Y-165790476D01*
X80450057Y-165790476D02*
X80545295Y-165742857D01*
X80545295Y-165742857D02*
X80688152Y-165742857D01*
X80688152Y-165742857D02*
X80783390Y-165790476D01*
X80783390Y-165790476D02*
X80831009Y-165838095D01*
X80831009Y-165838095D02*
X80878628Y-165933333D01*
X80878628Y-165933333D02*
X80878628Y-166314285D01*
X81354819Y-164790476D02*
X81354819Y-165361904D01*
X81354819Y-165076190D02*
X80354819Y-165076190D01*
X80354819Y-165076190D02*
X80497676Y-165171428D01*
X80497676Y-165171428D02*
X80592914Y-165266666D01*
X80592914Y-165266666D02*
X80640533Y-165361904D01*
X80354819Y-164457142D02*
X80354819Y-163790476D01*
X80354819Y-163790476D02*
X81354819Y-164219047D01*
%TO.C,R2*%
X105400383Y-175399819D02*
X105067050Y-174923628D01*
X104828955Y-175399819D02*
X104828955Y-174399819D01*
X104828955Y-174399819D02*
X105209907Y-174399819D01*
X105209907Y-174399819D02*
X105305145Y-174447438D01*
X105305145Y-174447438D02*
X105352764Y-174495057D01*
X105352764Y-174495057D02*
X105400383Y-174590295D01*
X105400383Y-174590295D02*
X105400383Y-174733152D01*
X105400383Y-174733152D02*
X105352764Y-174828390D01*
X105352764Y-174828390D02*
X105305145Y-174876009D01*
X105305145Y-174876009D02*
X105209907Y-174923628D01*
X105209907Y-174923628D02*
X104828955Y-174923628D01*
X105781336Y-174495057D02*
X105828955Y-174447438D01*
X105828955Y-174447438D02*
X105924193Y-174399819D01*
X105924193Y-174399819D02*
X106162288Y-174399819D01*
X106162288Y-174399819D02*
X106257526Y-174447438D01*
X106257526Y-174447438D02*
X106305145Y-174495057D01*
X106305145Y-174495057D02*
X106352764Y-174590295D01*
X106352764Y-174590295D02*
X106352764Y-174685533D01*
X106352764Y-174685533D02*
X106305145Y-174828390D01*
X106305145Y-174828390D02*
X105733717Y-175399819D01*
X105733717Y-175399819D02*
X106352764Y-175399819D01*
%TO.C,D9*%
X100861905Y-133157819D02*
X100861905Y-132157819D01*
X100861905Y-132157819D02*
X101100000Y-132157819D01*
X101100000Y-132157819D02*
X101242857Y-132205438D01*
X101242857Y-132205438D02*
X101338095Y-132300676D01*
X101338095Y-132300676D02*
X101385714Y-132395914D01*
X101385714Y-132395914D02*
X101433333Y-132586390D01*
X101433333Y-132586390D02*
X101433333Y-132729247D01*
X101433333Y-132729247D02*
X101385714Y-132919723D01*
X101385714Y-132919723D02*
X101338095Y-133014961D01*
X101338095Y-133014961D02*
X101242857Y-133110200D01*
X101242857Y-133110200D02*
X101100000Y-133157819D01*
X101100000Y-133157819D02*
X100861905Y-133157819D01*
X101909524Y-133157819D02*
X102100000Y-133157819D01*
X102100000Y-133157819D02*
X102195238Y-133110200D01*
X102195238Y-133110200D02*
X102242857Y-133062580D01*
X102242857Y-133062580D02*
X102338095Y-132919723D01*
X102338095Y-132919723D02*
X102385714Y-132729247D01*
X102385714Y-132729247D02*
X102385714Y-132348295D01*
X102385714Y-132348295D02*
X102338095Y-132253057D01*
X102338095Y-132253057D02*
X102290476Y-132205438D01*
X102290476Y-132205438D02*
X102195238Y-132157819D01*
X102195238Y-132157819D02*
X102004762Y-132157819D01*
X102004762Y-132157819D02*
X101909524Y-132205438D01*
X101909524Y-132205438D02*
X101861905Y-132253057D01*
X101861905Y-132253057D02*
X101814286Y-132348295D01*
X101814286Y-132348295D02*
X101814286Y-132586390D01*
X101814286Y-132586390D02*
X101861905Y-132681628D01*
X101861905Y-132681628D02*
X101909524Y-132729247D01*
X101909524Y-132729247D02*
X102004762Y-132776866D01*
X102004762Y-132776866D02*
X102195238Y-132776866D01*
X102195238Y-132776866D02*
X102290476Y-132729247D01*
X102290476Y-132729247D02*
X102338095Y-132681628D01*
X102338095Y-132681628D02*
X102385714Y-132586390D01*
%TO.C,Q1*%
X137710057Y-141065238D02*
X137662438Y-141160476D01*
X137662438Y-141160476D02*
X137567200Y-141255714D01*
X137567200Y-141255714D02*
X137424342Y-141398571D01*
X137424342Y-141398571D02*
X137376723Y-141493809D01*
X137376723Y-141493809D02*
X137376723Y-141589047D01*
X137614819Y-141541428D02*
X137567200Y-141636666D01*
X137567200Y-141636666D02*
X137471961Y-141731904D01*
X137471961Y-141731904D02*
X137281485Y-141779523D01*
X137281485Y-141779523D02*
X136948152Y-141779523D01*
X136948152Y-141779523D02*
X136757676Y-141731904D01*
X136757676Y-141731904D02*
X136662438Y-141636666D01*
X136662438Y-141636666D02*
X136614819Y-141541428D01*
X136614819Y-141541428D02*
X136614819Y-141350952D01*
X136614819Y-141350952D02*
X136662438Y-141255714D01*
X136662438Y-141255714D02*
X136757676Y-141160476D01*
X136757676Y-141160476D02*
X136948152Y-141112857D01*
X136948152Y-141112857D02*
X137281485Y-141112857D01*
X137281485Y-141112857D02*
X137471961Y-141160476D01*
X137471961Y-141160476D02*
X137567200Y-141255714D01*
X137567200Y-141255714D02*
X137614819Y-141350952D01*
X137614819Y-141350952D02*
X137614819Y-141541428D01*
X137614819Y-140160476D02*
X137614819Y-140731904D01*
X137614819Y-140446190D02*
X136614819Y-140446190D01*
X136614819Y-140446190D02*
X136757676Y-140541428D01*
X136757676Y-140541428D02*
X136852914Y-140636666D01*
X136852914Y-140636666D02*
X136900533Y-140731904D01*
%TO.C,R24*%
X118737142Y-133804819D02*
X118403809Y-133328628D01*
X118165714Y-133804819D02*
X118165714Y-132804819D01*
X118165714Y-132804819D02*
X118546666Y-132804819D01*
X118546666Y-132804819D02*
X118641904Y-132852438D01*
X118641904Y-132852438D02*
X118689523Y-132900057D01*
X118689523Y-132900057D02*
X118737142Y-132995295D01*
X118737142Y-132995295D02*
X118737142Y-133138152D01*
X118737142Y-133138152D02*
X118689523Y-133233390D01*
X118689523Y-133233390D02*
X118641904Y-133281009D01*
X118641904Y-133281009D02*
X118546666Y-133328628D01*
X118546666Y-133328628D02*
X118165714Y-133328628D01*
X119118095Y-132900057D02*
X119165714Y-132852438D01*
X119165714Y-132852438D02*
X119260952Y-132804819D01*
X119260952Y-132804819D02*
X119499047Y-132804819D01*
X119499047Y-132804819D02*
X119594285Y-132852438D01*
X119594285Y-132852438D02*
X119641904Y-132900057D01*
X119641904Y-132900057D02*
X119689523Y-132995295D01*
X119689523Y-132995295D02*
X119689523Y-133090533D01*
X119689523Y-133090533D02*
X119641904Y-133233390D01*
X119641904Y-133233390D02*
X119070476Y-133804819D01*
X119070476Y-133804819D02*
X119689523Y-133804819D01*
X120546666Y-133138152D02*
X120546666Y-133804819D01*
X120308571Y-132757200D02*
X120070476Y-133471485D01*
X120070476Y-133471485D02*
X120689523Y-133471485D01*
%TO.C,D2*%
X82271905Y-175239819D02*
X82271905Y-174239819D01*
X82271905Y-174239819D02*
X82510000Y-174239819D01*
X82510000Y-174239819D02*
X82652857Y-174287438D01*
X82652857Y-174287438D02*
X82748095Y-174382676D01*
X82748095Y-174382676D02*
X82795714Y-174477914D01*
X82795714Y-174477914D02*
X82843333Y-174668390D01*
X82843333Y-174668390D02*
X82843333Y-174811247D01*
X82843333Y-174811247D02*
X82795714Y-175001723D01*
X82795714Y-175001723D02*
X82748095Y-175096961D01*
X82748095Y-175096961D02*
X82652857Y-175192200D01*
X82652857Y-175192200D02*
X82510000Y-175239819D01*
X82510000Y-175239819D02*
X82271905Y-175239819D01*
X83224286Y-174335057D02*
X83271905Y-174287438D01*
X83271905Y-174287438D02*
X83367143Y-174239819D01*
X83367143Y-174239819D02*
X83605238Y-174239819D01*
X83605238Y-174239819D02*
X83700476Y-174287438D01*
X83700476Y-174287438D02*
X83748095Y-174335057D01*
X83748095Y-174335057D02*
X83795714Y-174430295D01*
X83795714Y-174430295D02*
X83795714Y-174525533D01*
X83795714Y-174525533D02*
X83748095Y-174668390D01*
X83748095Y-174668390D02*
X83176667Y-175239819D01*
X83176667Y-175239819D02*
X83795714Y-175239819D01*
%TO.C,C3*%
X86309580Y-165671666D02*
X86357200Y-165719285D01*
X86357200Y-165719285D02*
X86404819Y-165862142D01*
X86404819Y-165862142D02*
X86404819Y-165957380D01*
X86404819Y-165957380D02*
X86357200Y-166100237D01*
X86357200Y-166100237D02*
X86261961Y-166195475D01*
X86261961Y-166195475D02*
X86166723Y-166243094D01*
X86166723Y-166243094D02*
X85976247Y-166290713D01*
X85976247Y-166290713D02*
X85833390Y-166290713D01*
X85833390Y-166290713D02*
X85642914Y-166243094D01*
X85642914Y-166243094D02*
X85547676Y-166195475D01*
X85547676Y-166195475D02*
X85452438Y-166100237D01*
X85452438Y-166100237D02*
X85404819Y-165957380D01*
X85404819Y-165957380D02*
X85404819Y-165862142D01*
X85404819Y-165862142D02*
X85452438Y-165719285D01*
X85452438Y-165719285D02*
X85500057Y-165671666D01*
X85404819Y-165338332D02*
X85404819Y-164719285D01*
X85404819Y-164719285D02*
X85785771Y-165052618D01*
X85785771Y-165052618D02*
X85785771Y-164909761D01*
X85785771Y-164909761D02*
X85833390Y-164814523D01*
X85833390Y-164814523D02*
X85881009Y-164766904D01*
X85881009Y-164766904D02*
X85976247Y-164719285D01*
X85976247Y-164719285D02*
X86214342Y-164719285D01*
X86214342Y-164719285D02*
X86309580Y-164766904D01*
X86309580Y-164766904D02*
X86357200Y-164814523D01*
X86357200Y-164814523D02*
X86404819Y-164909761D01*
X86404819Y-164909761D02*
X86404819Y-165195475D01*
X86404819Y-165195475D02*
X86357200Y-165290713D01*
X86357200Y-165290713D02*
X86309580Y-165338332D01*
%TO.C,R4*%
X89535080Y-175361162D02*
X89201747Y-174884971D01*
X88963652Y-175361162D02*
X88963652Y-174361162D01*
X88963652Y-174361162D02*
X89344604Y-174361162D01*
X89344604Y-174361162D02*
X89439842Y-174408781D01*
X89439842Y-174408781D02*
X89487461Y-174456400D01*
X89487461Y-174456400D02*
X89535080Y-174551638D01*
X89535080Y-174551638D02*
X89535080Y-174694495D01*
X89535080Y-174694495D02*
X89487461Y-174789733D01*
X89487461Y-174789733D02*
X89439842Y-174837352D01*
X89439842Y-174837352D02*
X89344604Y-174884971D01*
X89344604Y-174884971D02*
X88963652Y-174884971D01*
X90392223Y-174694495D02*
X90392223Y-175361162D01*
X90154128Y-174313543D02*
X89916033Y-175027828D01*
X89916033Y-175027828D02*
X90535080Y-175027828D01*
%TO.C,C2*%
X139533333Y-89259580D02*
X139485714Y-89307200D01*
X139485714Y-89307200D02*
X139342857Y-89354819D01*
X139342857Y-89354819D02*
X139247619Y-89354819D01*
X139247619Y-89354819D02*
X139104762Y-89307200D01*
X139104762Y-89307200D02*
X139009524Y-89211961D01*
X139009524Y-89211961D02*
X138961905Y-89116723D01*
X138961905Y-89116723D02*
X138914286Y-88926247D01*
X138914286Y-88926247D02*
X138914286Y-88783390D01*
X138914286Y-88783390D02*
X138961905Y-88592914D01*
X138961905Y-88592914D02*
X139009524Y-88497676D01*
X139009524Y-88497676D02*
X139104762Y-88402438D01*
X139104762Y-88402438D02*
X139247619Y-88354819D01*
X139247619Y-88354819D02*
X139342857Y-88354819D01*
X139342857Y-88354819D02*
X139485714Y-88402438D01*
X139485714Y-88402438D02*
X139533333Y-88450057D01*
X139914286Y-88450057D02*
X139961905Y-88402438D01*
X139961905Y-88402438D02*
X140057143Y-88354819D01*
X140057143Y-88354819D02*
X140295238Y-88354819D01*
X140295238Y-88354819D02*
X140390476Y-88402438D01*
X140390476Y-88402438D02*
X140438095Y-88450057D01*
X140438095Y-88450057D02*
X140485714Y-88545295D01*
X140485714Y-88545295D02*
X140485714Y-88640533D01*
X140485714Y-88640533D02*
X140438095Y-88783390D01*
X140438095Y-88783390D02*
X139866667Y-89354819D01*
X139866667Y-89354819D02*
X140485714Y-89354819D01*
%TO.C,R10*%
X131437142Y-127407819D02*
X131103809Y-126931628D01*
X130865714Y-127407819D02*
X130865714Y-126407819D01*
X130865714Y-126407819D02*
X131246666Y-126407819D01*
X131246666Y-126407819D02*
X131341904Y-126455438D01*
X131341904Y-126455438D02*
X131389523Y-126503057D01*
X131389523Y-126503057D02*
X131437142Y-126598295D01*
X131437142Y-126598295D02*
X131437142Y-126741152D01*
X131437142Y-126741152D02*
X131389523Y-126836390D01*
X131389523Y-126836390D02*
X131341904Y-126884009D01*
X131341904Y-126884009D02*
X131246666Y-126931628D01*
X131246666Y-126931628D02*
X130865714Y-126931628D01*
X132389523Y-127407819D02*
X131818095Y-127407819D01*
X132103809Y-127407819D02*
X132103809Y-126407819D01*
X132103809Y-126407819D02*
X132008571Y-126550676D01*
X132008571Y-126550676D02*
X131913333Y-126645914D01*
X131913333Y-126645914D02*
X131818095Y-126693533D01*
X133008571Y-126407819D02*
X133103809Y-126407819D01*
X133103809Y-126407819D02*
X133199047Y-126455438D01*
X133199047Y-126455438D02*
X133246666Y-126503057D01*
X133246666Y-126503057D02*
X133294285Y-126598295D01*
X133294285Y-126598295D02*
X133341904Y-126788771D01*
X133341904Y-126788771D02*
X133341904Y-127026866D01*
X133341904Y-127026866D02*
X133294285Y-127217342D01*
X133294285Y-127217342D02*
X133246666Y-127312580D01*
X133246666Y-127312580D02*
X133199047Y-127360200D01*
X133199047Y-127360200D02*
X133103809Y-127407819D01*
X133103809Y-127407819D02*
X133008571Y-127407819D01*
X133008571Y-127407819D02*
X132913333Y-127360200D01*
X132913333Y-127360200D02*
X132865714Y-127312580D01*
X132865714Y-127312580D02*
X132818095Y-127217342D01*
X132818095Y-127217342D02*
X132770476Y-127026866D01*
X132770476Y-127026866D02*
X132770476Y-126788771D01*
X132770476Y-126788771D02*
X132818095Y-126598295D01*
X132818095Y-126598295D02*
X132865714Y-126503057D01*
X132865714Y-126503057D02*
X132913333Y-126455438D01*
X132913333Y-126455438D02*
X133008571Y-126407819D01*
%TO.C,Q2*%
X127550057Y-138525238D02*
X127502438Y-138620476D01*
X127502438Y-138620476D02*
X127407200Y-138715714D01*
X127407200Y-138715714D02*
X127264342Y-138858571D01*
X127264342Y-138858571D02*
X127216723Y-138953809D01*
X127216723Y-138953809D02*
X127216723Y-139049047D01*
X127454819Y-139001428D02*
X127407200Y-139096666D01*
X127407200Y-139096666D02*
X127311961Y-139191904D01*
X127311961Y-139191904D02*
X127121485Y-139239523D01*
X127121485Y-139239523D02*
X126788152Y-139239523D01*
X126788152Y-139239523D02*
X126597676Y-139191904D01*
X126597676Y-139191904D02*
X126502438Y-139096666D01*
X126502438Y-139096666D02*
X126454819Y-139001428D01*
X126454819Y-139001428D02*
X126454819Y-138810952D01*
X126454819Y-138810952D02*
X126502438Y-138715714D01*
X126502438Y-138715714D02*
X126597676Y-138620476D01*
X126597676Y-138620476D02*
X126788152Y-138572857D01*
X126788152Y-138572857D02*
X127121485Y-138572857D01*
X127121485Y-138572857D02*
X127311961Y-138620476D01*
X127311961Y-138620476D02*
X127407200Y-138715714D01*
X127407200Y-138715714D02*
X127454819Y-138810952D01*
X127454819Y-138810952D02*
X127454819Y-139001428D01*
X126550057Y-138191904D02*
X126502438Y-138144285D01*
X126502438Y-138144285D02*
X126454819Y-138049047D01*
X126454819Y-138049047D02*
X126454819Y-137810952D01*
X126454819Y-137810952D02*
X126502438Y-137715714D01*
X126502438Y-137715714D02*
X126550057Y-137668095D01*
X126550057Y-137668095D02*
X126645295Y-137620476D01*
X126645295Y-137620476D02*
X126740533Y-137620476D01*
X126740533Y-137620476D02*
X126883390Y-137668095D01*
X126883390Y-137668095D02*
X127454819Y-138239523D01*
X127454819Y-138239523D02*
X127454819Y-137620476D01*
%TO.C,R9*%
X94615080Y-178661162D02*
X94281747Y-178184971D01*
X94043652Y-178661162D02*
X94043652Y-177661162D01*
X94043652Y-177661162D02*
X94424604Y-177661162D01*
X94424604Y-177661162D02*
X94519842Y-177708781D01*
X94519842Y-177708781D02*
X94567461Y-177756400D01*
X94567461Y-177756400D02*
X94615080Y-177851638D01*
X94615080Y-177851638D02*
X94615080Y-177994495D01*
X94615080Y-177994495D02*
X94567461Y-178089733D01*
X94567461Y-178089733D02*
X94519842Y-178137352D01*
X94519842Y-178137352D02*
X94424604Y-178184971D01*
X94424604Y-178184971D02*
X94043652Y-178184971D01*
X95091271Y-178661162D02*
X95281747Y-178661162D01*
X95281747Y-178661162D02*
X95376985Y-178613543D01*
X95376985Y-178613543D02*
X95424604Y-178565923D01*
X95424604Y-178565923D02*
X95519842Y-178423066D01*
X95519842Y-178423066D02*
X95567461Y-178232590D01*
X95567461Y-178232590D02*
X95567461Y-177851638D01*
X95567461Y-177851638D02*
X95519842Y-177756400D01*
X95519842Y-177756400D02*
X95472223Y-177708781D01*
X95472223Y-177708781D02*
X95376985Y-177661162D01*
X95376985Y-177661162D02*
X95186509Y-177661162D01*
X95186509Y-177661162D02*
X95091271Y-177708781D01*
X95091271Y-177708781D02*
X95043652Y-177756400D01*
X95043652Y-177756400D02*
X94996033Y-177851638D01*
X94996033Y-177851638D02*
X94996033Y-178089733D01*
X94996033Y-178089733D02*
X95043652Y-178184971D01*
X95043652Y-178184971D02*
X95091271Y-178232590D01*
X95091271Y-178232590D02*
X95186509Y-178280209D01*
X95186509Y-178280209D02*
X95376985Y-178280209D01*
X95376985Y-178280209D02*
X95472223Y-178232590D01*
X95472223Y-178232590D02*
X95519842Y-178184971D01*
X95519842Y-178184971D02*
X95567461Y-178089733D01*
%TO.C,C1*%
X104205833Y-170259580D02*
X104158214Y-170307200D01*
X104158214Y-170307200D02*
X104015357Y-170354819D01*
X104015357Y-170354819D02*
X103920119Y-170354819D01*
X103920119Y-170354819D02*
X103777262Y-170307200D01*
X103777262Y-170307200D02*
X103682024Y-170211961D01*
X103682024Y-170211961D02*
X103634405Y-170116723D01*
X103634405Y-170116723D02*
X103586786Y-169926247D01*
X103586786Y-169926247D02*
X103586786Y-169783390D01*
X103586786Y-169783390D02*
X103634405Y-169592914D01*
X103634405Y-169592914D02*
X103682024Y-169497676D01*
X103682024Y-169497676D02*
X103777262Y-169402438D01*
X103777262Y-169402438D02*
X103920119Y-169354819D01*
X103920119Y-169354819D02*
X104015357Y-169354819D01*
X104015357Y-169354819D02*
X104158214Y-169402438D01*
X104158214Y-169402438D02*
X104205833Y-169450057D01*
X105158214Y-170354819D02*
X104586786Y-170354819D01*
X104872500Y-170354819D02*
X104872500Y-169354819D01*
X104872500Y-169354819D02*
X104777262Y-169497676D01*
X104777262Y-169497676D02*
X104682024Y-169592914D01*
X104682024Y-169592914D02*
X104586786Y-169640533D01*
%TO.C,R12*%
X131437142Y-143917819D02*
X131103809Y-143441628D01*
X130865714Y-143917819D02*
X130865714Y-142917819D01*
X130865714Y-142917819D02*
X131246666Y-142917819D01*
X131246666Y-142917819D02*
X131341904Y-142965438D01*
X131341904Y-142965438D02*
X131389523Y-143013057D01*
X131389523Y-143013057D02*
X131437142Y-143108295D01*
X131437142Y-143108295D02*
X131437142Y-143251152D01*
X131437142Y-143251152D02*
X131389523Y-143346390D01*
X131389523Y-143346390D02*
X131341904Y-143394009D01*
X131341904Y-143394009D02*
X131246666Y-143441628D01*
X131246666Y-143441628D02*
X130865714Y-143441628D01*
X132389523Y-143917819D02*
X131818095Y-143917819D01*
X132103809Y-143917819D02*
X132103809Y-142917819D01*
X132103809Y-142917819D02*
X132008571Y-143060676D01*
X132008571Y-143060676D02*
X131913333Y-143155914D01*
X131913333Y-143155914D02*
X131818095Y-143203533D01*
X132770476Y-143013057D02*
X132818095Y-142965438D01*
X132818095Y-142965438D02*
X132913333Y-142917819D01*
X132913333Y-142917819D02*
X133151428Y-142917819D01*
X133151428Y-142917819D02*
X133246666Y-142965438D01*
X133246666Y-142965438D02*
X133294285Y-143013057D01*
X133294285Y-143013057D02*
X133341904Y-143108295D01*
X133341904Y-143108295D02*
X133341904Y-143203533D01*
X133341904Y-143203533D02*
X133294285Y-143346390D01*
X133294285Y-143346390D02*
X132722857Y-143917819D01*
X132722857Y-143917819D02*
X133341904Y-143917819D01*
%TO.C,D8*%
X99123652Y-175201162D02*
X99123652Y-174201162D01*
X99123652Y-174201162D02*
X99361747Y-174201162D01*
X99361747Y-174201162D02*
X99504604Y-174248781D01*
X99504604Y-174248781D02*
X99599842Y-174344019D01*
X99599842Y-174344019D02*
X99647461Y-174439257D01*
X99647461Y-174439257D02*
X99695080Y-174629733D01*
X99695080Y-174629733D02*
X99695080Y-174772590D01*
X99695080Y-174772590D02*
X99647461Y-174963066D01*
X99647461Y-174963066D02*
X99599842Y-175058304D01*
X99599842Y-175058304D02*
X99504604Y-175153543D01*
X99504604Y-175153543D02*
X99361747Y-175201162D01*
X99361747Y-175201162D02*
X99123652Y-175201162D01*
X100266509Y-174629733D02*
X100171271Y-174582114D01*
X100171271Y-174582114D02*
X100123652Y-174534495D01*
X100123652Y-174534495D02*
X100076033Y-174439257D01*
X100076033Y-174439257D02*
X100076033Y-174391638D01*
X100076033Y-174391638D02*
X100123652Y-174296400D01*
X100123652Y-174296400D02*
X100171271Y-174248781D01*
X100171271Y-174248781D02*
X100266509Y-174201162D01*
X100266509Y-174201162D02*
X100456985Y-174201162D01*
X100456985Y-174201162D02*
X100552223Y-174248781D01*
X100552223Y-174248781D02*
X100599842Y-174296400D01*
X100599842Y-174296400D02*
X100647461Y-174391638D01*
X100647461Y-174391638D02*
X100647461Y-174439257D01*
X100647461Y-174439257D02*
X100599842Y-174534495D01*
X100599842Y-174534495D02*
X100552223Y-174582114D01*
X100552223Y-174582114D02*
X100456985Y-174629733D01*
X100456985Y-174629733D02*
X100266509Y-174629733D01*
X100266509Y-174629733D02*
X100171271Y-174677352D01*
X100171271Y-174677352D02*
X100123652Y-174724971D01*
X100123652Y-174724971D02*
X100076033Y-174820209D01*
X100076033Y-174820209D02*
X100076033Y-175010685D01*
X100076033Y-175010685D02*
X100123652Y-175105923D01*
X100123652Y-175105923D02*
X100171271Y-175153543D01*
X100171271Y-175153543D02*
X100266509Y-175201162D01*
X100266509Y-175201162D02*
X100456985Y-175201162D01*
X100456985Y-175201162D02*
X100552223Y-175153543D01*
X100552223Y-175153543D02*
X100599842Y-175105923D01*
X100599842Y-175105923D02*
X100647461Y-175010685D01*
X100647461Y-175010685D02*
X100647461Y-174820209D01*
X100647461Y-174820209D02*
X100599842Y-174724971D01*
X100599842Y-174724971D02*
X100552223Y-174677352D01*
X100552223Y-174677352D02*
X100456985Y-174629733D01*
%TO.C,D6*%
X99123652Y-179011162D02*
X99123652Y-178011162D01*
X99123652Y-178011162D02*
X99361747Y-178011162D01*
X99361747Y-178011162D02*
X99504604Y-178058781D01*
X99504604Y-178058781D02*
X99599842Y-178154019D01*
X99599842Y-178154019D02*
X99647461Y-178249257D01*
X99647461Y-178249257D02*
X99695080Y-178439733D01*
X99695080Y-178439733D02*
X99695080Y-178582590D01*
X99695080Y-178582590D02*
X99647461Y-178773066D01*
X99647461Y-178773066D02*
X99599842Y-178868304D01*
X99599842Y-178868304D02*
X99504604Y-178963543D01*
X99504604Y-178963543D02*
X99361747Y-179011162D01*
X99361747Y-179011162D02*
X99123652Y-179011162D01*
X100552223Y-178011162D02*
X100361747Y-178011162D01*
X100361747Y-178011162D02*
X100266509Y-178058781D01*
X100266509Y-178058781D02*
X100218890Y-178106400D01*
X100218890Y-178106400D02*
X100123652Y-178249257D01*
X100123652Y-178249257D02*
X100076033Y-178439733D01*
X100076033Y-178439733D02*
X100076033Y-178820685D01*
X100076033Y-178820685D02*
X100123652Y-178915923D01*
X100123652Y-178915923D02*
X100171271Y-178963543D01*
X100171271Y-178963543D02*
X100266509Y-179011162D01*
X100266509Y-179011162D02*
X100456985Y-179011162D01*
X100456985Y-179011162D02*
X100552223Y-178963543D01*
X100552223Y-178963543D02*
X100599842Y-178915923D01*
X100599842Y-178915923D02*
X100647461Y-178820685D01*
X100647461Y-178820685D02*
X100647461Y-178582590D01*
X100647461Y-178582590D02*
X100599842Y-178487352D01*
X100599842Y-178487352D02*
X100552223Y-178439733D01*
X100552223Y-178439733D02*
X100456985Y-178392114D01*
X100456985Y-178392114D02*
X100266509Y-178392114D01*
X100266509Y-178392114D02*
X100171271Y-178439733D01*
X100171271Y-178439733D02*
X100123652Y-178487352D01*
X100123652Y-178487352D02*
X100076033Y-178582590D01*
%TO.C,R15*%
X79367142Y-155007819D02*
X79033809Y-154531628D01*
X78795714Y-155007819D02*
X78795714Y-154007819D01*
X78795714Y-154007819D02*
X79176666Y-154007819D01*
X79176666Y-154007819D02*
X79271904Y-154055438D01*
X79271904Y-154055438D02*
X79319523Y-154103057D01*
X79319523Y-154103057D02*
X79367142Y-154198295D01*
X79367142Y-154198295D02*
X79367142Y-154341152D01*
X79367142Y-154341152D02*
X79319523Y-154436390D01*
X79319523Y-154436390D02*
X79271904Y-154484009D01*
X79271904Y-154484009D02*
X79176666Y-154531628D01*
X79176666Y-154531628D02*
X78795714Y-154531628D01*
X80319523Y-155007819D02*
X79748095Y-155007819D01*
X80033809Y-155007819D02*
X80033809Y-154007819D01*
X80033809Y-154007819D02*
X79938571Y-154150676D01*
X79938571Y-154150676D02*
X79843333Y-154245914D01*
X79843333Y-154245914D02*
X79748095Y-154293533D01*
X81224285Y-154007819D02*
X80748095Y-154007819D01*
X80748095Y-154007819D02*
X80700476Y-154484009D01*
X80700476Y-154484009D02*
X80748095Y-154436390D01*
X80748095Y-154436390D02*
X80843333Y-154388771D01*
X80843333Y-154388771D02*
X81081428Y-154388771D01*
X81081428Y-154388771D02*
X81176666Y-154436390D01*
X81176666Y-154436390D02*
X81224285Y-154484009D01*
X81224285Y-154484009D02*
X81271904Y-154579247D01*
X81271904Y-154579247D02*
X81271904Y-154817342D01*
X81271904Y-154817342D02*
X81224285Y-154912580D01*
X81224285Y-154912580D02*
X81176666Y-154960200D01*
X81176666Y-154960200D02*
X81081428Y-155007819D01*
X81081428Y-155007819D02*
X80843333Y-155007819D01*
X80843333Y-155007819D02*
X80748095Y-154960200D01*
X80748095Y-154960200D02*
X80700476Y-154912580D01*
%TO.C,R5*%
X93813333Y-155367819D02*
X93480000Y-154891628D01*
X93241905Y-155367819D02*
X93241905Y-154367819D01*
X93241905Y-154367819D02*
X93622857Y-154367819D01*
X93622857Y-154367819D02*
X93718095Y-154415438D01*
X93718095Y-154415438D02*
X93765714Y-154463057D01*
X93765714Y-154463057D02*
X93813333Y-154558295D01*
X93813333Y-154558295D02*
X93813333Y-154701152D01*
X93813333Y-154701152D02*
X93765714Y-154796390D01*
X93765714Y-154796390D02*
X93718095Y-154844009D01*
X93718095Y-154844009D02*
X93622857Y-154891628D01*
X93622857Y-154891628D02*
X93241905Y-154891628D01*
X94718095Y-154367819D02*
X94241905Y-154367819D01*
X94241905Y-154367819D02*
X94194286Y-154844009D01*
X94194286Y-154844009D02*
X94241905Y-154796390D01*
X94241905Y-154796390D02*
X94337143Y-154748771D01*
X94337143Y-154748771D02*
X94575238Y-154748771D01*
X94575238Y-154748771D02*
X94670476Y-154796390D01*
X94670476Y-154796390D02*
X94718095Y-154844009D01*
X94718095Y-154844009D02*
X94765714Y-154939247D01*
X94765714Y-154939247D02*
X94765714Y-155177342D01*
X94765714Y-155177342D02*
X94718095Y-155272580D01*
X94718095Y-155272580D02*
X94670476Y-155320200D01*
X94670476Y-155320200D02*
X94575238Y-155367819D01*
X94575238Y-155367819D02*
X94337143Y-155367819D01*
X94337143Y-155367819D02*
X94241905Y-155320200D01*
X94241905Y-155320200D02*
X94194286Y-155272580D01*
%TO.C,U4*%
X99584819Y-165926904D02*
X100394342Y-165926904D01*
X100394342Y-165926904D02*
X100489580Y-165879285D01*
X100489580Y-165879285D02*
X100537200Y-165831666D01*
X100537200Y-165831666D02*
X100584819Y-165736428D01*
X100584819Y-165736428D02*
X100584819Y-165545952D01*
X100584819Y-165545952D02*
X100537200Y-165450714D01*
X100537200Y-165450714D02*
X100489580Y-165403095D01*
X100489580Y-165403095D02*
X100394342Y-165355476D01*
X100394342Y-165355476D02*
X99584819Y-165355476D01*
X99918152Y-164450714D02*
X100584819Y-164450714D01*
X99537200Y-164688809D02*
X100251485Y-164926904D01*
X100251485Y-164926904D02*
X100251485Y-164307857D01*
%TO.C,R3*%
X121160383Y-175399819D02*
X120827050Y-174923628D01*
X120588955Y-175399819D02*
X120588955Y-174399819D01*
X120588955Y-174399819D02*
X120969907Y-174399819D01*
X120969907Y-174399819D02*
X121065145Y-174447438D01*
X121065145Y-174447438D02*
X121112764Y-174495057D01*
X121112764Y-174495057D02*
X121160383Y-174590295D01*
X121160383Y-174590295D02*
X121160383Y-174733152D01*
X121160383Y-174733152D02*
X121112764Y-174828390D01*
X121112764Y-174828390D02*
X121065145Y-174876009D01*
X121065145Y-174876009D02*
X120969907Y-174923628D01*
X120969907Y-174923628D02*
X120588955Y-174923628D01*
X121493717Y-174399819D02*
X122112764Y-174399819D01*
X122112764Y-174399819D02*
X121779431Y-174780771D01*
X121779431Y-174780771D02*
X121922288Y-174780771D01*
X121922288Y-174780771D02*
X122017526Y-174828390D01*
X122017526Y-174828390D02*
X122065145Y-174876009D01*
X122065145Y-174876009D02*
X122112764Y-174971247D01*
X122112764Y-174971247D02*
X122112764Y-175209342D01*
X122112764Y-175209342D02*
X122065145Y-175304580D01*
X122065145Y-175304580D02*
X122017526Y-175352200D01*
X122017526Y-175352200D02*
X121922288Y-175399819D01*
X121922288Y-175399819D02*
X121636574Y-175399819D01*
X121636574Y-175399819D02*
X121541336Y-175352200D01*
X121541336Y-175352200D02*
X121493717Y-175304580D01*
%TO.C,R16*%
X79367142Y-149927819D02*
X79033809Y-149451628D01*
X78795714Y-149927819D02*
X78795714Y-148927819D01*
X78795714Y-148927819D02*
X79176666Y-148927819D01*
X79176666Y-148927819D02*
X79271904Y-148975438D01*
X79271904Y-148975438D02*
X79319523Y-149023057D01*
X79319523Y-149023057D02*
X79367142Y-149118295D01*
X79367142Y-149118295D02*
X79367142Y-149261152D01*
X79367142Y-149261152D02*
X79319523Y-149356390D01*
X79319523Y-149356390D02*
X79271904Y-149404009D01*
X79271904Y-149404009D02*
X79176666Y-149451628D01*
X79176666Y-149451628D02*
X78795714Y-149451628D01*
X80319523Y-149927819D02*
X79748095Y-149927819D01*
X80033809Y-149927819D02*
X80033809Y-148927819D01*
X80033809Y-148927819D02*
X79938571Y-149070676D01*
X79938571Y-149070676D02*
X79843333Y-149165914D01*
X79843333Y-149165914D02*
X79748095Y-149213533D01*
X81176666Y-148927819D02*
X80986190Y-148927819D01*
X80986190Y-148927819D02*
X80890952Y-148975438D01*
X80890952Y-148975438D02*
X80843333Y-149023057D01*
X80843333Y-149023057D02*
X80748095Y-149165914D01*
X80748095Y-149165914D02*
X80700476Y-149356390D01*
X80700476Y-149356390D02*
X80700476Y-149737342D01*
X80700476Y-149737342D02*
X80748095Y-149832580D01*
X80748095Y-149832580D02*
X80795714Y-149880200D01*
X80795714Y-149880200D02*
X80890952Y-149927819D01*
X80890952Y-149927819D02*
X81081428Y-149927819D01*
X81081428Y-149927819D02*
X81176666Y-149880200D01*
X81176666Y-149880200D02*
X81224285Y-149832580D01*
X81224285Y-149832580D02*
X81271904Y-149737342D01*
X81271904Y-149737342D02*
X81271904Y-149499247D01*
X81271904Y-149499247D02*
X81224285Y-149404009D01*
X81224285Y-149404009D02*
X81176666Y-149356390D01*
X81176666Y-149356390D02*
X81081428Y-149308771D01*
X81081428Y-149308771D02*
X80890952Y-149308771D01*
X80890952Y-149308771D02*
X80795714Y-149356390D01*
X80795714Y-149356390D02*
X80748095Y-149404009D01*
X80748095Y-149404009D02*
X80700476Y-149499247D01*
%TO.C,R19*%
X85717142Y-132704819D02*
X85383809Y-132228628D01*
X85145714Y-132704819D02*
X85145714Y-131704819D01*
X85145714Y-131704819D02*
X85526666Y-131704819D01*
X85526666Y-131704819D02*
X85621904Y-131752438D01*
X85621904Y-131752438D02*
X85669523Y-131800057D01*
X85669523Y-131800057D02*
X85717142Y-131895295D01*
X85717142Y-131895295D02*
X85717142Y-132038152D01*
X85717142Y-132038152D02*
X85669523Y-132133390D01*
X85669523Y-132133390D02*
X85621904Y-132181009D01*
X85621904Y-132181009D02*
X85526666Y-132228628D01*
X85526666Y-132228628D02*
X85145714Y-132228628D01*
X86669523Y-132704819D02*
X86098095Y-132704819D01*
X86383809Y-132704819D02*
X86383809Y-131704819D01*
X86383809Y-131704819D02*
X86288571Y-131847676D01*
X86288571Y-131847676D02*
X86193333Y-131942914D01*
X86193333Y-131942914D02*
X86098095Y-131990533D01*
X87145714Y-132704819D02*
X87336190Y-132704819D01*
X87336190Y-132704819D02*
X87431428Y-132657200D01*
X87431428Y-132657200D02*
X87479047Y-132609580D01*
X87479047Y-132609580D02*
X87574285Y-132466723D01*
X87574285Y-132466723D02*
X87621904Y-132276247D01*
X87621904Y-132276247D02*
X87621904Y-131895295D01*
X87621904Y-131895295D02*
X87574285Y-131800057D01*
X87574285Y-131800057D02*
X87526666Y-131752438D01*
X87526666Y-131752438D02*
X87431428Y-131704819D01*
X87431428Y-131704819D02*
X87240952Y-131704819D01*
X87240952Y-131704819D02*
X87145714Y-131752438D01*
X87145714Y-131752438D02*
X87098095Y-131800057D01*
X87098095Y-131800057D02*
X87050476Y-131895295D01*
X87050476Y-131895295D02*
X87050476Y-132133390D01*
X87050476Y-132133390D02*
X87098095Y-132228628D01*
X87098095Y-132228628D02*
X87145714Y-132276247D01*
X87145714Y-132276247D02*
X87240952Y-132323866D01*
X87240952Y-132323866D02*
X87431428Y-132323866D01*
X87431428Y-132323866D02*
X87526666Y-132276247D01*
X87526666Y-132276247D02*
X87574285Y-132228628D01*
X87574285Y-132228628D02*
X87621904Y-132133390D01*
%TO.C,D4*%
X114988955Y-175239819D02*
X114988955Y-174239819D01*
X114988955Y-174239819D02*
X115227050Y-174239819D01*
X115227050Y-174239819D02*
X115369907Y-174287438D01*
X115369907Y-174287438D02*
X115465145Y-174382676D01*
X115465145Y-174382676D02*
X115512764Y-174477914D01*
X115512764Y-174477914D02*
X115560383Y-174668390D01*
X115560383Y-174668390D02*
X115560383Y-174811247D01*
X115560383Y-174811247D02*
X115512764Y-175001723D01*
X115512764Y-175001723D02*
X115465145Y-175096961D01*
X115465145Y-175096961D02*
X115369907Y-175192200D01*
X115369907Y-175192200D02*
X115227050Y-175239819D01*
X115227050Y-175239819D02*
X114988955Y-175239819D01*
X116417526Y-174573152D02*
X116417526Y-175239819D01*
X116179431Y-174192200D02*
X115941336Y-174906485D01*
X115941336Y-174906485D02*
X116560383Y-174906485D01*
D11*
%TO.C,R11*%
X128040000Y-134403000D02*
X128810000Y-134403000D01*
X128810000Y-133033000D02*
X128810000Y-135773000D01*
X128810000Y-135773000D02*
X135350000Y-135773000D01*
X135350000Y-133033000D02*
X128810000Y-133033000D01*
X135350000Y-135773000D02*
X135350000Y-133033000D01*
X136120000Y-134403000D02*
X135350000Y-134403000D01*
%TO.C,R7*%
X110874114Y-177330000D02*
X110419986Y-177330000D01*
X110874114Y-175860000D02*
X110419986Y-175860000D01*
%TO.C,R23*%
X102640000Y-152183000D02*
X103410000Y-152183000D01*
X103410000Y-150813000D02*
X103410000Y-153553000D01*
X103410000Y-153553000D02*
X109950000Y-153553000D01*
X109950000Y-150813000D02*
X103410000Y-150813000D01*
X109950000Y-153553000D02*
X109950000Y-150813000D01*
X110720000Y-152183000D02*
X109950000Y-152183000D01*
%TO.C,R8*%
X126634114Y-177330000D02*
X126179986Y-177330000D01*
X126634114Y-175860000D02*
X126179986Y-175860000D01*
%TO.C,R22*%
X105640000Y-129323000D02*
X104870000Y-129323000D01*
X104870000Y-130693000D02*
X104870000Y-127953000D01*
X104870000Y-127953000D02*
X98330000Y-127953000D01*
X98330000Y-130693000D02*
X104870000Y-130693000D01*
X98330000Y-127953000D02*
X98330000Y-130693000D01*
X97560000Y-129323000D02*
X98330000Y-129323000D01*
%TO.C,R1*%
X75972936Y-171985000D02*
X76427064Y-171985000D01*
X75972936Y-173455000D02*
X76427064Y-173455000D01*
%TO.C,D1*%
X85370000Y-177595000D02*
X85370000Y-175595000D01*
X85370000Y-177595000D02*
X81360000Y-177595000D01*
X85370000Y-175595000D02*
X81360000Y-175595000D01*
%TO.C,D3*%
X118087050Y-177765000D02*
X118087050Y-175765000D01*
X118087050Y-177765000D02*
X114077050Y-177765000D01*
X118087050Y-175765000D02*
X114077050Y-175765000D01*
%TO.C,R21*%
X112800000Y-129323000D02*
X113570000Y-129323000D01*
X113570000Y-127953000D02*
X113570000Y-130693000D01*
X113570000Y-130693000D02*
X120110000Y-130693000D01*
X120110000Y-127953000D02*
X113570000Y-127953000D01*
X120110000Y-130693000D02*
X120110000Y-127953000D01*
X120880000Y-129323000D02*
X120110000Y-129323000D01*
%TO.C,D5*%
X133847050Y-177595000D02*
X133847050Y-175595000D01*
X133847050Y-177595000D02*
X129837050Y-177595000D01*
X133847050Y-175595000D02*
X129837050Y-175595000D01*
D10*
%TO.C,U3*%
X91035000Y-163830000D02*
X91035000Y-164055000D01*
X91035000Y-163830000D02*
X94385000Y-163830000D01*
X91035000Y-164055000D02*
X89810000Y-164055000D01*
X91035000Y-167180000D02*
X91035000Y-166880000D01*
X91035000Y-167180000D02*
X94385000Y-167180000D01*
X94385000Y-163830000D02*
X94385000Y-164130000D01*
X94385000Y-167180000D02*
X94385000Y-166880000D01*
D11*
%TO.C,U5*%
X101550000Y-147203000D02*
X111830000Y-147203000D01*
X111830000Y-147203000D02*
X111830000Y-141903000D01*
X101550000Y-145553000D02*
X101550000Y-147203000D01*
X101550000Y-141903000D02*
X101550000Y-143553000D01*
X111830000Y-141903000D02*
X101550000Y-141903000D01*
X101550000Y-145553000D02*
G75*
G03*
X101550000Y-143553000I0J1000000D01*
G01*
%TO.C,D7*%
X133847050Y-173785000D02*
X133847050Y-171785000D01*
X133847050Y-173785000D02*
X129837050Y-173785000D01*
X133847050Y-171785000D02*
X129837050Y-171785000D01*
%TO.C,Q4*%
X82020000Y-142603000D02*
X85620000Y-142603000D01*
X83820000Y-138153001D02*
G75*
G03*
X81463601Y-139654193I0J-2599999D01*
G01*
X81495817Y-141875795D02*
G75*
G03*
X82020001Y-142602999I2324183J1122795D01*
G01*
X86176400Y-139654193D02*
G75*
G03*
X83820000Y-138153000I-2356400J-1098807D01*
G01*
X85619999Y-142602999D02*
G75*
G03*
X86144183Y-141875795I-1799999J1849999D01*
G01*
%TO.C,R6*%
X78157064Y-177330000D02*
X77702936Y-177330000D01*
X78157064Y-175860000D02*
X77702936Y-175860000D01*
%TO.C,U2*%
X76090000Y-83740000D02*
X94090000Y-83740000D01*
X94090000Y-83740000D02*
X94090000Y-121740000D01*
X94090000Y-121740000D02*
X76090000Y-121740000D01*
X76090000Y-121740000D02*
X76090000Y-83740000D01*
X80010000Y-76962000D02*
X90170000Y-76962000D01*
X90170000Y-76962000D02*
X90170000Y-83820000D01*
X90170000Y-83820000D02*
X80010000Y-83820000D01*
X80010000Y-83820000D02*
X80010000Y-76962000D01*
G36*
X80010000Y-76962000D02*
G01*
X90170000Y-76962000D01*
X90170000Y-83820000D01*
X80010000Y-83820000D01*
X80010000Y-76962000D01*
G37*
%TO.C,U1*%
X129540000Y-114083000D02*
X129540000Y-84873000D01*
X129540000Y-84873000D02*
X127000000Y-84873000D01*
X127000000Y-116623000D02*
X129540000Y-114083000D01*
X127000000Y-116623000D02*
X125730000Y-116623000D01*
X127000000Y-84873000D02*
X127000000Y-79793000D01*
X127000000Y-79793000D02*
X99060000Y-79793000D01*
X119380000Y-82333000D02*
X109220000Y-82333000D01*
X119380000Y-79793000D02*
X119380000Y-82333000D01*
X119380000Y-79793000D02*
X119380000Y-73443000D01*
X119380000Y-73443000D02*
X109220000Y-73443000D01*
X109220000Y-82333000D02*
X109220000Y-79793000D01*
X109220000Y-73443000D02*
X109220000Y-79793000D01*
X101600000Y-116623000D02*
X125730000Y-116623000D01*
X101600000Y-116623000D02*
X99060000Y-114083000D01*
X99060000Y-114083000D02*
X99060000Y-79793000D01*
D12*
X128270000Y-83603000D02*
X127000000Y-83603000D01*
X127000000Y-81063000D01*
X128270000Y-81063000D01*
X128270000Y-83603000D01*
G36*
X128270000Y-83603000D02*
G01*
X127000000Y-83603000D01*
X127000000Y-81063000D01*
X128270000Y-81063000D01*
X128270000Y-83603000D01*
G37*
D11*
%TO.C,R18*%
X82320000Y-129540000D02*
X83090000Y-129540000D01*
X83090000Y-128170000D02*
X83090000Y-130910000D01*
X83090000Y-130910000D02*
X89630000Y-130910000D01*
X89630000Y-128170000D02*
X83090000Y-128170000D01*
X89630000Y-130910000D02*
X89630000Y-128170000D01*
X90400000Y-129540000D02*
X89630000Y-129540000D01*
%TO.C,R27*%
X115340000Y-149643000D02*
X116110000Y-149643000D01*
X116110000Y-148273000D02*
X116110000Y-151013000D01*
X116110000Y-151013000D02*
X122650000Y-151013000D01*
X122650000Y-148273000D02*
X116110000Y-148273000D01*
X122650000Y-151013000D02*
X122650000Y-148273000D01*
X123420000Y-149643000D02*
X122650000Y-149643000D01*
%TO.C,R13*%
X128040000Y-150913000D02*
X128810000Y-150913000D01*
X128810000Y-149543000D02*
X128810000Y-152283000D01*
X128810000Y-152283000D02*
X135350000Y-152283000D01*
X135350000Y-149543000D02*
X128810000Y-149543000D01*
X135350000Y-152283000D02*
X135350000Y-149543000D01*
X136120000Y-150913000D02*
X135350000Y-150913000D01*
%TO.C,R14*%
X98020000Y-147463000D02*
X97250000Y-147463000D01*
X97250000Y-148833000D02*
X97250000Y-146093000D01*
X97250000Y-146093000D02*
X90710000Y-146093000D01*
X90710000Y-148833000D02*
X97250000Y-148833000D01*
X90710000Y-146093000D02*
X90710000Y-148833000D01*
X89940000Y-147463000D02*
X90710000Y-147463000D01*
%TO.C,Q3*%
X92180000Y-142963000D02*
X95780000Y-142963000D01*
X93980000Y-138513001D02*
G75*
G03*
X91623601Y-140014193I0J-2599999D01*
G01*
X91655817Y-142235795D02*
G75*
G03*
X92180001Y-142962999I2324183J1122795D01*
G01*
X96336400Y-140014193D02*
G75*
G03*
X93980000Y-138513000I-2356400J-1098807D01*
G01*
X95779999Y-142962999D02*
G75*
G03*
X96304183Y-142235795I-1799999J1849999D01*
G01*
%TO.C,Q7*%
X118850000Y-145143000D02*
X122450000Y-145143000D01*
X120650000Y-140693001D02*
G75*
G03*
X118293601Y-142194193I0J-2599999D01*
G01*
X118325817Y-144415795D02*
G75*
G03*
X118850001Y-145142999I2324183J1122795D01*
G01*
X123006400Y-142194193D02*
G75*
G03*
X120650000Y-140693000I-2356400J-1098807D01*
G01*
X122449999Y-145142999D02*
G75*
G03*
X122974183Y-144415795I-1799999J1849999D01*
G01*
%TO.C,R17*%
X81815000Y-165327064D02*
X81815000Y-164872936D01*
X83285000Y-165327064D02*
X83285000Y-164872936D01*
%TO.C,R2*%
X105339986Y-175860000D02*
X105794114Y-175860000D01*
X105339986Y-177330000D02*
X105794114Y-177330000D01*
%TO.C,D9*%
X96890000Y-135673000D02*
X97030000Y-135673000D01*
X97030000Y-133703000D02*
X97030000Y-137643000D01*
X97030000Y-137643000D02*
X106170000Y-137643000D01*
X98365000Y-133703000D02*
X98365000Y-137643000D01*
X98485000Y-133703000D02*
X98485000Y-137643000D01*
X98605000Y-133703000D02*
X98605000Y-137643000D01*
X106170000Y-133703000D02*
X97030000Y-133703000D01*
X106170000Y-137643000D02*
X106170000Y-133703000D01*
X106310000Y-135673000D02*
X106170000Y-135673000D01*
%TO.C,Q1*%
X134952500Y-137923000D02*
X133277500Y-137923000D01*
X134952500Y-137923000D02*
X135602500Y-137923000D01*
X134952500Y-141043000D02*
X134302500Y-141043000D01*
X134952500Y-141043000D02*
X135602500Y-141043000D01*
%TO.C,R24*%
X123420000Y-135673000D02*
X122650000Y-135673000D01*
X122650000Y-137043000D02*
X122650000Y-134303000D01*
X122650000Y-134303000D02*
X116110000Y-134303000D01*
X116110000Y-137043000D02*
X122650000Y-137043000D01*
X116110000Y-134303000D02*
X116110000Y-137043000D01*
X115340000Y-135673000D02*
X116110000Y-135673000D01*
%TO.C,D2*%
X85370000Y-173785000D02*
X85370000Y-171785000D01*
X85370000Y-173785000D02*
X81360000Y-173785000D01*
X85370000Y-171785000D02*
X81360000Y-171785000D01*
%TO.C,C3*%
X86895000Y-165766252D02*
X86895000Y-165243748D01*
X88365000Y-165766252D02*
X88365000Y-165243748D01*
%TO.C,R4*%
X89474683Y-175821343D02*
X89928811Y-175821343D01*
X89474683Y-177291343D02*
X89928811Y-177291343D01*
%TO.C,C2*%
X130307651Y-90395000D02*
X131107651Y-90395000D01*
X130707651Y-89995000D02*
X130707651Y-90795000D01*
X134717349Y-88630000D02*
X134717349Y-96790000D01*
X134757349Y-88630000D02*
X134757349Y-96790000D01*
X134797349Y-88630000D02*
X134797349Y-96790000D01*
X134837349Y-88631000D02*
X134837349Y-96789000D01*
X134877349Y-88633000D02*
X134877349Y-96787000D01*
X134917349Y-88634000D02*
X134917349Y-96786000D01*
X134957349Y-88636000D02*
X134957349Y-96784000D01*
X134997349Y-88639000D02*
X134997349Y-96781000D01*
X135037349Y-88642000D02*
X135037349Y-96778000D01*
X135077349Y-88645000D02*
X135077349Y-96775000D01*
X135117349Y-88649000D02*
X135117349Y-96771000D01*
X135157349Y-88653000D02*
X135157349Y-96767000D01*
X135197349Y-88658000D02*
X135197349Y-96762000D01*
X135237349Y-88662000D02*
X135237349Y-96758000D01*
X135277349Y-88668000D02*
X135277349Y-96752000D01*
X135317349Y-88673000D02*
X135317349Y-96747000D01*
X135357349Y-88680000D02*
X135357349Y-96740000D01*
X135397349Y-88686000D02*
X135397349Y-96734000D01*
X135438349Y-88693000D02*
X135438349Y-96727000D01*
X135478349Y-88700000D02*
X135478349Y-96720000D01*
X135518349Y-88708000D02*
X135518349Y-96712000D01*
X135558349Y-88716000D02*
X135558349Y-96704000D01*
X135598349Y-88725000D02*
X135598349Y-96695000D01*
X135638349Y-88734000D02*
X135638349Y-96686000D01*
X135678349Y-88743000D02*
X135678349Y-96677000D01*
X135718349Y-88753000D02*
X135718349Y-96667000D01*
X135758349Y-88763000D02*
X135758349Y-96657000D01*
X135798349Y-88774000D02*
X135798349Y-96646000D01*
X135838349Y-88785000D02*
X135838349Y-96635000D01*
X135878349Y-88796000D02*
X135878349Y-96624000D01*
X135918349Y-88808000D02*
X135918349Y-96612000D01*
X135958349Y-88821000D02*
X135958349Y-96599000D01*
X135998349Y-88833000D02*
X135998349Y-96587000D01*
X136038349Y-88847000D02*
X136038349Y-96573000D01*
X136078349Y-88860000D02*
X136078349Y-96560000D01*
X136118349Y-88875000D02*
X136118349Y-96545000D01*
X136158349Y-88889000D02*
X136158349Y-96531000D01*
X136198349Y-88905000D02*
X136198349Y-91670000D01*
X136198349Y-93750000D02*
X136198349Y-96515000D01*
X136238349Y-88920000D02*
X136238349Y-91670000D01*
X136238349Y-93750000D02*
X136238349Y-96500000D01*
X136278349Y-88936000D02*
X136278349Y-91670000D01*
X136278349Y-93750000D02*
X136278349Y-96484000D01*
X136318349Y-88953000D02*
X136318349Y-91670000D01*
X136318349Y-93750000D02*
X136318349Y-96467000D01*
X136358349Y-88970000D02*
X136358349Y-91670000D01*
X136358349Y-93750000D02*
X136358349Y-96450000D01*
X136398349Y-88988000D02*
X136398349Y-91670000D01*
X136398349Y-93750000D02*
X136398349Y-96432000D01*
X136438349Y-89006000D02*
X136438349Y-91670000D01*
X136438349Y-93750000D02*
X136438349Y-96414000D01*
X136478349Y-89024000D02*
X136478349Y-91670000D01*
X136478349Y-93750000D02*
X136478349Y-96396000D01*
X136518349Y-89044000D02*
X136518349Y-91670000D01*
X136518349Y-93750000D02*
X136518349Y-96376000D01*
X136558349Y-89063000D02*
X136558349Y-91670000D01*
X136558349Y-93750000D02*
X136558349Y-96357000D01*
X136598349Y-89083000D02*
X136598349Y-91670000D01*
X136598349Y-93750000D02*
X136598349Y-96337000D01*
X136638349Y-89104000D02*
X136638349Y-91670000D01*
X136638349Y-93750000D02*
X136638349Y-96316000D01*
X136678349Y-89126000D02*
X136678349Y-91670000D01*
X136678349Y-93750000D02*
X136678349Y-96294000D01*
X136718349Y-89148000D02*
X136718349Y-91670000D01*
X136718349Y-93750000D02*
X136718349Y-96272000D01*
X136758349Y-89170000D02*
X136758349Y-91670000D01*
X136758349Y-93750000D02*
X136758349Y-96250000D01*
X136798349Y-89193000D02*
X136798349Y-91670000D01*
X136798349Y-93750000D02*
X136798349Y-96227000D01*
X136838349Y-89217000D02*
X136838349Y-91670000D01*
X136838349Y-93750000D02*
X136838349Y-96203000D01*
X136878349Y-89241000D02*
X136878349Y-91670000D01*
X136878349Y-93750000D02*
X136878349Y-96179000D01*
X136918349Y-89266000D02*
X136918349Y-91670000D01*
X136918349Y-93750000D02*
X136918349Y-96154000D01*
X136958349Y-89292000D02*
X136958349Y-91670000D01*
X136958349Y-93750000D02*
X136958349Y-96128000D01*
X136998349Y-89318000D02*
X136998349Y-91670000D01*
X136998349Y-93750000D02*
X136998349Y-96102000D01*
X137038349Y-89345000D02*
X137038349Y-91670000D01*
X137038349Y-93750000D02*
X137038349Y-96075000D01*
X137078349Y-89372000D02*
X137078349Y-91670000D01*
X137078349Y-93750000D02*
X137078349Y-96048000D01*
X137118349Y-89401000D02*
X137118349Y-91670000D01*
X137118349Y-93750000D02*
X137118349Y-96019000D01*
X137158349Y-89430000D02*
X137158349Y-91670000D01*
X137158349Y-93750000D02*
X137158349Y-95990000D01*
X137198349Y-89460000D02*
X137198349Y-91670000D01*
X137198349Y-93750000D02*
X137198349Y-95960000D01*
X137238349Y-89490000D02*
X137238349Y-91670000D01*
X137238349Y-93750000D02*
X137238349Y-95930000D01*
X137278349Y-89521000D02*
X137278349Y-91670000D01*
X137278349Y-93750000D02*
X137278349Y-95899000D01*
X137318349Y-89554000D02*
X137318349Y-91670000D01*
X137318349Y-93750000D02*
X137318349Y-95866000D01*
X137358349Y-89586000D02*
X137358349Y-91670000D01*
X137358349Y-93750000D02*
X137358349Y-95834000D01*
X137398349Y-89620000D02*
X137398349Y-91670000D01*
X137398349Y-93750000D02*
X137398349Y-95800000D01*
X137438349Y-89655000D02*
X137438349Y-91670000D01*
X137438349Y-93750000D02*
X137438349Y-95765000D01*
X137478349Y-89691000D02*
X137478349Y-91670000D01*
X137478349Y-93750000D02*
X137478349Y-95729000D01*
X137518349Y-89727000D02*
X137518349Y-91670000D01*
X137518349Y-93750000D02*
X137518349Y-95693000D01*
X137558349Y-89765000D02*
X137558349Y-91670000D01*
X137558349Y-93750000D02*
X137558349Y-95655000D01*
X137598349Y-89803000D02*
X137598349Y-91670000D01*
X137598349Y-93750000D02*
X137598349Y-95617000D01*
X137638349Y-89843000D02*
X137638349Y-91670000D01*
X137638349Y-93750000D02*
X137638349Y-95577000D01*
X137678349Y-89884000D02*
X137678349Y-91670000D01*
X137678349Y-93750000D02*
X137678349Y-95536000D01*
X137718349Y-89926000D02*
X137718349Y-91670000D01*
X137718349Y-93750000D02*
X137718349Y-95494000D01*
X137758349Y-89969000D02*
X137758349Y-91670000D01*
X137758349Y-93750000D02*
X137758349Y-95451000D01*
X137798349Y-90013000D02*
X137798349Y-91670000D01*
X137798349Y-93750000D02*
X137798349Y-95407000D01*
X137838349Y-90059000D02*
X137838349Y-91670000D01*
X137838349Y-93750000D02*
X137838349Y-95361000D01*
X137878349Y-90106000D02*
X137878349Y-91670000D01*
X137878349Y-93750000D02*
X137878349Y-95314000D01*
X137918349Y-90154000D02*
X137918349Y-91670000D01*
X137918349Y-93750000D02*
X137918349Y-95266000D01*
X137958349Y-90205000D02*
X137958349Y-91670000D01*
X137958349Y-93750000D02*
X137958349Y-95215000D01*
X137998349Y-90256000D02*
X137998349Y-91670000D01*
X137998349Y-93750000D02*
X137998349Y-95164000D01*
X138038349Y-90310000D02*
X138038349Y-91670000D01*
X138038349Y-93750000D02*
X138038349Y-95110000D01*
X138078349Y-90365000D02*
X138078349Y-91670000D01*
X138078349Y-93750000D02*
X138078349Y-95055000D01*
X138118349Y-90423000D02*
X138118349Y-91670000D01*
X138118349Y-93750000D02*
X138118349Y-94997000D01*
X138158349Y-90482000D02*
X138158349Y-91670000D01*
X138158349Y-93750000D02*
X138158349Y-94938000D01*
X138198349Y-90544000D02*
X138198349Y-91670000D01*
X138198349Y-93750000D02*
X138198349Y-94876000D01*
X138238349Y-90608000D02*
X138238349Y-91670000D01*
X138238349Y-93750000D02*
X138238349Y-94812000D01*
X138278349Y-90676000D02*
X138278349Y-94744000D01*
X138318349Y-90746000D02*
X138318349Y-94674000D01*
X138358349Y-90820000D02*
X138358349Y-94600000D01*
X138398349Y-90897000D02*
X138398349Y-94523000D01*
X138438349Y-90979000D02*
X138438349Y-94441000D01*
X138478349Y-91065000D02*
X138478349Y-94355000D01*
X138518349Y-91158000D02*
X138518349Y-94262000D01*
X138558349Y-91257000D02*
X138558349Y-94163000D01*
X138598349Y-91364000D02*
X138598349Y-94056000D01*
X138638349Y-91481000D02*
X138638349Y-93939000D01*
X138678349Y-91612000D02*
X138678349Y-93808000D01*
X138718349Y-91762000D02*
X138718349Y-93658000D01*
X138758349Y-91942000D02*
X138758349Y-93478000D01*
X138798349Y-92177000D02*
X138798349Y-93243000D01*
X138837349Y-92710000D02*
G75*
G03*
X138837349Y-92710000I-4120000J0D01*
G01*
%TO.C,R10*%
X128040000Y-129323000D02*
X128810000Y-129323000D01*
X128810000Y-127953000D02*
X128810000Y-130693000D01*
X128810000Y-130693000D02*
X135350000Y-130693000D01*
X135350000Y-127953000D02*
X128810000Y-127953000D01*
X135350000Y-130693000D02*
X135350000Y-127953000D01*
X136120000Y-129323000D02*
X135350000Y-129323000D01*
%TO.C,Q2*%
X129540000Y-141375500D02*
X131215000Y-141375500D01*
X129540000Y-141375500D02*
X128890000Y-141375500D01*
X129540000Y-138255500D02*
X130190000Y-138255500D01*
X129540000Y-138255500D02*
X128890000Y-138255500D01*
%TO.C,R9*%
X95008811Y-177291343D02*
X94554683Y-177291343D01*
X95008811Y-175821343D02*
X94554683Y-175821343D01*
%TO.C,C1*%
X104111248Y-170845000D02*
X104633752Y-170845000D01*
X104111248Y-172315000D02*
X104633752Y-172315000D01*
%TO.C,R12*%
X128040000Y-145833000D02*
X128810000Y-145833000D01*
X128810000Y-144463000D02*
X128810000Y-147203000D01*
X128810000Y-147203000D02*
X135350000Y-147203000D01*
X135350000Y-144463000D02*
X128810000Y-144463000D01*
X135350000Y-147203000D02*
X135350000Y-144463000D01*
X136120000Y-145833000D02*
X135350000Y-145833000D01*
%TO.C,D8*%
X102221747Y-173746343D02*
X102221747Y-171746343D01*
X102221747Y-173746343D02*
X98211747Y-173746343D01*
X102221747Y-171746343D02*
X98211747Y-171746343D01*
%TO.C,D6*%
X102221747Y-177556343D02*
X102221747Y-175556343D01*
X102221747Y-177556343D02*
X98211747Y-177556343D01*
X102221747Y-175556343D02*
X98211747Y-175556343D01*
%TO.C,R15*%
X84050000Y-152183000D02*
X83280000Y-152183000D01*
X83280000Y-153553000D02*
X83280000Y-150813000D01*
X83280000Y-150813000D02*
X76740000Y-150813000D01*
X76740000Y-153553000D02*
X83280000Y-153553000D01*
X76740000Y-150813000D02*
X76740000Y-153553000D01*
X75970000Y-152183000D02*
X76740000Y-152183000D01*
%TO.C,R5*%
X98020000Y-152543000D02*
X97250000Y-152543000D01*
X97250000Y-153913000D02*
X97250000Y-151173000D01*
X97250000Y-151173000D02*
X90710000Y-151173000D01*
X90710000Y-153913000D02*
X97250000Y-153913000D01*
X90710000Y-151173000D02*
X90710000Y-153913000D01*
X89940000Y-152543000D02*
X90710000Y-152543000D01*
%TO.C,U4*%
X100975000Y-165165000D02*
X100975000Y-168615000D01*
X100975000Y-165165000D02*
X100975000Y-163215000D01*
X109845000Y-165165000D02*
X109845000Y-167115000D01*
X109845000Y-165165000D02*
X109845000Y-163215000D01*
%TO.C,R3*%
X121099986Y-175860000D02*
X121554114Y-175860000D01*
X121099986Y-177330000D02*
X121554114Y-177330000D01*
%TO.C,R16*%
X84050000Y-147103000D02*
X83280000Y-147103000D01*
X83280000Y-148473000D02*
X83280000Y-145733000D01*
X83280000Y-145733000D02*
X76740000Y-145733000D01*
X76740000Y-148473000D02*
X83280000Y-148473000D01*
X76740000Y-145733000D02*
X76740000Y-148473000D01*
X75970000Y-147103000D02*
X76740000Y-147103000D01*
%TO.C,R19*%
X82320000Y-134620000D02*
X83090000Y-134620000D01*
X83090000Y-133250000D02*
X83090000Y-135990000D01*
X83090000Y-135990000D02*
X89630000Y-135990000D01*
X89630000Y-133250000D02*
X83090000Y-133250000D01*
X89630000Y-135990000D02*
X89630000Y-133250000D01*
X90400000Y-134620000D02*
X89630000Y-134620000D01*
%TO.C,D4*%
X118087050Y-173785000D02*
X118087050Y-171785000D01*
X118087050Y-173785000D02*
X114077050Y-173785000D01*
X118087050Y-171785000D02*
X114077050Y-171785000D01*
%TD*%
M02*
